<?xml version="1.0" standalone="no"?>
<!DOCTYPE svg PUBLIC "-//W3C//DTD SVG 1.1//EN" "http://www.w3.org/Graphics/SVG/1.1/DTD/svg11.dtd" >
<svg>
<metadata>
Created by FontForge 20090622 at Tue Aug 13 08:20:09 2019
 By deploy user
Copyright (c) 2007 by Jan Filipek. All rights reserved.
</metadata>
<defs>
<font id="DezenStencil02-Condensed4" horiz-adv-x="196" >
  <font-face 
    font-family="DezenStencil02 Cond 5"
    font-weight="400"
    font-stretch="condensed"
    units-per-em="1000"
    panose-1="2 1 0 6 4 0 0 0 0 3"
    ascent="774"
    descent="-226"
    x-height="508"
    cap-height="703"
    bbox="-226 -208 877 899"
    underline-thickness="50"
    underline-position="-50"
    unicode-range="U+0020-U+FB02"
  />
<missing-glyph horiz-adv-x="562" 
d="M54 0v703h454v-703h-454zM112 650v-597h338v597h-338zM227 261v17q0 39 31 70l28 32q27 30 27 58v13q0 21 -15.5 38t-39.5 17h-48v54h62q45 0 73.5 -31t28.5 -71v-16q0 -40 -36 -81l-29 -33q-21 -24 -21 -53v-14h-61zM227 143v74h61v-74h-61z" />
    <glyph glyph-name=".notdef" horiz-adv-x="562" 
d="M54 0v703h454v-703h-454zM112 650v-597h338v597h-338zM227 261v17q0 39 31 70l28 32q27 30 27 58v13q0 21 -15.5 38t-39.5 17h-48v54h62q45 0 73.5 -31t28.5 -71v-16q0 -40 -36 -81l-29 -33q-21 -24 -21 -53v-14h-61zM227 143v74h61v-74h-61z" />
    <glyph glyph-name=".null" horiz-adv-x="194" 
 />
    <glyph glyph-name="glyph2" horiz-adv-x="333" 
 />
    <glyph glyph-name="space" unicode=" " horiz-adv-x="194" 
 />
    <glyph glyph-name="exclam" unicode="!" 
d="M54 192v511h88v-511h-88zM54 0v101h88v-101h-88z" />
    <glyph glyph-name="quotedbl" unicode="&#x22;" horiz-adv-x="267" 
d="M110 538h-74v232h74v-232zM231 538h-74v232h74v-232z" />
    <glyph glyph-name="numbersign" unicode="#" horiz-adv-x="481" 
d="M208 448l9 69h116l23 186h77l-24 -186h53v-69h-61l-24 -190h78v-69h-87l-23 -189h-76l55 448h-116zM29 448v69h86l23 186h77l-56 -445h116l-8 -69h-117l-23 -189h-76l23 189h-52v69h61l23 190h-77z" />
    <glyph glyph-name="dollar" unicode="$" horiz-adv-x="502" 
d="M236 69v-69h30v69q55 1 85 33t30 82v19q0 50 -29.5 81t-93.5 31h-19q-91 0 -145 54.5t-54 130.5v33q0 73 51.5 125t125.5 55v73h68v-73q74 -4 124 -59t50 -131v-47h-84v46q0 46 -29.5 78.5t-77.5 33.5v69h-30v-69q-49 -1 -79.5 -30.5t-30.5 -73.5v-21q0 -50 31 -83.5
t92 -33.5h21q97 0 147 -50.5t50 -133.5v-28q0 -80 -51.5 -134.5t-132.5 -55.5v-72h-68v72q-78 1 -131 56t-53 133v46h86v-45q0 -45 31.5 -77.5t85.5 -33.5z" />
    <glyph glyph-name="percent" unicode="%" horiz-adv-x="606" 
d="M70 0l385 703h83l-385 -703h-83zM135 374q-47 0 -80 33t-33 80v109q0 47 33 80t80 33v-65q-20 -1 -33.5 -16.5t-13.5 -36.5v-100q0 -20 13.5 -35.5t33.5 -16.5v-65zM165 374v65q20 1 33.5 16t13.5 36v100q0 21 -13.5 36t-33.5 17v65q47 0 80 -33t33 -80v-109
q0 -47 -33 -80t-80 -33zM444 -6q-47 0 -80.5 33t-33.5 80v109q0 47 33.5 80t80.5 33v-65q-20 -2 -34 -17t-14 -36v-100q0 -20 14 -35.5t34 -16.5v-65zM474 -6v65q19 1 33 16t14 36v100q0 21 -14 36t-33 17v65q47 0 80 -33t33 -80v-109q0 -47 -33 -80t-80 -33z" />
    <glyph glyph-name="ampersand" unicode="&#x26;" horiz-adv-x="566" 
d="M192 68v-78q-83 0 -133 48.5t-50 123.5v21q0 96 110 171l14 10q-57 74 -57 151v25q0 72 49.5 122.5t121.5 50.5h4v-78q-39 -1 -65.5 -29t-26.5 -67v-20q0 -43 18.5 -78t75.5 -90l155 -149q1 1 11 14l100 119l59 -52l-100 -118l-14 -16l112 -107l-57 -58l-109 105
q-47 -49 -90 -73.5t-98 -25.5v78q61 0 133 74l-144 140l-26 24l-21 -14q-72 -49 -72 -113v-13q0 -42 28.5 -69t71.5 -29zM281 635v78h6q70 0 119 -50t49 -127v-65h-81v59q0 47 -26.5 75t-66.5 30z" />
    <glyph glyph-name="quotesingle" unicode="'" horiz-adv-x="146" 
d="M110 538h-74v232h74v-232z" />
    <glyph glyph-name="parenleft" unicode="(" horiz-adv-x="251" 
d="M142 369h-88v207q0 120 81 204l60 63l63 -56l-57 -60q-32 -34 -45.5 -69t-13.5 -99v-190zM54 339h88v-204q0 -63 14 -99t45 -70l56 -60l-62 -54l-59 62q-82 84 -82 204v221z" />
    <glyph glyph-name="parenright" unicode=")" horiz-adv-x="251" 
d="M197 369h-88v190q0 64 -13.5 99.5t-44.5 69.5l-56 60l61 55l60 -63q81 -84 81 -204v-207zM109 339h88v-221q0 -120 -81 -204l-60 -63l-62 56l56 60q32 35 45.5 70t13.5 98v204z" />
    <glyph glyph-name="asterisk" unicode="*" horiz-adv-x="318" 
d="M173 460v181l55 76l60 -39l-70 -96h94v-68h-90l66 -91l-60 -39zM143 643v-186l-53 -73l-60 39l67 91h-91v68h94l-70 96l60 39z" />
    <glyph glyph-name="plus" unicode="+" horiz-adv-x="350" 
d="M15 315v75h121v122h76v-122h123v-75h-123v-122h-76v122h-121z" />
    <glyph glyph-name="comma" unicode="," horiz-adv-x="159" 
d="M123 -136h-87v264h87v-264z" />
    <glyph glyph-name="hyphen" unicode="-" horiz-adv-x="225" 
d="M16 217v76h193v-76h-193z" />
    <glyph glyph-name="period" unicode="." horiz-adv-x="159" 
d="M36 0v101h87v-101h-87z" />
    <glyph glyph-name="slash" unicode="/" horiz-adv-x="283" 
d="M0 0l193 703h90l-193 -703h-90z" />
    <glyph glyph-name="zero" unicode="0" horiz-adv-x="528" 
d="M249 713v-81q-53 -1 -87 -35.5t-34 -84.5v-321q0 -50 34 -84.5t87 -35.5v-81h-10q-82 0 -140.5 58.5t-58.5 140.5v325q0 82 58.5 140.5t140.5 58.5h10zM279 632v81h10q83 0 141 -58.5t58 -140.5v-325q0 -83 -58 -141t-141 -58h-10v81q53 1 87.5 35.5t34.5 84.5v321
q0 50 -34.5 84.5t-87.5 35.5z" />
    <glyph glyph-name="one" unicode="1" horiz-adv-x="307" 
d="M135 687v-82l-133 -29v77zM165 0v694l33 9h55v-703h-88z" />
    <glyph glyph-name="two" unicode="2" horiz-adv-x="463" 
d="M175 0v85h269v-85h-269zM217 713v-79q-44 -1 -74 -34t-30 -78v-69h-82v70q0 80 52 134.5t130 55.5h4zM247 634v79h8q76 0 129.5 -53t53.5 -129v-21q0 -19 -2.5 -35.5t-11 -34.5t-12.5 -28t-20 -30.5t-20 -26t-25.5 -30t-24.5 -28.5l-177 -212v-85h-119v68l236 288
q58 70 72 98q14 29 14 56v18q0 43 -29.5 73.5t-71.5 32.5z" />
    <glyph glyph-name="three" unicode="3" horiz-adv-x="494" 
d="M221 66v-76h-11q-77 0 -130 53.5t-53 130.5v31h86v-30q0 -44 31.5 -76t76.5 -33zM251 -10v76q52 -1 84 31.5t32 77.5v28q0 49 -38.5 80.5t-98.5 31.5h-92v74h88q53 0 93 34.5t40 85.5v20q0 43 -30.5 75t-74.5 33v76h11q76 0 129.5 -53.5t53.5 -129.5v-23q0 -46 -27 -90
t-72 -62q53 -20 82 -62.5t29 -91.5v-27q0 -76 -53.5 -130t-129.5 -54h-26zM224 713v-76q-44 -1 -73.5 -32.5t-29.5 -75.5v-32h-86v33q0 77 51.5 130t127.5 53h10z" />
    <glyph glyph-name="four" unicode="4" horiz-adv-x="473" 
d="M272 227v-76h-270v68l289 484h94l-289 -476h176zM302 0v518l85 141v-431h84v-77h-84v-151h-85z" />
    <glyph glyph-name="five" unicode="5" horiz-adv-x="501" 
d="M173 622v81h287v-81h-287zM243 69v-79h-12q-78 0 -131 55.5t-53 134.5v39h85v-37q0 -47 30.5 -79.5t80.5 -33.5zM273 -10v80q50 1 80.5 33.5t30.5 80.5v35q0 51 -32.5 86t-85.5 35h-207v363h84v-284h139q82 0 136 -56.5t54 -137.5v-44q0 -80 -53.5 -135.5t-132.5 -55.5
h-13z" />
    <glyph glyph-name="six" unicode="6" horiz-adv-x="508" 
d="M242 713v-82q-51 -1 -83 -37t-32 -87v-119q20 10 58 18t63 8h41q79 0 132.5 -53.5t53.5 -132.5v-44q0 -81 -55 -137.5t-136 -56.5h-10v78q50 1 82 35t32 83v34q0 48 -32.5 82.5t-80.5 34.5h-34q-57 0 -114 -22v-129q0 -49 32 -83t85 -35v-78h-14q-80 0 -135 56.5
t-55 137.5v327q0 85 55.5 143.5t138.5 58.5h8zM272 631v82h7q80 0 134 -56.5t54 -137.5v-35h-85v30q0 48 -31.5 82t-78.5 35z" />
    <glyph glyph-name="seven" unicode="7" horiz-adv-x="414" 
d="M314 703l-32 -83h-274v83h306zM74 0l271 703h68v-62l-246 -641h-93z" />
    <glyph glyph-name="eight" unicode="8" horiz-adv-x="513" 
d="M270 635v78h16q79 0 131.5 -51.5t52.5 -128.5v-24q0 -48 -25 -92t-65 -62q47 -17 73 -62t26 -97v-25q0 -76 -50.5 -128.5t-129.5 -52.5h-27v77q58 1 88.5 32t30.5 79v24q0 48 -31 81t-91 33h-28q-60 0 -90.5 -35.5t-30.5 -77.5v-23q0 -48 33.5 -80t88.5 -33v-77h-23
q-79 0 -132 52.5t-53 129.5v25q0 51 26 96.5t72 61.5q-44 18 -68 62t-24 93v22q0 78 54 129.5t132 51.5h14v-78q-52 -1 -82.5 -31.5t-30.5 -77.5v-20q0 -46 29 -79.5t88 -33.5h21q59 0 89 34.5t30 78.5v20q0 46 -31 77t-83 32z" />
    <glyph glyph-name="nine" unicode="9" horiz-adv-x="508" 
d="M266 -10v82q51 1 83 37t32 87v124q-21 -10 -58.5 -18t-62.5 -8h-41q-78 0 -131.5 53.5t-53.5 132.5v39q0 81 55 137.5t135 56.5h10v-77q-49 -1 -81 -35.5t-32 -82.5v-30q0 -48 32 -82.5t80 -34.5h34q53 0 114 21v126q0 49 -32 83t-85 35v77h14q81 0 135.5 -56.5
t54.5 -137.5v-327q0 -85 -55.5 -143.5t-138.5 -58.5h-8zM236 72v-82h-7q-80 0 -134 56.5t-54 137.5v36h85v-31q0 -48 31.5 -82t78.5 -35z" />
    <glyph glyph-name="colon" unicode=":" horiz-adv-x="159" 
d="M36 407v101h87v-101h-87zM36 0v101h87v-101h-87z" />
    <glyph glyph-name="semicolon" unicode=";" horiz-adv-x="159" 
d="M36 407v101h87v-101h-87zM36 -136v264h87v-264h-87z" />
    <glyph glyph-name="less" unicode="&#x3c;" horiz-adv-x="350" 
d="M25 317v68l300 134v-79l-209 -89l209 -89v-79z" />
    <glyph glyph-name="equal" unicode="=" horiz-adv-x="350" 
d="M15 399v72h320v-72h-320zM15 234v72h320v-72h-320z" />
    <glyph glyph-name="greater" unicode="&#x3e;" horiz-adv-x="350" 
d="M325 317l-300 -134v79l208 89l-208 89v79l300 -134v-68z" />
    <glyph glyph-name="question" unicode="?" horiz-adv-x="301" 
d="M102 703v-79h-79v79h79zM132 618v85q68 -7 111.5 -54.5t43.5 -112.5v-22q0 -77 -58 -144l-52 -58q-38 -43 -38 -84v-36h-87v44q0 56 52 113l47 52q48 51 48 105v17q0 32 -18.5 58t-48.5 37zM52 0v101h87v-101h-87z" />
    <glyph glyph-name="at" unicode="@" horiz-adv-x="683" 
d="M360 559v62h19q111 0 190 -78.5t79 -188.5v-122q0 -60 -44 -112t-119 -52h-53q-37 0 -37 49v326h67v-311h26q40 0 67 29t27 80v109q0 86 -60.5 147.5t-145.5 61.5h-16zM330 -42v-62h-27q-112 0 -191.5 79.5t-79.5 191.5v176q0 114 83.5 196t198.5 82h16v-62h-12
q-90 0 -154.5 -64.5t-64.5 -153.5v-173q0 -86 61 -148t147 -62h23zM365 147v-11q0 -37 8 -50q-32 -23 -65 -23h-22q-42 0 -69.5 27.5t-27.5 67.5v147q0 58 38.5 98t95.5 40h42v-64h-37q-34 0 -53 -24.5t-19 -59.5v-112q0 -22 13.5 -38t37.5 -16h15q23 0 43 18zM360 -104v62
h36q98 0 163 80l45 56l51 -41l-43 -57q-89 -100 -213 -100h-39z" />
    <glyph glyph-name="A" unicode="A" horiz-adv-x="486" 
d="M308 265l14 -78h-192l-50 -187h-85l194 693l38 -146l-76 -282h157zM401 0l-187 703h82l194 -703h-89z" />
    <glyph glyph-name="B" unicode="B" horiz-adv-x="521" 
d="M140 703v-703h-86v703h86zM170 624v79h114q74 0 126.5 -52.5t52.5 -126.5v-27q0 -41 -22 -82t-54 -59q43 -18 69.5 -60t26.5 -90v-28q0 -74 -51.5 -126t-125.5 -52h-136v79h121q42 0 71 30t29 72v35q0 40 -30.5 69.5t-77.5 29.5h-113v73h103q41 0 71.5 29t30.5 70v35
q0 42 -30.5 72t-72.5 30h-102z" />
    <glyph glyph-name="C" unicode="C" horiz-adv-x="519" 
d="M246 713v-81q-50 -1 -84 -36t-34 -84v-321q0 -49 34 -84t84 -36v-81h-7q-82 0 -140.5 58.5t-58.5 140.5v325q0 82 58.5 140.5t140.5 58.5h7zM394 266h87v-77q0 -83 -58.5 -141t-140.5 -58h-6v81q50 1 84 36t34 84v75zM481 437h-87v75q0 49 -34 84t-84 36v81h6
q82 0 140.5 -58.5t58.5 -140.5v-77z" />
    <glyph glyph-name="D" unicode="D" horiz-adv-x="533" 
d="M172 0v79h114q49 0 83.5 36t34.5 86v301q0 49 -35 85.5t-83 36.5h-114v79h121q83 0 141 -58.5t58 -140.5v-305q0 -83 -58 -141t-141 -58h-121zM142 703v-703h-88v703h88z" />
    <glyph glyph-name="E" unicode="E" horiz-adv-x="435" 
d="M172 0v79h231v-79h-231zM172 624v79h231v-79h-231zM142 703v-312h249v-79h-249v-312h-88v703h88z" />
    <glyph glyph-name="F" unicode="F" horiz-adv-x="408" 
d="M172 624v79h224v-79h-224zM142 703v-313h242v-79h-242v-311h-88v703h88z" />
    <glyph glyph-name="G" unicode="G" horiz-adv-x="527" 
d="M248 713v-81q-52 -1 -86 -36t-34 -84v-322q0 -49 34.5 -84t85.5 -36v-80h-9q-82 0 -140.5 58.5t-58.5 140.5v325q0 82 58.5 140.5t140.5 58.5h9zM278 271v78h210v-160q0 -83 -58 -141t-141 -58h-11v80q55 0 89.5 35t34.5 85v81h-124zM487 463h-87v49q0 49 -34.5 84
t-87.5 36v81h9q83 0 141.5 -58.5t58.5 -140.5v-51z" />
    <glyph glyph-name="H" unicode="H" horiz-adv-x="550" 
d="M172 312v79h236v312h87v-703h-87v312h-236zM142 703v-703h-88v703h88z" />
    <glyph glyph-name="I" unicode="I" 
d="M54 0v703h88v-703h-88z" />
    <glyph glyph-name="J" unicode="J" horiz-adv-x="276" 
d="M-7 0v79h35q50 0 80.5 34t30.5 83v507h88v-520q0 -78 -50.5 -130.5t-130.5 -52.5h-53z" />
    <glyph glyph-name="K" unicode="K" horiz-adv-x="496" 
d="M412 0l-169 312v80l151 311h93l-166 -346l190 -357h-99zM142 703v-312h71v-79h-71v-312h-88v703h88z" />
    <glyph glyph-name="L" unicode="L" horiz-adv-x="388" 
d="M172 0v79h226v-79h-226zM142 703v-703h-88v703h88z" />
    <glyph glyph-name="M" unicode="M" horiz-adv-x="616" 
d="M478 473l84 183v-656h-84v473zM54 656l84 -183v-473h-84v656zM299 175l-239 528h86l165 -368l163 368h82l-237 -528h-20z" />
    <glyph glyph-name="N" unicode="N" horiz-adv-x="549" 
d="M494 97l-84 155v451h84v-606zM136 703l358 -660v-43h-67l-289 528v-528h-84v703h82z" />
    <glyph glyph-name="O" unicode="O" horiz-adv-x="521" 
d="M246 713v-81q-50 -1 -84 -36t-34 -84v-321q0 -49 34 -84t84 -36v-81h-7q-82 0 -140.5 58.5t-58.5 140.5v325q0 82 58.5 140.5t140.5 58.5h7zM276 632v81h6q82 0 140.5 -58.5t58.5 -140.5v-325q0 -83 -58.5 -141t-140.5 -58h-6v81q50 1 83.5 36t33.5 84v321q0 49 -33.5 84
t-83.5 36z" />
    <glyph glyph-name="P" unicode="P" horiz-adv-x="468" 
d="M142 703v-703h-88v703h88zM172 266v79h95q46 0 79 33t33 80v53q0 47 -33 80t-79 33h-95v79h99q81 0 138 -57t57 -138v-47q0 -81 -57 -138t-138 -57h-99z" />
    <glyph glyph-name="Q" unicode="Q" horiz-adv-x="521" 
d="M217 -142v114h87v-114h-87zM246 713v-81q-50 -1 -84 -36t-34 -84v-321q0 -49 34 -84t84 -36v-81h-7q-82 0 -140.5 58.5t-58.5 140.5v325q0 82 58.5 140.5t140.5 58.5h7zM276 632v81h6q82 0 140.5 -58.5t58.5 -140.5v-325q0 -83 -58.5 -141t-140.5 -58h-6v81q50 1 83.5 36
t33.5 84v321q0 49 -33.5 84t-83.5 36z" />
    <glyph glyph-name="R" unicode="R" horiz-adv-x="510" 
d="M262 295l-30 63h37q46 0 78 32.5t32 78.5v44q0 46 -32 78.5t-78 32.5h-97v79h103q79 0 136 -56.5t57 -136.5v-37q0 -55 -30 -102.5t-79 -71.5l146 -299h-99zM142 703v-345h60l37 -78h-97v-280h-88v703h88z" />
    <glyph glyph-name="S" unicode="S" horiz-adv-x="502" 
d="M268 634v79h10q78 0 129.5 -55t51.5 -135v-47h-85v46q0 46 -29 78.5t-77 33.5zM236 69v-79h-16q-79 0 -133 55t-54 134v46h86v-45q0 -44 32 -77t85 -34zM266 -10v79q55 1 85 33t30 82v19q0 50 -29.5 80.5t-93.5 30.5h-19q-91 0 -145 55t-54 131v33q0 76 54.5 128
t132.5 52h11v-79q-49 -1 -79.5 -30.5t-30.5 -73.5v-21q0 -50 31 -83t92 -33h21q97 0 147 -51t50 -134v-28q0 -80 -52.5 -135t-133.5 -55h-17z" />
    <glyph glyph-name="T" unicode="T" horiz-adv-x="417" 
d="M282 624v79h145v-79h-145zM252 703v-703h-87v624h-175v79h262z" />
    <glyph glyph-name="U" unicode="U" horiz-adv-x="534" 
d="M252 72v-82h-7q-81 0 -138.5 57t-57.5 138v518h88v-515q0 -48 32.5 -81.5t82.5 -34.5zM282 -10v82q50 1 82.5 34.5t32.5 81.5v515h88v-518q0 -81 -57.5 -138t-137.5 -57h-8z" />
    <glyph glyph-name="V" unicode="V" horiz-adv-x="474" 
d="M87 703l184 -703h-87l-185 703h88zM295 20l-41 159l136 524h85z" />
    <glyph glyph-name="W" unicode="W" horiz-adv-x="745" 
d="M421 703l134 -703h-78l-105 532l-108 -519l-34 187l100 503h91zM112 703l126 -703h-82l-130 703h86zM587 3l-40 206l91 494h84z" />
    <glyph glyph-name="X" unicode="X" horiz-adv-x="457" 
d="M214 454v-205l-125 -249h-90l176 351l-175 352h89zM242 249v205l126 249h89l-176 -351l177 -352h-91z" />
    <glyph glyph-name="Y" unicode="Y" horiz-adv-x="450" 
d="M283 315l-44 95l130 293h86zM82 703l187 -427v-276h-88v283l-186 420h87z" />
    <glyph glyph-name="Z" unicode="Z" horiz-adv-x="419" 
d="M101 0l41 79h265v-79h-306zM313 703l-41 -79h-247v79h288zM11 68l331 635h65v-56l-338 -647h-58v68z" />
    <glyph glyph-name="bracketleft" unicode="[" horiz-adv-x="251" 
d="M142 369h-88v450h192v-79h-104v-371zM54 339h88v-376h104v-79h-192v455z" />
    <glyph glyph-name="backslash" unicode="\" horiz-adv-x="283" 
d="M193 0l-193 703h90l193 -703h-90z" />
    <glyph glyph-name="bracketright" unicode="]" horiz-adv-x="251" 
d="M197 370h-88v370h-104v79h192v-449zM109 340h88v-456h-192v79h104v377z" />
    <glyph glyph-name="asciicircum" unicode="^" horiz-adv-x="293" 
d="M217 421l-106 283h71l113 -283h-78zM97 668l36 -98l-58 -149h-77z" />
    <glyph glyph-name="underscore" unicode="_" horiz-adv-x="309" 
d="M1 -59h308v-85h-308v85z" />
    <glyph glyph-name="grave" unicode="`" horiz-adv-x="302" 
d="M206 542l-160 93l34 57l159 -95z" />
    <glyph glyph-name="a" unicode="a" horiz-adv-x="466" 
d="M299 94v-15q0 -30 16 -53q-37 -31 -110 -31h-52q-51 0 -90 33.5t-39 94.5q0 59 36 96t97 37h168v91q0 37 -21.5 63.5t-58.5 27.5v77h15q66 0 109 -43.5t43 -106.5v-243q0 -28 11 -39.5t36 -11.5h12v-72h-46q-50 0 -75 26.5t-25 69.5v92h-138q-32 0 -53 -15.5t-21 -44.5
q0 -65 70 -65h39q19 0 42 8.5t35 23.5zM215 515v-77q-42 -1 -64 -28t-22 -64v-23h-83v37q0 64 45.5 109.5t113.5 45.5h10z" />
    <glyph glyph-name="b" unicode="b" horiz-adv-x="485" 
d="M54 0v703h88v-703h-88zM172 5v82q21 -18 57 -18h41q43 0 66.5 31.5t23.5 75.5v168q0 40 -20.5 67t-57.5 27h-39q-41 0 -71 -33v89q31 21 82 21h53q60 0 100 -42t40 -101v-212q0 -70 -46.5 -118.5t-114.5 -48.5h-50q-36 0 -64 12z" />
    <glyph glyph-name="c" unicode="c" horiz-adv-x="469" 
d="M252 439v76h16q70 0 118 -50t48 -121v-41h-88v30q0 45 -23 75t-71 31zM222 515v-76q-49 -1 -73 -31.5t-24 -74.5v-159q0 -44 24.5 -74t72.5 -31v-76h-17q-70 0 -118.5 50t-48.5 121v180q0 71 48.5 121t118.5 50h17zM252 -7v76q48 1 71 30.5t23 74.5v30h88v-40
q0 -71 -48 -121t-118 -50h-16z" />
    <glyph glyph-name="d" unicode="d" horiz-adv-x="485" 
d="M430 703v-703h-87v703h87zM313 503v-80q-25 15 -57 15h-41q-43 0 -66.5 -31t-23.5 -76v-168q0 -40 20 -67t58 -27h39q41 0 71 34v-89q-32 -21 -82 -21h-52q-61 0 -101 42t-40 101v208q0 71 47 121t118 50h48q35 0 62 -12z" />
    <glyph glyph-name="e" unicode="e" horiz-adv-x="460" 
d="M219 64v-71h-14q-71 0 -119 49t-48 122v182q0 70 49.5 119.5t120.5 49.5h12v-71q-51 -1 -75 -29.5t-24 -72.5v-8h223v8q0 44 -22.5 72.5t-71.5 29.5v71h11q70 0 118 -49t48 -120v-78h-306v-99q0 -44 24.5 -74t73.5 -31zM249 -7v71q47 1 70.5 31.5t23.5 75.5v24h84v-29
q0 -74 -46.5 -123.5t-116.5 -49.5h-15z" />
    <glyph glyph-name="f" unicode="f" horiz-adv-x="248" 
d="M9 432v76h67v55q0 45 23.5 81.5t62.5 53.5v-190h106v-76h-106v-432h-86v432h-67zM192 628v75h110v-75h-110z" />
    <glyph glyph-name="g" unicode="g" horiz-adv-x="466" 
d="M456 -41h-87q-14 43 -66 43h-106q-72 0 -105.5 35t-33.5 77v17q0 50 19 77q-40 43 -40 106v53q0 62 42 105t108 43h22v-69q-43 -1 -65.5 -25t-22.5 -62v-37q0 -40 22 -64.5t66 -25.5v-70h-24q-26 0 -47 7q-4 -15 -4 -31v-9q0 -51 56 -51h133q54 0 92 -34t41 -80v-5z
M371 -66h86q-3 -139 -171 -139h-125q-70 0 -109 37t-39 82v32q0 62 41 91q10 -14 29 -28t38 -18q-23 -18 -23 -50v-10q0 -25 19 -43.5t55 -18.5h107q90 0 92 65zM239 445v70h23q43 0 80 -24q27 16 58 16h63v-73h-51q-4 0 -18 -2q16 -32 16 -65v-52q0 -63 -41 -108t-108 -45
h-22v70q44 1 65 26.5t21 64.5v36q0 37 -22 61t-64 25z" />
    <glyph glyph-name="h" unicode="h" horiz-adv-x="490" 
d="M54 0v703h88v-703h-88zM172 400v86q35 29 92 29h40q55 0 95.5 -39t40.5 -101v-375h-89v349q0 36 -18.5 61.5t-52.5 25.5h-36q-42 0 -72 -36z" />
    <glyph glyph-name="i" unicode="i" 
d="M54 0v508h88v-508h-88zM54 569v84h88v-84h-88z" />
    <glyph glyph-name="j" unicode="j" horiz-adv-x="200" 
d="M145 -17h-88v525h88v-525zM57 -42h88q2 -68 -35.5 -111t-98.5 -43h-72v75h49q65 0 69 79zM57 569v84h88v-84h-88z" />
    <glyph glyph-name="k" unicode="k" horiz-adv-x="434" 
d="M54 0v703h88v-410h52v-75h-52v-218h-88zM439 0h-95l-123 220v72l109 216h93l-126 -250z" />
    <glyph glyph-name="l" unicode="l" 
d="M54 0v703h88v-703h-88z" />
    <glyph glyph-name="m" unicode="m" horiz-adv-x="753" 
d="M170 401v85q37 29 89 29h35q53 0 90.5 -38t37.5 -98v-379h-87v349q0 36 -18.5 60.5t-52.5 24.5h-22q-46 0 -72 -33zM447 398v94q38 23 91 23h36q54 0 91.5 -39.5t37.5 -98.5v-377h-87v348q0 36 -18.5 61t-52.5 25h-22q-47 0 -76 -36zM54 0v508h86v-508h-86z" />
    <glyph glyph-name="n" unicode="n" horiz-adv-x="490" 
d="M54 0v508h88v-508h-88zM172 400v86q35 29 92 29h40q55 0 95.5 -39t40.5 -101v-375h-89v349q0 36 -18.5 61.5t-52.5 25.5h-36q-42 0 -72 -36z" />
    <glyph glyph-name="o" unicode="o" horiz-adv-x="477" 
d="M224 515v-77q-49 -1 -74 -31t-25 -74v-159q0 -43 25 -73.5t74 -31.5v-76h-19q-70 0 -118.5 50t-48.5 121v180q0 71 48.5 121t118.5 50h19zM254 438v77h18q70 0 118.5 -50t48.5 -121v-180q0 -71 -48.5 -121t-118.5 -50h-18v76q49 1 73.5 31.5t24.5 73.5v159q0 44 -24.5 74
t-73.5 31z" />
    <glyph glyph-name="p" unicode="p" horiz-adv-x="485" 
d="M172 5v80q23 -16 58 -16h40q43 0 66.5 31.5t23.5 75.5v168q0 40 -20 67t-58 27h-39q-41 0 -71 -32v88q32 21 82 21h53q60 0 100 -42t40 -101v-208q0 -71 -47 -121t-118 -50h-47q-35 0 -63 12zM54 -196v704h88v-704h-88z" />
    <glyph glyph-name="q" unicode="q" horiz-adv-x="486" 
d="M431 508v-704h-87v704h87zM314 503v-81q-22 16 -58 16h-41q-43 0 -66.5 -31.5t-23.5 -75.5v-168q0 -39 20.5 -66.5t57.5 -27.5h40q42 0 71 34v-88q-32 -22 -82 -22h-53q-61 0 -101 42t-40 101v211q0 70 46.5 119t115.5 49h49q38 0 65 -12z" />
    <glyph glyph-name="r" unicode="r" horiz-adv-x="312" 
d="M172 388v91q36 29 90 29h41v-79h-34q-59 0 -97 -41zM54 0v508h88v-508h-88z" />
    <glyph glyph-name="s" unicode="s" horiz-adv-x="452" 
d="M242 442v73h13q70 0 114 -40.5t44 -97.5v-35h-86v26q0 32 -21.5 52.5t-63.5 21.5zM212 515v-73q-42 -1 -62.5 -19t-20.5 -48v-6q0 -74 99 -74h19q81 0 128.5 -38.5t47.5 -99.5v-25q0 -59 -44.5 -99t-111.5 -40h-25v73q92 3 92 68v7q0 34 -24 54.5t-75 20.5h-18
q-82 0 -129 37.5t-47 101.5v18q0 60 43.5 101t115.5 41h12zM212 66v-73h-23q-70 0 -114 39.5t-44 95.5v42h86v-28q0 -33 23 -54t72 -22z" />
    <glyph glyph-name="t" unicode="t" horiz-adv-x="404" 
d="M217 68v-75h-14q-55 0 -93 38.5t-38 88.5v312h-63v76h63v87h86v-451q0 -30 15.5 -53t43.5 -23zM247 -7v75q64 4 64 78v31h81v-50q0 -55 -38.5 -94.5t-94.5 -39.5h-12zM188 432v76h199v-76h-199z" />
    <glyph glyph-name="u" unicode="u" horiz-adv-x="489" 
d="M434 508v-508h-87v508h87zM317 108v-87q-37 -28 -93 -28h-40q-56 0 -95 41t-39 95v379h89v-349q0 -37 18 -62t52 -25h36q38 0 72 36z" />
    <glyph glyph-name="v" unicode="v" horiz-adv-x="418" 
d="M264 0l-40 138l106 370h88l-147 -508h-7zM88 508l146 -508h-88l-146 508h88z" />
    <glyph glyph-name="w" unicode="w" horiz-adv-x="654" 
d="M371 508l129 -508h-79l-94 360l-86 -351l-36 163l79 336h87zM104 508l113 -508h-84l-113 508h84zM527 1l-44 169l74 338h84z" />
    <glyph glyph-name="x" unicode="x" horiz-adv-x="399" 
d="M184 352v-191l-91 -161h-97l151 257l-147 251h96zM214 162v189l89 157h96l-147 -252l150 -256h-96z" />
    <glyph glyph-name="y" unicode="y" horiz-adv-x="418" 
d="M17 -196v75h69q36 0 54 18.5t31 57.5l159 553h88l-161 -556q-26 -89 -65.5 -118.5t-103.5 -29.5h-71zM195 136l-39 -136h-9l-147 508h88z" />
    <glyph glyph-name="z" unicode="z" horiz-adv-x="401" 
d="M113 0l54 79h215v-79h-269zM290 508l-53 -79h-212v79h265zM21 62l300 446h59v-56l-301 -452h-58v62z" />
    <glyph glyph-name="braceleft" unicode="{" horiz-adv-x="263" 
d="M70 174h88v-148q0 -25 18.5 -44.5t43.5 -19.5h38v-79h-65q-52 0 -87.5 35t-35.5 85v171zM158 204h-88v61q0 19 -11 33t-28 14h-30v79h30q17 0 28 14t11 33v262q0 50 35.5 84.5t87.5 34.5h65v-79h-38q-25 0 -43.5 -19t-18.5 -45v-261q0 -45 -35 -64q35 -21 35 -62v-85z
" />
    <glyph glyph-name="bar" unicode="|" 
d="M54 -116v935h88v-935h-88z" />
    <glyph glyph-name="braceright" unicode="}" horiz-adv-x="263" 
d="M105 174h89v-171q0 -51 -35.5 -85.5t-88.5 -34.5h-65v79h38q26 0 44 19.5t18 44.5v148zM194 204h-89v85q0 41 35 62q-35 19 -35 64v261q0 26 -18 45t-44 19h-38v79h65q53 0 88.5 -34.5t35.5 -84.5v-262q0 -19 10.5 -33t27.5 -14h30v-79h-30q-17 0 -27.5 -14t-10.5 -33
v-61z" />
    <glyph glyph-name="asciitilde" unicode="~" horiz-adv-x="316" 
d="M4 345l25 31q31 39 73 39q23 0 50 -17l34 -21q17 -10 26 -10q15 0 24 12l22 27l53 -43l-27 -35q-28 -35 -64 -35q-29 0 -56 16l-31 20q-15 10 -27 10q-18 0 -26 -12l-21 -26z" />
    <glyph glyph-name="nonbreakingspace" unicode="&#xa0;" horiz-adv-x="194" 
 />
    <glyph glyph-name="exclamdown" unicode="&#xa1;" 
d="M142 316v-511h-88v511h88zM142 508v-101h-88v101h88z" />
    <glyph glyph-name="cent" unicode="&#xa2;" horiz-adv-x="469" 
d="M271 -82h-68v75q-70 1 -117.5 50.5t-47.5 120.5v180q0 70 48 120t117 51v75h68v-75q69 -1 116 -51t47 -120v-41h-86v30q0 44 -23.5 74t-72.5 31v70h-30v-70q-49 -1 -73 -31t-24 -74v-159q0 -43 24.5 -73t72.5 -31v-70h30v70q49 1 72.5 30.5t23.5 73.5v30h86v-40
q0 -70 -47 -120t-116 -51v-75z" />
    <glyph glyph-name="sterling" unicode="&#xa3;" horiz-adv-x="458" 
d="M28 320v64h371v-64h-213v-115q0 -72 -59 -124v-81h-111v78q81 52 81 124v118h-69zM186 414h-89v87q0 85 60 143.5t149 58.5h119v-81h-113q-52 0 -89 -37t-37 -90v-81zM157 0v81h289v-81h-289z" />
    <glyph glyph-name="currency" unicode="&#xa4;" horiz-adv-x="447" 
d="M239 113v75q42 1 63.5 28t21.5 66v65q0 39 -21.5 66t-63.5 28v75h9q32 0 62 -14l58 81l60 -38l-62 -86q35 -43 35 -99v-91q0 -55 -34 -99l61 -85l-60 -38l-58 79q-31 -13 -62 -13h-9zM209 188v-75h-8q-34 0 -64 14l-58 -80l-60 38l62 86q-33 42 -33 98v91q0 56 33 98
l-62 87l60 38l58 -81q31 14 64 14h8v-75q-41 -1 -62.5 -27.5t-21.5 -66.5v-65q0 -39 21.5 -66t62.5 -28z" />
    <glyph glyph-name="yen" unicode="&#xa5;" horiz-adv-x="464" 
d="M90 703l182 -416h126v-64h-124v-68h124v-64h-124v-91h-88v91h-124v64h124v68h-124v64h122l-182 416h88zM290 319l-43 94l130 290h85z" />
    <glyph glyph-name="brokenbar" unicode="&#xa6;" 
d="M54 427v392h88v-392h-88zM54 -116v392h88v-392h-88z" />
    <glyph glyph-name="section" unicode="&#xa7;" horiz-adv-x="388" 
d="M211 709v68h6q62 0 104.5 -44t42.5 -106v-41h-77v40q0 33 -21.5 57.5t-54.5 25.5zM173 -2v-69h-8q-62 0 -104.5 43t-42.5 107v41h77v-41q0 -32 22 -56t56 -25zM203 -71v68q41 -1 64 23t23 59v23q0 37 -24.5 60t-70.5 23h-16q-72 1 -117.5 45t-45.5 111v31q0 76 69 116
q-64 36 -64 114v30q0 61 42.5 103t103.5 42h14v-68q-35 -1 -57 -23t-22 -55v-22q0 -35 23.5 -60t64.5 -25h18q70 0 116.5 -43.5t46.5 -109.5v-30q0 -38 -17.5 -70t-48.5 -49q67 -34 67 -114v-29q0 -63 -41.5 -106.5t-104.5 -43.5h-23zM181 255h21q41 0 65 23.5t24 53.5v37
q0 33 -25.5 57t-65.5 24h-21q-37 0 -61.5 -23.5t-24.5 -55.5v-34q0 -31 25.5 -56.5t62.5 -25.5z" />
    <glyph glyph-name="dieresis" unicode="&#xa8;" horiz-adv-x="302" 
d="M191 571v82h70v-82h-70zM43 571v82h71v-82h-71z" />
    <glyph glyph-name="copyright" unicode="&#xa9;" horiz-adv-x="690" 
d="M361 -10v61h23q85 0 146 64.5t61 150.5v177q0 86 -61 148t-146 62h-23v61h26q112 0 191.5 -79.5t79.5 -190.5v-179q0 -112 -80 -193.5t-191 -81.5h-26zM331 51v-61h-28q-112 0 -191.5 79.5t-79.5 190.5v184q0 111 79.5 190.5t191.5 79.5h28v-61h-24q-86 0 -147 -62
t-61 -148v-182q0 -86 61 -148t147 -62h24zM361 497v64h6q53 0 91 -37.5t38 -90.5v-48h-70v45q0 28 -19 47.5t-46 19.5zM361 143v64q27 0 46 19.5t19 47.5v45h70v-47q0 -53 -38 -91t-91 -38h-6zM331 207v-64h-7q-53 0 -90.5 38t-37.5 91v161q0 53 38 90.5t90 37.5h7v-64
q-27 0 -46.5 -19.5t-19.5 -47.5v-156q0 -28 19 -47.5t47 -19.5z" />
    <glyph glyph-name="ordfeminine" unicode="&#xaa;" horiz-adv-x="321" 
d="M186 403q0 -33 12 -52q-28 -19 -71 -19h-28q-41 0 -70 25t-29 72q0 45 25.5 72.5t70.5 27.5h114v57q0 20 -13 38t-31 20v65h9q46 -1 77.5 -32t31.5 -77v-169q0 -32 27 -32h10v-63h-35q-36 0 -56 18.5t-20 48.5v71h-87q-47 0 -47 -41q0 -21 13.5 -32.5t33.5 -11.5h17
q28 0 46 14zM8 213v68h308v-68h-308zM136 709v-65q-22 -2 -35.5 -19t-13.5 -38v-19h-71v33q0 46 34 76.5t82 31.5h4z" />
    <glyph glyph-name="guillemotleft" unicode="&#xab;" horiz-adv-x="335" 
d="M229 122l-80 129v8l80 129h89l-83 -133l83 -133h-89zM93 122l-80 129v8l80 129h89l-83 -133l83 -133h-89z" />
    <glyph glyph-name="logicalnot" unicode="&#xac;" horiz-adv-x="350" 
d="M15 315v75h320v-197h-77v122h-243z" />
    <glyph glyph-name="registered" unicode="&#xae;" horiz-adv-x="545" 
d="M287 168v53h14q67 0 116 52t49 120v102q0 68 -49 117.5t-116 49.5h-14v52h14q92 0 157.5 -65t65.5 -157v-97q0 -93 -65.5 -160t-157.5 -67h-14zM257 168h-14q-92 0 -157 65.5t-65 157.5v101q0 92 65.5 157t156.5 65h14v-52h-13q-68 0 -117 -49.5t-49 -117.5v-106
q0 -68 49 -118t117 -50h13v-53zM256 399v52h36q13 0 22.5 9.5t9.5 22.5v28q0 13 -9.5 22.5t-22.5 9.5h-36v52h42q36 0 61.5 -25t25.5 -61v-23q0 -49 -42 -74l58 -124h-65l-49 111h-31zM228 595v-307h-57v307h57z" />
    <glyph glyph-name="macron" unicode="&#xaf;" horiz-adv-x="302" 
d="M23 578v68h255v-68h-255z" />
    <glyph glyph-name="degree" unicode="&#xb0;" horiz-adv-x="224" 
d="M97 499q-39 1 -66 29.5t-27 67.5v21q0 39 27 67.5t66 29.5v-61q-14 -2 -23 -13.5t-9 -26.5v-14q0 -14 9 -25.5t23 -14.5v-60zM127 499v60q14 3 23 14.5t9 25.5v14q0 15 -9 26.5t-23 13.5v61q40 -2 66.5 -30t26.5 -67v-21q0 -39 -26.5 -67.5t-66.5 -29.5z" />
    <glyph glyph-name="plusminus" unicode="&#xb1;" horiz-adv-x="350" 
d="M15 371v74h121v122h76v-122h123v-74h-123v-123h-76v123h-121zM15 145v72h320v-72h-320z" />
    <glyph glyph-name="twosuperior" unicode="&#xb2;" horiz-adv-x="301" 
d="M30 386v52l124 99q49 40 49 67v10q0 39 -42 39h-22q-20 0 -33.5 -12t-13.5 -31v-36h-61v37q0 41 29 69.5t72 28.5h44q41 0 69 -27t28 -65v-11q0 -48 -64 -99l-78 -64h149v-57h-250z" />
    <glyph glyph-name="threesuperior" unicode="&#xb3;" horiz-adv-x="301" 
d="M30 595v23q0 39 27 65t71 26h44q43 0 70.5 -25t27.5 -61v-15q0 -46 -44 -62q49 -18 49 -65v-13q0 -37 -27.5 -62.5t-72.5 -25.5h-48q-46 0 -73 25.5t-27 62.5v26h64v-22q0 -17 13 -27.5t36 -10.5h21q20 0 32.5 10.5t12.5 27.5v10q0 17 -14.5 27.5t-37.5 10.5h-52v50h50
q22 0 36.5 10.5t14.5 29.5v10q0 16 -12.5 26t-30.5 10h-20q-21 0 -33.5 -12t-12.5 -32v-17h-64z" />
    <glyph glyph-name="acute" unicode="&#xb4;" horiz-adv-x="302" 
d="M101 541l-33 55l158 95l35 -57z" />
    <glyph glyph-name="mu" unicode="&#xb5;" horiz-adv-x="465" 
d="M322 122v386h82v-370q0 -57 49 -57h17v-81h-41q-52 0 -79.5 32.5t-27.5 89.5zM293 107q1 -57 27 -85q-38 -26 -83 -26h-35q-20 0 -43.5 8t-32.5 20v-167h-78v651h83v-353q0 -33 17 -55t49 -22h30q39 0 66 29z" />
    <glyph glyph-name="mu" unicode="&#x3bc;" horiz-adv-x="465" 
d="M322 122v386h82v-370q0 -57 49 -57h17v-81h-41q-52 0 -79.5 32.5t-27.5 89.5zM293 107q1 -57 27 -85q-38 -26 -83 -26h-35q-20 0 -43.5 8t-32.5 20v-167h-78v651h83v-353q0 -33 17 -55t49 -22h30q39 0 66 29z" />
    <glyph glyph-name="paragraph" unicode="&#xb6;" horiz-adv-x="409" 
d="M284 0v703h123v-76h-57v-627h-66zM236 703v-703h-66v369h-30q-59 0 -99.5 40.5t-40.5 99.5v55q0 58 40.5 98.5t99.5 40.5h96z" />
    <glyph glyph-name="periodcentered" unicode="&#xb7;" horiz-adv-x="159" 
d="M36 204v101h87v-101h-87z" />
    <glyph glyph-name="cedilla" unicode="&#xb8;" horiz-adv-x="302" 
d="M124 0h59v-35q25 -4 42.5 -24t17.5 -47v-16q0 -34 -23 -56.5t-56 -22.5h-17q-33 0 -55.5 22.5t-22.5 56.5v17l55 -1v-14q0 -10 8 -18t19 -8h9q10 0 18 8t8 18v10q0 10 -7 17.5t-17 8.5h-38v84z" />
    <glyph glyph-name="onesuperior" unicode="&#xb9;" horiz-adv-x="301" 
d="M36 442h98v194l-105 -23v58l126 32h47v-261h80v-56h-246v56z" />
    <glyph glyph-name="ordmasculine" unicode="&#xba;" horiz-adv-x="315" 
d="M143 709v-65q-23 -1 -37 -17t-14 -38v-138q0 -22 14.5 -38t36.5 -18v-65h-7q-48 0 -81.5 34t-33.5 82v148q0 48 34 81.5t81 33.5h7zM173 644v65h7q47 0 81 -33.5t34 -81.5v-148q0 -48 -33.5 -82t-81.5 -34h-7v65q21 1 35.5 17t14.5 39v138q0 22 -14.5 38t-35.5 17z
M16 213v68h284v-68h-284z" />
    <glyph glyph-name="guillemotright" unicode="&#xbb;" horiz-adv-x="335" 
d="M106 388l80 -129v-8l-80 -129h-89l83 133l-83 133h89zM242 388l80 -129v-8l-80 -129h-89l83 133l-83 133h89z" />
    <glyph glyph-name="onequarter" unicode="&#xbc;" horiz-adv-x="619" 
d="M75 0l385 703h83l-385 -703h-83zM605 67h-49v-67h-66v67h-158v48l137 202h87v-193h49v-57zM36 442h98v194l-105 -23v58l126 32h47v-261h80v-56h-246v56zM491 253l-87 -129h87v129z" />
    <glyph glyph-name="onehalf" unicode="&#xbd;" horiz-adv-x="619" 
d="M75 0l385 703h83l-385 -703h-83zM347 0v52l124 99q49 40 49 67v10q0 39 -42 39h-22q-20 0 -33.5 -12t-13.5 -31v-36h-61v37q0 41 29 69.5t72 28.5h44q41 0 69 -27t28 -65v-11q0 -48 -64 -99l-78 -64h149v-57h-250zM36 442h98v194l-105 -23v58l126 32h47v-261h80v-56h-246
v56z" />
    <glyph glyph-name="threequarters" unicode="&#xbe;" horiz-adv-x="619" 
d="M30 595v23q0 39 27 65t71 26h44q43 0 70.5 -25t27.5 -61v-15q0 -46 -44 -62q49 -18 49 -65v-13q0 -37 -27.5 -62.5t-72.5 -25.5h-48q-46 0 -73 25.5t-27 62.5v26h64v-22q0 -17 13 -27.5t36 -10.5h21q20 0 32.5 10.5t12.5 27.5v10q0 17 -14.5 27.5t-37.5 10.5h-52v50h50
q22 0 36.5 10.5t14.5 29.5v10q0 16 -12.5 26t-30.5 10h-20q-21 0 -33.5 -12t-12.5 -32v-17h-64zM75 0l385 703h83l-385 -703h-83zM605 67h-49v-67h-66v67h-158v48l137 202h87v-193h49v-57zM491 253l-87 -129h87v129z" />
    <glyph glyph-name="questiondown" unicode="&#xbf;" horiz-adv-x="301" 
d="M199 -195v79h79v-79h-79zM169 -110v-85q-68 7 -111.5 54.5t-43.5 112.5v22q0 77 58 144l52 58q38 43 38 84v36h87v-44q0 -56 -52 -113l-47 -52q-48 -51 -48 -105v-17q0 -32 18.5 -58t48.5 -37zM249 508v-101h-87v101h87z" />
    <glyph glyph-name="Agrave" unicode="&#xc0;" horiz-adv-x="486" 
d="M308 265l14 -78h-192l-50 -187h-85l194 693l38 -146l-76 -282h157zM401 0l-187 703h82l194 -703h-89zM298 735l-160 93l33 58l159 -95z" />
    <glyph glyph-name="Aacute" unicode="&#xc1;" horiz-adv-x="486" 
d="M308 265l14 -78h-192l-50 -187h-85l194 693l38 -146l-76 -282h157zM401 0l-187 703h82l194 -703h-89zM214 734l-32 56l158 95l34 -58z" />
    <glyph glyph-name="Acircumflex" unicode="&#xc2;" horiz-adv-x="486" 
d="M308 265l14 -78h-192l-50 -187h-85l194 693l38 -146l-76 -282h157zM401 0l-187 703h82l194 -703h-89zM131 746l-31 52l143 87l143 -87l-31 -52l-112 68z" />
    <glyph glyph-name="Atilde" unicode="&#xc3;" horiz-adv-x="486" 
d="M308 265l14 -78h-192l-50 -187h-85l194 693l38 -146l-76 -282h157zM401 0l-187 703h82l194 -703h-89zM93 801l24 30q27 37 68 37q31 0 56 -17l29 -20q15 -11 27 -11q16 0 26 14l20 26l49 -39l-25 -33q-25 -35 -65 -35q-34 0 -55 15l-30 20q-18 12 -28 12q-16 0 -24 -10
l-22 -29z" />
    <glyph glyph-name="Adieresis" unicode="&#xc4;" horiz-adv-x="486" 
d="M308 265l14 -78h-192l-50 -187h-85l194 693l38 -146l-76 -282h157zM401 0l-187 703h82l194 -703h-89zM135 763v82h71v-82h-71zM283 763v82h70v-82h-70z" />
    <glyph glyph-name="Aring" unicode="&#xc5;" horiz-adv-x="486" 
d="M308 265l14 -78h-192l-50 -187h-85l194 693l38 -146l-76 -282h157zM401 0l-187 703h82l194 -703h-89zM235 730q-31 0 -53.5 22t-22.5 53v15q0 31 22.5 52.5t53.5 21.5h16q31 0 53 -21.5t22 -52.5v-15q0 -31 -22 -53t-53 -22h-16zM238 781h10q10 0 18 8t8 18v10
q0 10 -8 18t-18 8h-10q-10 0 -18 -7.5t-8 -18.5v-10q0 -10 8 -18t18 -8z" />
    <glyph glyph-name="AE" unicode="&#xc6;" horiz-adv-x="669" 
d="M324 703l-155 -433h99v-76h-123l-72 -194h-85l256 703h80zM412 0v79h225v-79h-225zM412 624v79h225v-79h-225zM382 703v-312h243v-79h-243v-312h-84v553l55 150h29z" />
    <glyph glyph-name="Ccedilla" unicode="&#xc7;" horiz-adv-x="519" 
d="M394 266h87v-77q0 -80 -55 -137t-134 -62v-25q25 -4 42.5 -24t17.5 -47v-16q0 -34 -23 -56.5t-56 -22.5h-17q-33 0 -55.5 22.5t-22.5 56.5v17l55 -1v-14q0 -10 8 -18t19 -8h9q11 0 18.5 8t7.5 18v10q0 10 -7 17.5t-17 8.5h-38v74q-80 3 -136.5 60.5t-56.5 138.5v325
q0 82 58.5 140.5t140.5 58.5h7v-81q-50 -1 -84 -36t-34 -84v-321q0 -49 34 -84t84 -36v-71h30v71q50 1 84 36t34 84v75zM481 437h-87v75q0 49 -34 84t-84 36v81h6q82 0 140.5 -58.5t58.5 -140.5v-77z" />
    <glyph glyph-name="Egrave" unicode="&#xc8;" horiz-adv-x="435" 
d="M281 735l-160 93l33 58l159 -95zM172 0v79h231v-79h-231zM172 624v79h231v-79h-231zM142 703v-312h249v-79h-249v-312h-88v703h88z" />
    <glyph glyph-name="Eacute" unicode="&#xc9;" horiz-adv-x="435" 
d="M172 0v79h231v-79h-231zM172 624v79h231v-79h-231zM142 703v-312h249v-79h-249v-312h-88v703h88zM198 734l-32 56l158 95l34 -58z" />
    <glyph glyph-name="Ecircumflex" unicode="&#xca;" horiz-adv-x="435" 
d="M114 746l-31 52l143 87l143 -87l-31 -52l-112 68zM172 0v79h231v-79h-231zM172 624v79h231v-79h-231zM142 703v-312h249v-79h-249v-312h-88v703h88z" />
    <glyph glyph-name="Edieresis" unicode="&#xcb;" horiz-adv-x="435" 
d="M172 0v79h231v-79h-231zM172 624v79h231v-79h-231zM142 703v-312h249v-79h-249v-312h-88v703h88zM266 763v82h70v-82h-70zM118 763v82h71v-82h-71z" />
    <glyph glyph-name="Igrave" unicode="&#xcc;" 
d="M54 0v703h88v-703h-88zM154 735l-160 93l33 58l159 -95z" />
    <glyph glyph-name="Iacute" unicode="&#xcd;" 
d="M54 0v703h88v-703h-88zM71 734l-32 56l158 95l34 -58z" />
    <glyph glyph-name="Icircumflex" unicode="&#xce;" 
d="M54 0v703h88v-703h-88zM-13 746l-31 52l143 87l143 -87l-31 -52l-112 68z" />
    <glyph glyph-name="Idieresis" unicode="&#xcf;" 
d="M54 0v703h88v-703h-88zM139 763v82h70v-82h-70zM-9 763v82h71v-82h-71z" />
    <glyph glyph-name="Eth" unicode="&#xd0;" horiz-adv-x="550" 
d="M188 0v79h113q49 0 84 36t35 86v301q0 49 -35.5 85.5t-83.5 36.5h-113v79h121q82 0 140.5 -58.5t58.5 -140.5v-305q0 -82 -58.5 -140.5t-140.5 -58.5h-121zM158 703v-315h90v-72h-90v-316h-88v316h-51v72h51v315h88z" />
    <glyph glyph-name="Ntilde" unicode="&#xd1;" horiz-adv-x="549" 
d="M126 801l24 30q27 37 68 37q30 0 56 -17l29 -20q15 -11 27 -11q16 0 26 14l20 26l49 -39l-25 -33q-25 -35 -65 -35q-34 0 -55 15l-30 20q-18 12 -28 12q-16 0 -24 -10l-22 -29zM494 97l-84 155v451h84v-606zM136 703l358 -660v-43h-67l-289 528v-528h-84v703h82z" />
    <glyph glyph-name="Ograve" unicode="&#xd2;" horiz-adv-x="521" 
d="M316 735l-160 93l33 58l159 -95zM246 713v-81q-50 -1 -84 -36t-34 -84v-321q0 -49 34 -84t84 -36v-81h-7q-82 0 -140.5 58.5t-58.5 140.5v325q0 82 58.5 140.5t140.5 58.5h7zM276 632v81h6q82 0 140.5 -58.5t58.5 -140.5v-325q0 -83 -58.5 -141t-140.5 -58h-6v81
q50 1 83.5 36t33.5 84v321q0 49 -33.5 84t-83.5 36z" />
    <glyph glyph-name="Oacute" unicode="&#xd3;" horiz-adv-x="521" 
d="M233 734l-32 56l158 95l34 -58zM246 713v-81q-50 -1 -84 -36t-34 -84v-321q0 -49 34 -84t84 -36v-81h-7q-82 0 -140.5 58.5t-58.5 140.5v325q0 82 58.5 140.5t140.5 58.5h7zM276 632v81h6q82 0 140.5 -58.5t58.5 -140.5v-325q0 -83 -58.5 -141t-140.5 -58h-6v81
q50 1 83.5 36t33.5 84v321q0 49 -33.5 84t-83.5 36z" />
    <glyph glyph-name="Ocircumflex" unicode="&#xd4;" horiz-adv-x="521" 
d="M149 746l-31 52l143 87l143 -87l-31 -52l-112 68zM246 713v-81q-50 -1 -84 -36t-34 -84v-321q0 -49 34 -84t84 -36v-81h-7q-82 0 -140.5 58.5t-58.5 140.5v325q0 82 58.5 140.5t140.5 58.5h7zM276 632v81h6q82 0 140.5 -58.5t58.5 -140.5v-325q0 -83 -58.5 -141
t-140.5 -58h-6v81q50 1 83.5 36t33.5 84v321q0 49 -33.5 84t-83.5 36z" />
    <glyph glyph-name="Otilde" unicode="&#xd5;" horiz-adv-x="521" 
d="M246 713v-81q-50 -1 -84 -36t-34 -84v-321q0 -49 34 -84t84 -36v-81h-7q-82 0 -140.5 58.5t-58.5 140.5v325q0 82 58.5 140.5t140.5 58.5h7zM276 632v81h6q82 0 140.5 -58.5t58.5 -140.5v-325q0 -83 -58.5 -141t-140.5 -58h-6v81q50 1 83.5 36t33.5 84v321q0 49 -33.5 84
t-83.5 36zM111 801l24 30q27 37 68 37q31 0 56 -17l29 -20q15 -11 27 -11q16 0 26 14l20 26l49 -39l-25 -33q-25 -35 -65 -35q-34 0 -55 15l-30 20q-18 12 -28 12q-16 0 -24 -10l-22 -29z" />
    <glyph glyph-name="Odieresis" unicode="&#xd6;" horiz-adv-x="521" 
d="M246 713v-81q-50 -1 -84 -36t-34 -84v-321q0 -49 34 -84t84 -36v-81h-7q-82 0 -140.5 58.5t-58.5 140.5v325q0 82 58.5 140.5t140.5 58.5h7zM276 632v81h6q82 0 140.5 -58.5t58.5 -140.5v-325q0 -83 -58.5 -141t-140.5 -58h-6v81q50 1 83.5 36t33.5 84v321q0 49 -33.5 84
t-83.5 36zM301 763v82h70v-82h-70zM153 763v82h71v-82h-71z" />
    <glyph glyph-name="multiply" unicode="&#xd7;" horiz-adv-x="358" 
d="M75 198l-52 52l103 103l-102 102l52 53l102 -103l104 103l52 -52l-103 -103l103 -103l-52 -53l-104 103z" />
    <glyph glyph-name="Oslash" unicode="&#xd8;" horiz-adv-x="526" 
d="M248 713v-81q-50 -1 -84 -36t-34 -84v-321q0 -49 34 -84t84 -36v-81h-6q-60 0 -112 34l-43 -80l-66 35l53 102q-32 47 -32 108v325q0 82 58.5 140.5t141.5 58.5h6zM278 632v81h6q61 0 112 -35l42 81l68 -36l-55 -102q32 -50 32 -107v-325q0 -83 -58.5 -141t-140.5 -58h-6
v81q50 1 83.5 36t33.5 84v321q0 49 -33.5 84t-83.5 36z" />
    <glyph glyph-name="Ugrave" unicode="&#xd9;" horiz-adv-x="534" 
d="M322 735l-160 93l33 58l159 -95zM252 72v-82h-7q-81 0 -138.5 57t-57.5 138v518h88v-515q0 -48 32.5 -81.5t82.5 -34.5zM282 -10v82q50 1 82.5 34.5t32.5 81.5v515h88v-518q0 -81 -57.5 -138t-137.5 -57h-8z" />
    <glyph glyph-name="Uacute" unicode="&#xda;" horiz-adv-x="534" 
d="M252 72v-82h-7q-81 0 -138.5 57t-57.5 138v518h88v-515q0 -48 32.5 -81.5t82.5 -34.5zM282 -10v82q50 1 82.5 34.5t32.5 81.5v515h88v-518q0 -81 -57.5 -138t-137.5 -57h-8zM238 734l-32 56l158 95l34 -58z" />
    <glyph glyph-name="Ucircumflex" unicode="&#xdb;" horiz-adv-x="534" 
d="M155 746l-31 52l143 87l143 -87l-31 -52l-112 68zM252 72v-82h-7q-81 0 -138.5 57t-57.5 138v518h88v-515q0 -48 32.5 -81.5t82.5 -34.5zM282 -10v82q50 1 82.5 34.5t32.5 81.5v515h88v-518q0 -81 -57.5 -138t-137.5 -57h-8z" />
    <glyph glyph-name="Udieresis" unicode="&#xdc;" horiz-adv-x="534" 
d="M252 72v-82h-7q-81 0 -138.5 57t-57.5 138v518h88v-515q0 -48 32.5 -81.5t82.5 -34.5zM282 -10v82q50 1 82.5 34.5t32.5 81.5v515h88v-518q0 -81 -57.5 -138t-137.5 -57h-8zM307 763v82h70v-82h-70zM159 763v82h71v-82h-71z" />
    <glyph glyph-name="Yacute" unicode="&#xdd;" horiz-adv-x="450" 
d="M283 315l-44 95l130 293h86zM82 703l187 -427v-276h-88v283l-186 420h87zM196 734l-32 56l158 95l34 -58z" />
    <glyph glyph-name="Thorn" unicode="&#xde;" horiz-adv-x="468" 
d="M142 703v-703h-88v703h88zM172 134v79h95q47 0 79.5 32.5t32.5 79.5v53q0 47 -33 80.5t-79 33.5h-95v78h99q81 0 138 -57t57 -138v-47q0 -80 -57 -137t-138 -57h-99z" />
    <glyph glyph-name="germandbls" unicode="&#xdf;" horiz-adv-x="485" 
d="M254 628v75h16q69 0 117.5 -50t48.5 -120v-40q0 -84 -63 -134q39 -19 60 -57t21 -80v-57q0 -69 -46.5 -117t-114.5 -48h-64v79h43q42 0 66.5 30.5t24.5 74.5v29q0 45 -24.5 76t-67.5 31h-41v71h27q43 0 67.5 31.5t24.5 76.5v25q0 43 -24.5 73t-70.5 31zM224 703v-75
q-41 -1 -62.5 -26t-21.5 -62v-540h-86v547q0 65 44 110.5t110 45.5h16z" />
    <glyph glyph-name="agrave" unicode="&#xe0;" horiz-adv-x="466" 
d="M299 94v-15q0 -30 16 -53q-37 -31 -110 -31h-52q-51 0 -90 33.5t-39 94.5q0 59 36 96t97 37h168v91q0 37 -21.5 63.5t-58.5 27.5v77h15q66 0 109 -43.5t43 -106.5v-243q0 -28 11 -39.5t36 -11.5h12v-72h-46q-50 0 -75 26.5t-25 69.5v92h-138q-32 0 -53 -15.5t-21 -44.5
q0 -65 70 -65h39q19 0 42 8.5t35 23.5zM215 515v-77q-42 -1 -64 -28t-22 -64v-23h-83v37q0 64 45.5 109.5t113.5 45.5h10zM286 542l-160 93l34 57l159 -95z" />
    <glyph glyph-name="aacute" unicode="&#xe1;" horiz-adv-x="466" 
d="M299 94v-15q0 -30 16 -53q-37 -31 -110 -31h-52q-51 0 -90 33.5t-39 94.5q0 59 36 96t97 37h168v91q0 37 -21.5 63.5t-58.5 27.5v77h15q66 0 109 -43.5t43 -106.5v-243q0 -28 11 -39.5t36 -11.5h12v-72h-46q-50 0 -75 26.5t-25 69.5v92h-138q-32 0 -53 -15.5t-21 -44.5
q0 -65 70 -65h39q19 0 42 8.5t35 23.5zM215 515v-77q-42 -1 -64 -28t-22 -64v-23h-83v37q0 64 45.5 109.5t113.5 45.5h10zM203 541l-33 55l158 95l35 -57z" />
    <glyph glyph-name="acircumflex" unicode="&#xe2;" horiz-adv-x="466" 
d="M299 94v-15q0 -30 16 -53q-37 -31 -110 -31h-52q-51 0 -90 33.5t-39 94.5q0 59 36 96t97 37h168v91q0 37 -21.5 63.5t-58.5 27.5v77h15q66 0 109 -43.5t43 -106.5v-243q0 -28 11 -39.5t36 -11.5h12v-72h-46q-50 0 -75 26.5t-25 69.5v92h-138q-32 0 -53 -15.5t-21 -44.5
q0 -65 70 -65h39q19 0 42 8.5t35 23.5zM215 515v-77q-42 -1 -64 -28t-22 -64v-23h-83v37q0 64 45.5 109.5t113.5 45.5h10zM119 553l-31 52l143 87l143 -87l-31 -52l-112 69z" />
    <glyph glyph-name="atilde" unicode="&#xe3;" horiz-adv-x="466" 
d="M299 94v-15q0 -30 16 -53q-37 -31 -110 -31h-52q-51 0 -90 33.5t-39 94.5q0 59 36 96t97 37h168v91q0 37 -21.5 63.5t-58.5 27.5v77h15q66 0 109 -43.5t43 -106.5v-243q0 -28 11 -39.5t36 -11.5h12v-72h-46q-50 0 -75 26.5t-25 69.5v92h-138q-32 0 -53 -15.5t-21 -44.5
q0 -65 70 -65h39q19 0 42 8.5t35 23.5zM81 608l24 30q27 37 68 37q31 0 56 -17l29 -20q15 -11 27 -11q16 0 26 14l20 26l49 -39l-25 -33q-25 -35 -65 -35q-34 0 -55 15l-30 20q-18 12 -28 12q-16 0 -24 -10l-22 -29zM215 515v-77q-42 -1 -64 -28t-22 -64v-23h-83v37
q0 64 45.5 109.5t113.5 45.5h10z" />
    <glyph glyph-name="adieresis" unicode="&#xe4;" horiz-adv-x="466" 
d="M299 94v-15q0 -30 16 -53q-37 -31 -110 -31h-52q-51 0 -90 33.5t-39 94.5q0 59 36 96t97 37h168v91q0 37 -21.5 63.5t-58.5 27.5v77h15q66 0 109 -43.5t43 -106.5v-243q0 -28 11 -39.5t36 -11.5h12v-72h-46q-50 0 -75 26.5t-25 69.5v92h-138q-32 0 -53 -15.5t-21 -44.5
q0 -65 70 -65h39q19 0 42 8.5t35 23.5zM215 515v-77q-42 -1 -64 -28t-22 -64v-23h-83v37q0 64 45.5 109.5t113.5 45.5h10zM123 571v82h71v-82h-71zM271 571v82h70v-82h-70z" />
    <glyph glyph-name="aring" unicode="&#xe5;" horiz-adv-x="466" 
d="M299 94v-15q0 -30 16 -53q-37 -31 -110 -31h-52q-51 0 -90 33.5t-39 94.5q0 59 36 96t97 37h168v91q0 37 -21.5 63.5t-58.5 27.5v77h15q66 0 109 -43.5t43 -106.5v-243q0 -28 11 -39.5t36 -11.5h12v-72h-46q-50 0 -75 26.5t-25 69.5v92h-138q-32 0 -53 -15.5t-21 -44.5
q0 -65 70 -65h39q19 0 42 8.5t35 23.5zM223 538q-31 0 -53.5 22t-22.5 53v15q0 31 22.5 52.5t53.5 21.5h16q31 0 53 -21.5t22 -52.5v-15q0 -31 -22 -53t-53 -22h-16zM215 515v-77q-42 -1 -64 -28t-22 -64v-23h-83v37q0 64 45.5 109.5t113.5 45.5h10zM226 589h10q10 0 18 8
t8 18v10q0 10 -8 18t-18 8h-10q-10 0 -18 -7.5t-8 -18.5v-10q0 -10 8 -18t18 -8z" />
    <glyph glyph-name="ae" unicode="&#xe6;" horiz-adv-x="748" 
d="M245 438v77h9q36 0 66 -16.5t48 -43.5q53 60 123 60h17v-72q-47 1 -72.5 -29t-25.5 -72v-8h223v8q0 43 -24.5 71.5t-70.5 29.5v72h12q70 0 118 -49t48 -120v-78h-306v-99q0 -44 24 -74t73 -31v-71h-12q-69 0 -119.5 46.5t-50.5 115.5v32h-140q-31 0 -51.5 -15t-20.5 -44
q0 -66 70 -66h40q52 0 81 37q5 -38 36 -63q-45 -42 -117 -42h-69q-52 0 -91 34t-39 95q0 59 35.5 96t98.5 37h167v91q0 36 -22.5 63t-57.5 28zM537 -7v71q47 1 71 31.5t24 75.5v24h84v-29q0 -74 -47 -123.5t-118 -49.5h-14zM215 515v-78q-40 -1 -63 -28t-23 -63v-23h-83v37
q0 64 44 109.5t112 45.5h13z" />
    <glyph glyph-name="ccedilla" unicode="&#xe7;" horiz-adv-x="469" 
d="M222 515v-76q-49 -1 -73 -31.5t-24 -74.5v-159q0 -44 24.5 -74t72.5 -31v-69h30v69q48 1 71 30.5t23 74.5v30h88v-40q0 -71 -48 -121t-118 -50v-28q25 -4 42.5 -24t17.5 -47v-16q0 -34 -23 -56.5t-56 -22.5h-17q-33 0 -55.5 22.5t-22.5 56.5v17l55 -1v-14q0 -10 8 -18
t19 -8h9q11 0 18.5 8t7.5 18v10q0 10 -7 17.5t-17 8.5h-38v77h-4q-70 0 -118.5 50t-48.5 121v180q0 71 48.5 121t118.5 50h17zM252 439v76h16q70 0 118 -50t48 -121v-41h-88v30q0 45 -23 75t-71 31z" />
    <glyph glyph-name="egrave" unicode="&#xe8;" horiz-adv-x="460" 
d="M219 64v-71h-14q-71 0 -119 49t-48 122v182q0 70 49.5 119.5t120.5 49.5h12v-71q-51 -1 -75 -29.5t-24 -72.5v-8h223v8q0 44 -22.5 72.5t-71.5 29.5v71h11q70 0 118 -49t48 -120v-78h-306v-99q0 -44 24.5 -74t73.5 -31zM249 -7v71q47 1 70.5 31.5t23.5 75.5v24h84v-29
q0 -74 -46.5 -123.5t-116.5 -49.5h-15zM288 542l-160 93l34 57l159 -95z" />
    <glyph glyph-name="eacute" unicode="&#xe9;" horiz-adv-x="460" 
d="M219 64v-71h-14q-71 0 -119 49t-48 122v182q0 70 49.5 119.5t120.5 49.5h12v-71q-51 -1 -75 -29.5t-24 -72.5v-8h223v8q0 44 -22.5 72.5t-71.5 29.5v71h11q70 0 118 -49t48 -120v-78h-306v-99q0 -44 24.5 -74t73.5 -31zM249 -7v71q47 1 70.5 31.5t23.5 75.5v24h84v-29
q0 -74 -46.5 -123.5t-116.5 -49.5h-15zM205 541l-33 55l158 95l35 -57z" />
    <glyph glyph-name="ecircumflex" unicode="&#xea;" horiz-adv-x="460" 
d="M219 64v-71h-14q-71 0 -119 49t-48 122v182q0 70 49.5 119.5t120.5 49.5h12v-71q-51 -1 -75 -29.5t-24 -72.5v-8h223v8q0 44 -22.5 72.5t-71.5 29.5v71h11q70 0 118 -49t48 -120v-78h-306v-99q0 -44 24.5 -74t73.5 -31zM249 -7v71q47 1 70.5 31.5t23.5 75.5v24h84v-29
q0 -74 -46.5 -123.5t-116.5 -49.5h-15zM121 553l-31 52l143 87l143 -87l-31 -52l-112 69z" />
    <glyph glyph-name="edieresis" unicode="&#xeb;" horiz-adv-x="460" 
d="M219 64v-71h-14q-71 0 -119 49t-48 122v182q0 70 49.5 119.5t120.5 49.5h12v-71q-51 -1 -75 -29.5t-24 -72.5v-8h223v8q0 44 -22.5 72.5t-71.5 29.5v71h11q70 0 118 -49t48 -120v-78h-306v-99q0 -44 24.5 -74t73.5 -31zM249 -7v71q47 1 70.5 31.5t23.5 75.5v24h84v-29
q0 -74 -46.5 -123.5t-116.5 -49.5h-15zM125 571v82h71v-82h-71zM273 571v82h70v-82h-70z" />
    <glyph glyph-name="igrave" unicode="&#xec;" 
d="M54 0v508h88v-508h-88zM154 542l-160 93l34 57l159 -95z" />
    <glyph glyph-name="iacute" unicode="&#xed;" 
d="M62 541l-33 55l158 95l35 -57zM54 0v508h88v-508h-88z" />
    <glyph glyph-name="icircumflex" unicode="&#xee;" 
d="M-13 553l-31 52l143 87l143 -87l-31 -52l-112 69zM54 0v508h88v-508h-88z" />
    <glyph glyph-name="idieresis" unicode="&#xef;" 
d="M139 571v82h70v-82h-70zM-9 571v82h71v-82h-71zM54 0v508h88v-508h-88z" />
    <glyph glyph-name="eth" unicode="&#xf0;" horiz-adv-x="459" 
d="M139 475l-34 52l90 57l-93 75l50 62l115 -91l88 56l35 -52l-73 -46q54 -49 79 -100.5t25 -118.5v-212q0 -69 -47.5 -118t-116.5 -49h-16v77q42 1 67.5 28t25.5 65v230q0 43 -20.5 78.5t-66.5 74.5zM304 415v-80q-38 14 -65 14h-24q-41 0 -69 -27.5t-28 -69.5v-91
q0 -39 25.5 -66t67.5 -28v-77h-17q-68 0 -115.5 49t-47.5 118v99q0 73 49.5 122.5t121.5 49.5h31q34 0 71 -13z" />
    <glyph glyph-name="ntilde" unicode="&#xf1;" horiz-adv-x="490" 
d="M54 0v508h88v-508h-88zM172 400v86q35 29 92 29h40q55 0 95.5 -39t40.5 -101v-375h-89v349q0 36 -18.5 61.5t-52.5 25.5h-36q-42 0 -72 -36zM97 608l24 30q27 37 68 37q30 0 56 -17l29 -20q15 -11 27 -11q16 0 26 14l20 26l49 -39l-25 -33q-25 -35 -65 -35q-34 0 -55 15
l-30 20q-18 12 -28 12q-16 0 -24 -10l-22 -29z" />
    <glyph glyph-name="ograve" unicode="&#xf2;" horiz-adv-x="477" 
d="M224 515v-77q-49 -1 -74 -31t-25 -74v-159q0 -43 25 -73.5t74 -31.5v-76h-19q-70 0 -118.5 50t-48.5 121v180q0 71 48.5 121t118.5 50h19zM254 438v77h18q70 0 118.5 -50t48.5 -121v-180q0 -71 -48.5 -121t-118.5 -50h-18v76q49 1 73.5 31.5t24.5 73.5v159q0 44 -24.5 74
t-73.5 31zM292 542l-160 93l34 57l159 -95z" />
    <glyph glyph-name="oacute" unicode="&#xf3;" horiz-adv-x="477" 
d="M209 541l-33 55l158 95l35 -57zM224 515v-77q-49 -1 -74 -31t-25 -74v-159q0 -43 25 -73.5t74 -31.5v-76h-19q-70 0 -118.5 50t-48.5 121v180q0 71 48.5 121t118.5 50h19zM254 438v77h18q70 0 118.5 -50t48.5 -121v-180q0 -71 -48.5 -121t-118.5 -50h-18v76
q49 1 73.5 31.5t24.5 73.5v159q0 44 -24.5 74t-73.5 31z" />
    <glyph glyph-name="ocircumflex" unicode="&#xf4;" horiz-adv-x="477" 
d="M125 553l-31 52l143 87l143 -87l-31 -52l-112 69zM224 515v-77q-49 -1 -74 -31t-25 -74v-159q0 -43 25 -73.5t74 -31.5v-76h-19q-70 0 -118.5 50t-48.5 121v180q0 71 48.5 121t118.5 50h19zM254 438v77h18q70 0 118.5 -50t48.5 -121v-180q0 -71 -48.5 -121t-118.5 -50
h-18v76q49 1 73.5 31.5t24.5 73.5v159q0 44 -24.5 74t-73.5 31z" />
    <glyph glyph-name="otilde" unicode="&#xf5;" horiz-adv-x="477" 
d="M224 515v-77q-49 -1 -74 -31t-25 -74v-159q0 -43 25 -73.5t74 -31.5v-76h-19q-70 0 -118.5 50t-48.5 121v180q0 71 48.5 121t118.5 50h19zM254 438v77h18q70 0 118.5 -50t48.5 -121v-180q0 -71 -48.5 -121t-118.5 -50h-18v76q49 1 73.5 31.5t24.5 73.5v159q0 44 -24.5 74
t-73.5 31zM87 608l24 30q27 37 68 37q31 0 56 -17l29 -20q15 -11 27 -11q16 0 26 14l20 26l49 -39l-25 -33q-25 -35 -65 -35q-34 0 -55 15l-30 20q-18 12 -28 12q-16 0 -24 -10l-22 -29z" />
    <glyph glyph-name="odieresis" unicode="&#xf6;" horiz-adv-x="477" 
d="M277 571v82h70v-82h-70zM129 571v82h71v-82h-71zM224 515v-77q-49 -1 -74 -31t-25 -74v-159q0 -43 25 -73.5t74 -31.5v-76h-19q-70 0 -118.5 50t-48.5 121v180q0 71 48.5 121t118.5 50h19zM254 438v77h18q70 0 118.5 -50t48.5 -121v-180q0 -71 -48.5 -121t-118.5 -50h-18
v76q49 1 73.5 31.5t24.5 73.5v159q0 44 -24.5 74t-73.5 31z" />
    <glyph glyph-name="divide" unicode="&#xf7;" horiz-adv-x="350" 
d="M133 449v75h82v-75h-82zM15 315v75h320v-75h-320zM133 182v74h82v-74h-82z" />
    <glyph glyph-name="oslash" unicode="&#xf8;" horiz-adv-x="477" 
d="M224 515v-77q-49 -1 -74 -31t-25 -74v-159q0 -43 25 -73.5t74 -31.5v-76h-19q-30 0 -60 11l-45 -85l-57 31l46 90q-51 49 -51 124v180q0 71 48.5 121t118.5 50h19zM254 438v77h18q32 0 64 -13l41 80l60 -31l-46 -87q48 -50 48 -120v-180q0 -71 -48.5 -121t-118.5 -50h-18
v76q49 1 73.5 31.5t24.5 73.5v159q0 44 -24.5 74t-73.5 31z" />
    <glyph glyph-name="ugrave" unicode="&#xf9;" horiz-adv-x="489" 
d="M434 508v-508h-87v508h87zM317 108v-87q-37 -28 -93 -28h-40q-56 0 -95 41t-39 95v379h89v-349q0 -37 18 -62t52 -25h36q38 0 72 36zM298 542l-160 93l34 57l159 -95z" />
    <glyph glyph-name="uacute" unicode="&#xfa;" horiz-adv-x="489" 
d="M215 541l-33 55l158 95l35 -57zM434 508v-508h-87v508h87zM317 108v-87q-37 -28 -93 -28h-40q-56 0 -95 41t-39 95v379h89v-349q0 -37 18 -62t52 -25h36q38 0 72 36z" />
    <glyph glyph-name="ucircumflex" unicode="&#xfb;" horiz-adv-x="489" 
d="M131 553l-31 52l143 87l143 -87l-31 -52l-112 69zM434 508v-508h-87v508h87zM317 108v-87q-37 -28 -93 -28h-40q-56 0 -95 41t-39 95v379h89v-349q0 -37 18 -62t52 -25h36q38 0 72 36z" />
    <glyph glyph-name="udieresis" unicode="&#xfc;" horiz-adv-x="489" 
d="M283 571v82h70v-82h-70zM135 571v82h71v-82h-71zM434 508v-508h-87v508h87zM317 108v-87q-37 -28 -93 -28h-40q-56 0 -95 41t-39 95v379h89v-349q0 -37 18 -62t52 -25h36q38 0 72 36z" />
    <glyph glyph-name="yacute" unicode="&#xfd;" horiz-adv-x="418" 
d="M17 -196v75h69q36 0 54 18.5t31 57.5l159 553h88l-161 -556q-26 -89 -65.5 -118.5t-103.5 -29.5h-71zM195 136l-39 -136h-9l-147 508h88zM181 541l-33 55l158 95l35 -57z" />
    <glyph glyph-name="thorn" unicode="&#xfe;" horiz-adv-x="485" 
d="M172 5v80q23 -16 58 -16h40q43 0 66.5 31.5t23.5 75.5v168q0 40 -20 67t-58 27h-39q-41 0 -71 -32v88q32 21 82 21h53q60 0 100 -42t40 -101v-208q0 -71 -47 -121t-118 -50h-47q-35 0 -63 12zM54 -196v899h88v-899h-88z" />
    <glyph glyph-name="ydieresis" unicode="&#xff;" horiz-adv-x="418" 
d="M17 -196v75h69q36 0 54 18.5t31 57.5l159 553h88l-161 -556q-26 -89 -65.5 -118.5t-103.5 -29.5h-71zM195 136l-39 -136h-9l-147 508h88zM249 571v82h70v-82h-70zM101 571v82h71v-82h-71z" />
    <glyph glyph-name="Amacron" unicode="&#x100;" horiz-adv-x="486" 
d="M308 265l14 -78h-192l-50 -187h-85l194 693l38 -146l-76 -282h157zM401 0l-187 703h82l194 -703h-89zM115 771v68h255v-68h-255z" />
    <glyph glyph-name="amacron" unicode="&#x101;" horiz-adv-x="466" 
d="M299 94v-15q0 -30 16 -53q-37 -31 -110 -31h-52q-51 0 -90 33.5t-39 94.5q0 59 36 96t97 37h168v91q0 37 -21.5 63.5t-58.5 27.5v77h15q66 0 109 -43.5t43 -106.5v-243q0 -28 11 -39.5t36 -11.5h12v-72h-46q-50 0 -75 26.5t-25 69.5v92h-138q-32 0 -53 -15.5t-21 -44.5
q0 -65 70 -65h39q19 0 42 8.5t35 23.5zM215 515v-77q-42 -1 -64 -28t-22 -64v-23h-83v37q0 64 45.5 109.5t113.5 45.5h10zM103 578v68h255v-68h-255z" />
    <glyph glyph-name="Abreve" unicode="&#x102;" horiz-adv-x="486" 
d="M308 265l14 -78h-192l-50 -187h-85l194 693l38 -146l-76 -282h157zM401 0l-187 703h82l194 -703h-89zM126 843v24h60v-24q0 -19 13.5 -32.5t32.5 -13.5h21q19 0 32.5 13.5t13.5 32.5v24h61v-24q0 -43 -30 -72.5t-72 -29.5h-30q-43 0 -72.5 29.5t-29.5 72.5z" />
    <glyph glyph-name="abreve" unicode="&#x103;" horiz-adv-x="466" 
d="M299 94v-15q0 -30 16 -53q-37 -31 -110 -31h-52q-51 0 -90 33.5t-39 94.5q0 59 36 96t97 37h168v91q0 37 -21.5 63.5t-58.5 27.5v77h15q66 0 109 -43.5t43 -106.5v-243q0 -28 11 -39.5t36 -11.5h12v-72h-46q-50 0 -75 26.5t-25 69.5v92h-138q-32 0 -53 -15.5t-21 -44.5
q0 -65 70 -65h39q19 0 42 8.5t35 23.5zM215 515v-77q-42 -1 -64 -28t-22 -64v-23h-83v37q0 64 45.5 109.5t113.5 45.5h10zM216 548q-43 0 -72.5 29.5t-29.5 72.5v24h60v-24q0 -18 13.5 -32t32.5 -14h21q19 0 32.5 14t13.5 32v24h61v-24q0 -43 -30 -72.5t-72 -29.5h-30z" />
    <glyph glyph-name="Aogonek" unicode="&#x104;" horiz-adv-x="486" 
d="M401 0l-187 703h82l194 -703v-87h-30q-10 -1 -16.5 -8.5t-6.5 -17.5v-7q0 -10 7.5 -18t18.5 -8h27v-55h-40q-31 0 -53.5 23t-22.5 55v12q0 28 16.5 49t41.5 26v36h-31zM308 265l14 -78h-192l-50 -187h-85l194 693l38 -146l-76 -282h157z" />
    <glyph glyph-name="aogonek" unicode="&#x105;" horiz-adv-x="466" 
d="M299 94v-15q0 -30 16 -53q-37 -31 -110 -31h-52q-51 0 -90 33.5t-39 94.5q0 59 36 96t97 37h168v91q0 37 -21.5 63.5t-58.5 27.5v77h15q66 0 109 -43.5t43 -106.5v-243q0 -28 11 -39.5t36 -11.5h12v-158h-30q-10 -1 -16.5 -8.5t-6.5 -17.5v-7q0 -10 8 -18t18 -8h27v-55
h-40q-31 0 -53.5 23t-22.5 55v12q0 29 16.5 49.5t43.5 25.5v35q-45 3 -67.5 29t-22.5 67v92h-138q-32 0 -53 -15.5t-21 -44.5q0 -65 70 -65h39q19 0 42 8.5t35 23.5zM215 515v-77q-42 -1 -64 -28t-22 -64v-23h-83v37q0 64 45.5 109.5t113.5 45.5h10z" />
    <glyph glyph-name="Cacute" unicode="&#x106;" horiz-adv-x="519" 
d="M246 713v-81q-50 -1 -84 -36t-34 -84v-321q0 -49 34 -84t84 -36v-81h-7q-82 0 -140.5 58.5t-58.5 140.5v325q0 82 58.5 140.5t140.5 58.5h7zM394 266h87v-77q0 -83 -58.5 -141t-140.5 -58h-6v81q50 1 84 36t34 84v75zM481 437h-87v75q0 49 -34 84t-84 36v81h6
q82 0 140.5 -58.5t58.5 -140.5v-77zM232 734l-32 56l158 95l34 -58z" />
    <glyph glyph-name="cacute" unicode="&#x107;" horiz-adv-x="469" 
d="M208 541l-33 55l158 95l35 -57zM252 439v76h16q70 0 118 -50t48 -121v-41h-88v30q0 45 -23 75t-71 31zM222 515v-76q-49 -1 -73 -31.5t-24 -74.5v-159q0 -44 24.5 -74t72.5 -31v-76h-17q-70 0 -118.5 50t-48.5 121v180q0 71 48.5 121t118.5 50h17zM252 -7v76
q48 1 71 30.5t23 74.5v30h88v-40q0 -71 -48 -121t-118 -50h-16z" />
    <glyph glyph-name="Ccircumflex" unicode="&#x108;" horiz-adv-x="519" 
d="M246 713v-81q-50 -1 -84 -36t-34 -84v-321q0 -49 34 -84t84 -36v-81h-7q-82 0 -140.5 58.5t-58.5 140.5v325q0 82 58.5 140.5t140.5 58.5h7zM394 266h87v-77q0 -83 -58.5 -141t-140.5 -58h-6v81q50 1 84 36t34 84v75zM481 437h-87v75q0 49 -34 84t-84 36v81h6
q82 0 140.5 -58.5t58.5 -140.5v-77zM148 746l-31 52l143 87l143 -87l-31 -52l-112 68z" />
    <glyph glyph-name="ccircumflex" unicode="&#x109;" horiz-adv-x="469" 
d="M124 553l-31 52l143 87l143 -87l-31 -52l-112 69zM252 439v76h16q70 0 118 -50t48 -121v-41h-88v30q0 45 -23 75t-71 31zM222 515v-76q-49 -1 -73 -31.5t-24 -74.5v-159q0 -44 24.5 -74t72.5 -31v-76h-17q-70 0 -118.5 50t-48.5 121v180q0 71 48.5 121t118.5 50h17z
M252 -7v76q48 1 71 30.5t23 74.5v30h88v-40q0 -71 -48 -121t-118 -50h-16z" />
    <glyph glyph-name="Cdotaccent" unicode="&#x10a;" horiz-adv-x="519" 
d="M218 764v82h84v-82h-84zM246 713v-81q-50 -1 -84 -36t-34 -84v-321q0 -49 34 -84t84 -36v-81h-7q-82 0 -140.5 58.5t-58.5 140.5v325q0 82 58.5 140.5t140.5 58.5h7zM394 266h87v-77q0 -83 -58.5 -141t-140.5 -58h-6v81q50 1 84 36t34 84v75zM481 437h-87v75q0 49 -34 84
t-84 36v81h6q82 0 140.5 -58.5t58.5 -140.5v-77z" />
    <glyph glyph-name="cdotaccent" unicode="&#x10b;" horiz-adv-x="469" 
d="M252 439v76h16q70 0 118 -50t48 -121v-41h-88v30q0 45 -23 75t-71 31zM222 515v-76q-49 -1 -73 -31.5t-24 -74.5v-159q0 -44 24.5 -74t72.5 -31v-76h-17q-70 0 -118.5 50t-48.5 121v180q0 71 48.5 121t118.5 50h17zM252 -7v76q48 1 71 30.5t23 74.5v30h88v-40
q0 -71 -48 -121t-118 -50h-16zM194 571v82h84v-82h-84z" />
    <glyph glyph-name="Ccaron" unicode="&#x10c;" horiz-adv-x="519" 
d="M246 713v-81q-50 -1 -84 -36t-34 -84v-321q0 -49 34 -84t84 -36v-81h-7q-82 0 -140.5 58.5t-58.5 140.5v325q0 82 58.5 140.5t140.5 58.5h7zM394 266h87v-77q0 -83 -58.5 -141t-140.5 -58h-6v81q50 1 84 36t34 84v75zM481 437h-87v75q0 49 -34 84t-84 36v81h6
q82 0 140.5 -58.5t58.5 -140.5v-77zM260 737l-143 87l30 52l113 -69l112 69l31 -52z" />
    <glyph glyph-name="ccaron" unicode="&#x10d;" horiz-adv-x="469" 
d="M236 544l-143 87l30 52l113 -68l112 68l31 -52zM252 439v76h16q70 0 118 -50t48 -121v-41h-88v30q0 45 -23 75t-71 31zM222 515v-76q-49 -1 -73 -31.5t-24 -74.5v-159q0 -44 24.5 -74t72.5 -31v-76h-17q-70 0 -118.5 50t-48.5 121v180q0 71 48.5 121t118.5 50h17zM252 -7
v76q48 1 71 30.5t23 74.5v30h88v-40q0 -71 -48 -121t-118 -50h-16z" />
    <glyph glyph-name="Dcaron" unicode="&#x10e;" horiz-adv-x="533" 
d="M172 0v79h114q49 0 83.5 36t34.5 86v301q0 49 -35 85.5t-83 36.5h-114v79h121q83 0 141 -58.5t58 -140.5v-305q0 -83 -58 -141t-141 -58h-121zM142 703v-703h-88v703h88zM260 737l-143 87l30 52l113 -69l112 69l31 -52z" />
    <glyph glyph-name="dcaron" unicode="&#x10f;" horiz-adv-x="554" 
d="M562 699l-27 -171l-70 8l25 172zM430 703v-703h-87v703h87zM313 503v-80q-25 15 -57 15h-41q-43 0 -66.5 -31t-23.5 -76v-168q0 -40 20 -67t58 -27h39q41 0 71 34v-89q-32 -21 -82 -21h-52q-61 0 -101 42t-40 101v208q0 71 47 121t118 50h48q35 0 62 -12z" />
    <glyph glyph-name="Dcroat" unicode="&#x110;" horiz-adv-x="550" 
d="M188 0v79h114q49 0 83.5 36t34.5 86v301q0 49 -35 85.5t-83 36.5h-114v79h121q83 0 141 -58.5t58 -140.5v-305q0 -83 -58 -141t-141 -58h-121zM158 703v-315h90v-72h-90v-316h-88v316h-51v72h51v315h88z" />
    <glyph glyph-name="dcroat" unicode="&#x111;" horiz-adv-x="496" 
d="M430 703v-67h52v-58h-52v-578h-87v578h-87v58h87v67h87zM313 503v-80q-25 15 -57 15h-41q-43 0 -66.5 -31t-23.5 -76v-168q0 -40 20 -67t58 -27h39q41 0 71 34v-89q-32 -21 -82 -21h-52q-61 0 -101 42t-40 101v208q0 71 47 121t118 50h48q35 0 62 -12z" />
    <glyph glyph-name="Emacron" unicode="&#x112;" horiz-adv-x="435" 
d="M172 0v79h231v-79h-231zM172 624v79h231v-79h-231zM142 703v-312h249v-79h-249v-312h-88v703h88zM98 771v68h255v-68h-255z" />
    <glyph glyph-name="emacron" unicode="&#x113;" horiz-adv-x="460" 
d="M219 64v-71h-14q-71 0 -119 49t-48 122v182q0 70 49.5 119.5t120.5 49.5h12v-71q-51 -1 -75 -29.5t-24 -72.5v-8h223v8q0 44 -22.5 72.5t-71.5 29.5v71h11q70 0 118 -49t48 -120v-78h-306v-99q0 -44 24.5 -74t73.5 -31zM249 -7v71q47 1 70.5 31.5t23.5 75.5v24h84v-29
q0 -74 -46.5 -123.5t-116.5 -49.5h-15zM105 578v68h255v-68h-255z" />
    <glyph glyph-name="Ebreve" unicode="&#x114;" horiz-adv-x="435" 
d="M142 703v-312h249v-79h-249v-312h-88v703h88zM172 624v79h231v-79h-231zM172 0v79h231v-79h-231zM211 741q-43 0 -72.5 29.5t-29.5 72.5v24h60v-24q0 -19 13.5 -32.5t32.5 -13.5h21q19 0 32.5 13.5t13.5 32.5v24h61v-24q0 -43 -30 -72.5t-72 -29.5h-30z" />
    <glyph glyph-name="ebreve" unicode="&#x115;" horiz-adv-x="460" 
d="M219 64v-71h-14q-71 0 -119 49t-48 122v182q0 70 49.5 119.5t120.5 49.5h12v-71q-51 -1 -75 -29.5t-24 -72.5v-8h223v8q0 44 -22.5 72.5t-71.5 29.5v71h11q70 0 118 -49t48 -120v-78h-306v-99q0 -44 24.5 -74t73.5 -31zM249 -7v71q47 1 70.5 31.5t23.5 75.5v24h84v-29
q0 -74 -46.5 -123.5t-116.5 -49.5h-15zM218 548q-43 0 -72.5 29.5t-29.5 72.5v24h60v-24q0 -18 13.5 -32t32.5 -14h21q19 0 32.5 14t13.5 32v24h61v-24q0 -43 -30 -72.5t-72 -29.5h-30z" />
    <glyph glyph-name="Edotaccent" unicode="&#x116;" horiz-adv-x="435" 
d="M184 764v82h84v-82h-84zM172 0v79h231v-79h-231zM172 624v79h231v-79h-231zM142 703v-312h249v-79h-249v-312h-88v703h88z" />
    <glyph glyph-name="edotaccent" unicode="&#x117;" horiz-adv-x="460" 
d="M219 64v-71h-14q-71 0 -119 49t-48 122v182q0 70 49.5 119.5t120.5 49.5h12v-71q-51 -1 -75 -29.5t-24 -72.5v-8h223v8q0 44 -22.5 72.5t-71.5 29.5v71h11q70 0 118 -49t48 -120v-78h-306v-99q0 -44 24.5 -74t73.5 -31zM249 -7v71q47 1 70.5 31.5t23.5 75.5v24h84v-29
q0 -74 -46.5 -123.5t-116.5 -49.5h-15zM191 571v82h84v-82h-84z" />
    <glyph glyph-name="Eogonek" unicode="&#x118;" horiz-adv-x="435" 
d="M142 703v-312h249v-79h-249v-312h-88v703h88zM172 0v79h231v-166h-30q-10 -1 -16.5 -8.5t-6.5 -17.5v-7q0 -10 8 -18t18 -8h27v-55h-40q-31 0 -53.5 23t-22.5 55v12q0 29 16.5 49.5t43.5 25.5v36h-175zM172 624v79h231v-79h-231z" />
    <glyph glyph-name="eogonek" unicode="&#x119;" horiz-adv-x="460" 
d="M219 64v-71h-14q-71 0 -119 49t-48 122v182q0 70 49.5 119.5t120.5 49.5h12v-71q-51 -1 -75 -29.5t-24 -72.5v-8h223v8q0 44 -22.5 72.5t-71.5 29.5v71h11q70 0 118 -49t48 -120v-78h-306v-99q0 -44 24.5 -74t73.5 -31zM189 -111q0 29 16.5 49.5t43.5 25.5v100
q47 1 70.5 31.5t23.5 75.5v24h84v-29q0 -62 -34 -108t-88 -60v-85h-30q-10 -1 -16.5 -8.5t-6.5 -17.5v-7q0 -10 8 -18t18 -8h27v-55h-40q-31 0 -53.5 23t-22.5 55v12z" />
    <glyph glyph-name="Ecaron" unicode="&#x11a;" horiz-adv-x="435" 
d="M172 0v79h231v-79h-231zM172 624v79h231v-79h-231zM142 703v-312h249v-79h-249v-312h-88v703h88zM226 737l-143 87l30 52l113 -69l112 69l31 -52z" />
    <glyph glyph-name="ecaron" unicode="&#x11b;" horiz-adv-x="460" 
d="M219 64v-71h-14q-71 0 -119 49t-48 122v182q0 70 49.5 119.5t120.5 49.5h12v-71q-51 -1 -75 -29.5t-24 -72.5v-8h223v8q0 44 -22.5 72.5t-71.5 29.5v71h11q70 0 118 -49t48 -120v-78h-306v-99q0 -44 24.5 -74t73.5 -31zM249 -7v71q47 1 70.5 31.5t23.5 75.5v24h84v-29
q0 -74 -46.5 -123.5t-116.5 -49.5h-15zM233 544l-143 87l30 52l113 -68l112 68l31 -52z" />
    <glyph glyph-name="Gcircumflex" unicode="&#x11c;" horiz-adv-x="527" 
d="M151 746l-31 52l143 87l143 -87l-31 -52l-112 68zM248 713v-81q-52 -1 -86 -36t-34 -84v-322q0 -49 34.5 -84t85.5 -36v-80h-9q-82 0 -140.5 58.5t-58.5 140.5v325q0 82 58.5 140.5t140.5 58.5h9zM278 271v78h210v-160q0 -83 -58 -141t-141 -58h-11v80q55 0 89.5 35
t34.5 85v81h-124zM487 463h-87v49q0 49 -34.5 84t-87.5 36v81h9q83 0 141.5 -58.5t58.5 -140.5v-51z" />
    <glyph glyph-name="gcircumflex" unicode="&#x11d;" horiz-adv-x="473" 
d="M456 -41h-87q-14 43 -66 43h-106q-72 0 -105.5 35t-33.5 77v17q0 50 19 77q-40 43 -40 106v53q0 62 42 105t108 43h22v-69q-43 -1 -65.5 -25t-22.5 -62v-37q0 -40 22 -64.5t66 -25.5v-70h-24q-26 0 -47 7q-4 -15 -4 -31v-9q0 -51 56 -51h133q54 0 92 -34t41 -80v-5z
M371 -66h86q-3 -139 -171 -139h-125q-70 0 -109 37t-39 82v32q0 62 41 91q10 -14 29 -28t38 -18q-23 -18 -23 -50v-10q0 -25 19 -43.5t55 -18.5h107q90 0 92 65zM239 445v70h23q43 0 80 -24q27 16 58 16h63v-73h-51q-4 0 -18 -2q16 -32 16 -65v-52q0 -63 -41 -108t-108 -45
h-22v70q44 1 65 26.5t21 64.5v36q0 37 -22 61t-64 25zM118 553l-31 52l143 87l143 -87l-31 -52l-112 69z" />
    <glyph glyph-name="Gbreve" unicode="&#x11e;" horiz-adv-x="527" 
d="M248 713v-81q-52 -1 -86 -36t-34 -84v-322q0 -49 34.5 -84t85.5 -36v-80h-9q-82 0 -140.5 58.5t-58.5 140.5v325q0 82 58.5 140.5t140.5 58.5h9zM278 271v78h210v-160q0 -83 -58 -141t-141 -58h-11v80q55 0 89.5 35t34.5 85v81h-124zM487 463h-87v49q0 49 -34.5 84
t-87.5 36v81h9q83 0 141.5 -58.5t58.5 -140.5v-51zM248 741q-43 0 -72.5 29.5t-29.5 72.5v24h60v-24q0 -19 13.5 -32.5t32.5 -13.5h21q19 0 32.5 13.5t13.5 32.5v24h61v-24q0 -43 -30 -72.5t-72 -29.5h-30z" />
    <glyph glyph-name="gbreve" unicode="&#x11f;" horiz-adv-x="473" 
d="M456 -41h-87q-14 43 -66 43h-106q-72 0 -105.5 35t-33.5 77v17q0 50 19 77q-40 43 -40 106v53q0 62 42 105t108 43h22v-69q-43 -1 -65.5 -25t-22.5 -62v-37q0 -40 22 -64.5t66 -25.5v-70h-24q-26 0 -47 7q-4 -15 -4 -31v-9q0 -51 56 -51h133q54 0 92 -34t41 -80v-5z
M371 -66h86q-3 -139 -171 -139h-125q-70 0 -109 37t-39 82v32q0 62 41 91q10 -14 29 -28t38 -18q-23 -18 -23 -50v-10q0 -25 19 -43.5t55 -18.5h107q90 0 92 65zM239 445v70h23q43 0 80 -24q27 16 58 16h63v-73h-51q-4 0 -18 -2q16 -32 16 -65v-52q0 -63 -41 -108t-108 -45
h-22v70q44 1 65 26.5t21 64.5v36q0 37 -22 61t-64 25zM113 650v24h60v-24q0 -18 13.5 -32t32.5 -14h21q19 0 32.5 14t13.5 32v24h61v-24q0 -43 -30 -72.5t-72 -29.5h-30q-43 0 -72.5 29.5t-29.5 72.5z" />
    <glyph glyph-name="Gdotaccent" unicode="&#x120;" horiz-adv-x="527" 
d="M221 764v82h84v-82h-84zM248 713v-81q-52 -1 -86 -36t-34 -84v-322q0 -49 34.5 -84t85.5 -36v-80h-9q-82 0 -140.5 58.5t-58.5 140.5v325q0 82 58.5 140.5t140.5 58.5h9zM278 271v78h210v-160q0 -83 -58 -141t-141 -58h-11v80q55 0 89.5 35t34.5 85v81h-124zM487 463h-87
v49q0 49 -34.5 84t-87.5 36v81h9q83 0 141.5 -58.5t58.5 -140.5v-51z" />
    <glyph glyph-name="gdotaccent" unicode="&#x121;" horiz-adv-x="473" 
d="M456 -41h-87q-14 43 -66 43h-106q-72 0 -105.5 35t-33.5 77v17q0 50 19 77q-40 43 -40 106v53q0 62 42 105t108 43h22v-69q-43 -1 -65.5 -25t-22.5 -62v-37q0 -40 22 -64.5t66 -25.5v-70h-24q-26 0 -47 7q-4 -15 -4 -31v-9q0 -51 56 -51h133q54 0 92 -34t41 -80v-5z
M371 -66h86q-3 -139 -171 -139h-125q-70 0 -109 37t-39 82v32q0 62 41 91q10 -14 29 -28t38 -18q-23 -18 -23 -50v-10q0 -25 19 -43.5t55 -18.5h107q90 0 92 65zM239 445v70h23q43 0 80 -24q27 16 58 16h63v-73h-51q-4 0 -18 -2q16 -32 16 -65v-52q0 -63 -41 -108t-108 -45
h-22v70q44 1 65 26.5t21 64.5v36q0 37 -22 61t-64 25zM188 571v82h84v-82h-84z" />
    <glyph glyph-name="Gcommaaccent" unicode="&#x122;" horiz-adv-x="527" 
d="M239 -28l70 -17l-41 -150l-69 17zM248 713v-81q-52 -1 -86 -36t-34 -84v-322q0 -49 34.5 -84t85.5 -36v-80h-9q-82 0 -140.5 58.5t-58.5 140.5v325q0 82 58.5 140.5t140.5 58.5h9zM278 271v78h210v-160q0 -83 -58 -141t-141 -58h-11v80q55 0 89.5 35t34.5 85v81h-124z
M487 463h-87v49q0 49 -34.5 84t-87.5 36v81h9q83 0 141.5 -58.5t58.5 -140.5v-51z" />
    <glyph glyph-name="gcommaaccent" unicode="&#x123;" horiz-adv-x="473" 
d="M456 -41h-87q-14 43 -66 43h-106q-72 0 -105.5 35t-33.5 77v17q0 50 19 77q-40 43 -40 106v53q0 62 42 105t108 43h22v-69q-43 -1 -65.5 -25t-22.5 -62v-37q0 -40 22 -64.5t66 -25.5v-70h-24q-26 0 -47 7q-4 -15 -4 -31v-9q0 -51 56 -51h133q54 0 92 -34t41 -80v-5z
M371 -66h86q-3 -139 -171 -139h-125q-70 0 -109 37t-39 82v32q0 62 41 91q10 -14 29 -28t38 -18q-23 -18 -23 -50v-10q0 -25 19 -43.5t55 -18.5h107q90 0 92 65zM239 445v70h23q43 0 80 -24q27 16 58 16h63v-73h-51q-4 0 -18 -2q16 -32 16 -65v-52q0 -63 -41 -108t-108 -45
h-22v70q44 1 65 26.5t21 64.5v36q0 37 -22 61t-64 25zM263 544l-70 17l41 150l69 -17z" />
    <glyph glyph-name="Hcircumflex" unicode="&#x124;" horiz-adv-x="550" 
d="M172 312v79h236v312h87v-703h-87v312h-236zM142 703v-703h-88v703h88zM163 746l-31 52l143 87l143 -87l-31 -52l-112 68z" />
    <glyph glyph-name="hcircumflex" unicode="&#x125;" horiz-adv-x="490" 
d="M54 0v703h88v-703h-88zM172 400v86q35 29 92 29h40q55 0 95.5 -39t40.5 -101v-375h-89v349q0 36 -18.5 61.5t-52.5 25.5h-36q-42 0 -72 -36zM-13 730l-31 52l143 87l143 -87l-31 -52l-112 68z" />
    <glyph glyph-name="Hbar" unicode="&#x126;" horiz-adv-x="567" 
d="M180 312v79h236v125h-266v-516h-88v516h-50v64h50v123h88v-123h266v123h87v-123h52v-64h-52v-516h-87v312h-236z" />
    <glyph glyph-name="hbar" unicode="&#x127;" horiz-adv-x="501" 
d="M15 578v58h50v67h88v-67h88v-58h-88v-578h-88v578h-50zM183 400v86q35 29 92 29h40q55 0 95.5 -39t40.5 -101v-375h-89v349q0 36 -18.5 61.5t-52.5 25.5h-36q-42 0 -72 -36z" />
    <glyph glyph-name="Itilde" unicode="&#x128;" 
d="M54 0v703h88v-703h-88zM-51 801l24 30q27 37 68 37q30 0 56 -17l29 -20q15 -11 27 -11q16 0 26 14l20 26l49 -39l-25 -33q-25 -35 -65 -35q-34 0 -55 15l-30 20q-18 12 -28 12q-16 0 -24 -10l-22 -29z" />
    <glyph glyph-name="itilde" unicode="&#x129;" 
d="M54 0v508h88v-508h-88zM-51 608l24 30q27 37 68 37q30 0 56 -17l29 -20q15 -11 27 -11q16 0 26 14l20 26l49 -39l-25 -33q-25 -35 -65 -35q-34 0 -55 15l-30 20q-18 12 -28 12q-16 0 -24 -10l-22 -29z" />
    <glyph glyph-name="Imacron" unicode="&#x12a;" 
d="M54 0v703h88v-703h-88zM-29 771v68h255v-68h-255z" />
    <glyph glyph-name="imacron" unicode="&#x12b;" 
d="M54 0v508h88v-508h-88zM-29 578v68h255v-68h-255z" />
    <glyph glyph-name="Ibreve" unicode="&#x12c;" 
d="M54 0v703h88v-703h-88zM-18 843v24h60v-24q0 -19 13.5 -32.5t32.5 -13.5h21q19 0 32.5 13.5t13.5 32.5v24h61v-24q0 -43 -30 -72.5t-72 -29.5h-30q-43 0 -72.5 29.5t-29.5 72.5z" />
    <glyph glyph-name="ibreve" unicode="&#x12d;" 
d="M54 0v508h88v-508h-88zM-18 650v24h60v-24q0 -18 13.5 -32t32.5 -14h21q19 0 32.5 14t13.5 32v24h61v-24q0 -43 -30 -72.5t-72 -29.5h-30q-43 0 -72.5 29.5t-29.5 72.5z" />
    <glyph glyph-name="Iogonek" unicode="&#x12e;" 
d="M54 0v703h88v-790h-30q-10 -1 -16.5 -8.5t-6.5 -17.5v-7q0 -10 7.5 -18t18.5 -8h27v-55h-40q-31 0 -53.5 23t-22.5 55v12q0 29 16.5 49.5t43.5 25.5v36h-32z" />
    <glyph glyph-name="iogonek" unicode="&#x12f;" 
d="M54 0v508h88v-508h-88zM54 569v84h88v-84h-88z" />
    <glyph glyph-name="Idotaccent" unicode="&#x130;" 
d="M54 0v703h88v-703h-88zM57 764v82h84v-82h-84z" />
    <glyph glyph-name="dotlessi" unicode="&#x131;" 
d="M54 0v508h88v-508h-88z" />
    <glyph glyph-name="IJ" unicode="&#x132;" horiz-adv-x="473" 
d="M54 0v703h88v-703h-88zM189 0v79h35q50 0 80.5 34t30.5 83v507h88v-520q0 -78 -50.5 -130.5t-130.5 -52.5h-53z" />
    <glyph glyph-name="ij" unicode="&#x133;" horiz-adv-x="396" 
d="M341 -17h-88v525h88v-525zM54 0v508h88v-508h-88zM253 -42h88q2 -68 -35.5 -111t-98.5 -43h-72v75h49q65 0 69 79zM253 569v84h88v-84h-88zM54 569v84h88v-84h-88z" />
    <glyph glyph-name="Jcircumflex" unicode="&#x134;" horiz-adv-x="276" 
d="M-7 0v79h35q50 0 80.5 34t30.5 83v507h88v-520q0 -78 -50.5 -130.5t-130.5 -52.5h-53zM71 746l-31 52l143 87l143 -87l-31 -52l-112 68z" />
    <glyph glyph-name="jcircumflex" unicode="&#x135;" horiz-adv-x="200" 
d="M145 -17h-88v525h88v-525zM57 -42h88q2 -68 -35.5 -111t-98.5 -43h-72v75h49q65 0 69 79zM-10 553l-31 52l143 87l143 -87l-31 -52l-112 69z" />
    <glyph glyph-name="Kcommaaccent" unicode="&#x136;" horiz-adv-x="496" 
d="M412 0l-169 312v80l151 311h93l-166 -346l190 -357h-99zM142 703v-312h71v-79h-71v-312h-88v703h88zM237 -28l70 -17l-41 -150l-69 17z" />
    <glyph glyph-name="kcommaaccent" unicode="&#x137;" horiz-adv-x="434" 
d="M54 0v703h88v-410h52v-75h-52v-218h-88zM439 0h-95l-123 220v72l109 216h93l-126 -250zM204 -28l70 -17l-41 -150l-69 17z" />
    <glyph glyph-name="Lacute" unicode="&#x139;" horiz-adv-x="388" 
d="M71 734l-32 56l158 95l34 -58zM172 0v79h226v-79h-226zM142 703v-703h-88v703h88z" />
    <glyph glyph-name="lacute" unicode="&#x13a;" 
d="M71 716l-33 55l158 95l35 -57zM54 0v703h88v-703h-88z" />
    <glyph glyph-name="Lcommaaccent" unicode="&#x13b;" horiz-adv-x="388" 
d="M201 -28l70 -17l-41 -150l-69 17zM172 0v79h226v-79h-226zM142 703v-703h-88v703h88z" />
    <glyph glyph-name="lcommaaccent" unicode="&#x13c;" 
d="M75 -28l70 -17l-41 -150l-69 17zM54 0v703h88v-703h-88z" />
    <glyph glyph-name="Lcaron" unicode="&#x13d;" horiz-adv-x="395" 
d="M273 699l-27 -171l-70 8l25 172zM172 0v79h226v-79h-226zM142 703v-703h-88v703h88z" />
    <glyph glyph-name="lcaron" unicode="&#x13e;" horiz-adv-x="266" 
d="M273 699l-27 -171l-70 8l25 172zM54 0v703h88v-703h-88z" />
    <glyph glyph-name="Ldot" unicode="&#x13f;" horiz-adv-x="406" 
d="M172 0v79h226v-79h-226zM142 703v-703h-88v703h88zM277 307v97h83v-97h-83z" />
    <glyph glyph-name="ldot" unicode="&#x140;" horiz-adv-x="284" 
d="M54 0v703h88v-703h-88zM204 208v97h83v-97h-83z" />
    <glyph glyph-name="Lslash" unicode="&#x141;" horiz-adv-x="421" 
d="M175 703v-317l148 59l23 -59l-171 -69v-317h-88v281l-46 -18l-22 61l68 27v352h88zM205 0v79h226v-79h-226z" />
    <glyph glyph-name="lslash" unicode="&#x142;" horiz-adv-x="217" 
d="M21 280l-21 55l61 24v344h88v-309l46 18l22 -53l-68 -28v-331h-88v296z" />
    <glyph glyph-name="Nacute" unicode="&#x143;" horiz-adv-x="549" 
d="M247 734l-32 56l158 95l34 -58zM494 97l-84 155v451h84v-606zM136 703l358 -660v-43h-67l-289 528v-528h-84v703h82z" />
    <glyph glyph-name="nacute" unicode="&#x144;" horiz-adv-x="490" 
d="M219 541l-33 55l158 95l35 -57zM54 0v508h88v-508h-88zM172 400v86q35 29 92 29h40q55 0 95.5 -39t40.5 -101v-375h-89v349q0 36 -18.5 61.5t-52.5 25.5h-36q-42 0 -72 -36z" />
    <glyph glyph-name="Ncommaaccent" unicode="&#x145;" horiz-adv-x="549" 
d="M252 -28l70 -17l-41 -150l-69 17zM494 97l-84 155v451h84v-606zM136 703l358 -660v-43h-67l-289 528v-528h-84v703h82z" />
    <glyph glyph-name="ncommaaccent" unicode="&#x146;" horiz-adv-x="490" 
d="M223 -28l70 -17l-41 -150l-69 17zM54 0v508h88v-508h-88zM172 400v86q35 29 92 29h40q55 0 95.5 -39t40.5 -101v-375h-89v349q0 36 -18.5 61.5t-52.5 25.5h-36q-42 0 -72 -36z" />
    <glyph glyph-name="Ncaron" unicode="&#x147;" horiz-adv-x="549" 
d="M494 97l-84 155v451h84v-606zM136 703l358 -660v-43h-67l-289 528v-528h-84v703h82zM276 737l-143 87l30 52l113 -69l112 69l31 -52z" />
    <glyph glyph-name="ncaron" unicode="&#x148;" horiz-adv-x="490" 
d="M247 544l-143 87l30 52l113 -68l112 68l31 -52zM54 0v508h88v-508h-88zM172 400v86q35 29 92 29h40q55 0 95.5 -39t40.5 -101v-375h-89v349q0 36 -18.5 61.5t-52.5 25.5h-36q-42 0 -72 -36z" />
    <glyph glyph-name="napostrophe" unicode="&#x149;" horiz-adv-x="595" 
d="M159 0v508h88v-508h-88zM277 400v86q35 29 92 29h40q55 0 95.5 -39t40.5 -101v-375h-89v349q0 36 -18.5 61.5t-52.5 25.5h-36q-42 0 -72 -36zM109 538h-74v232h74v-232z" />
    <glyph glyph-name="Eng" unicode="&#x14a;" horiz-adv-x="546" 
d="M54 0v703h82l250 -375v-134l-248 365v-559h-84zM292 0v76h25q44 0 70 28t26 71v528h84v-539q0 -70 -45 -117t-117 -47h-43z" />
    <glyph glyph-name="eng" unicode="&#x14b;" horiz-adv-x="490" 
d="M54 0v508h88v-508h-88zM352 -42h88q2 -68 -35.5 -111t-98.5 -43h-72v75h49q65 0 69 79zM172 400v86q35 29 92 29h40q55 0 95.5 -39t40.5 -101v-392h-88v366q0 36 -19 61.5t-53 25.5h-36q-42 0 -72 -36z" />
    <glyph glyph-name="Omacron" unicode="&#x14c;" horiz-adv-x="521" 
d="M246 713v-81q-50 -1 -84 -36t-34 -84v-321q0 -49 34 -84t84 -36v-81h-7q-82 0 -140.5 58.5t-58.5 140.5v325q0 82 58.5 140.5t140.5 58.5h7zM276 632v81h6q82 0 140.5 -58.5t58.5 -140.5v-325q0 -83 -58.5 -141t-140.5 -58h-6v81q50 1 83.5 36t33.5 84v321q0 49 -33.5 84
t-83.5 36zM133 771v68h255v-68h-255z" />
    <glyph glyph-name="omacron" unicode="&#x14d;" horiz-adv-x="477" 
d="M109 578v68h255v-68h-255zM224 515v-77q-49 -1 -74 -31t-25 -74v-159q0 -43 25 -73.5t74 -31.5v-76h-19q-70 0 -118.5 50t-48.5 121v180q0 71 48.5 121t118.5 50h19zM254 438v77h18q70 0 118.5 -50t48.5 -121v-180q0 -71 -48.5 -121t-118.5 -50h-18v76q49 1 73.5 31.5
t24.5 73.5v159q0 44 -24.5 74t-73.5 31z" />
    <glyph glyph-name="Obreve" unicode="&#x14e;" horiz-adv-x="521" 
d="M246 713v-81q-50 -1 -84 -36t-34 -84v-321q0 -49 34 -84t84 -36v-81h-7q-82 0 -140.5 58.5t-58.5 140.5v325q0 82 58.5 140.5t140.5 58.5h7zM276 632v81h6q82 0 140.5 -58.5t58.5 -140.5v-325q0 -83 -58.5 -141t-140.5 -58h-6v81q50 1 83.5 36t33.5 84v321q0 49 -33.5 84
t-83.5 36zM246 741q-43 0 -72.5 29.5t-29.5 72.5v24h60v-24q0 -19 13.5 -32.5t32.5 -13.5h21q19 0 32.5 13.5t13.5 32.5v24h61v-24q0 -43 -30 -72.5t-72 -29.5h-30z" />
    <glyph glyph-name="obreve" unicode="&#x14f;" horiz-adv-x="477" 
d="M224 515v-77q-49 -1 -74 -31t-25 -74v-159q0 -43 25 -73.5t74 -31.5v-76h-19q-70 0 -118.5 50t-48.5 121v180q0 71 48.5 121t118.5 50h19zM254 438v77h18q70 0 118.5 -50t48.5 -121v-180q0 -71 -48.5 -121t-118.5 -50h-18v76q49 1 73.5 31.5t24.5 73.5v159q0 44 -24.5 74
t-73.5 31zM222 548q-43 0 -72.5 29.5t-29.5 72.5v24h60v-24q0 -18 13.5 -32t32.5 -14h21q19 0 32.5 14t13.5 32v24h61v-24q0 -43 -30 -72.5t-72 -29.5h-30z" />
    <glyph glyph-name="Ohungarumlaut" unicode="&#x150;" horiz-adv-x="521" 
d="M322 737l-54 29l66 111l54 -30zM190 741l-53 29l66 110l54 -29zM246 713v-81q-50 -1 -84 -36t-34 -84v-321q0 -49 34 -84t84 -36v-81h-7q-82 0 -140.5 58.5t-58.5 140.5v325q0 82 58.5 140.5t140.5 58.5h7zM276 632v81h6q82 0 140.5 -58.5t58.5 -140.5v-325
q0 -83 -58.5 -141t-140.5 -58h-6v81q50 1 83.5 36t33.5 84v321q0 49 -33.5 84t-83.5 36z" />
    <glyph glyph-name="ohungarumlaut" unicode="&#x151;" horiz-adv-x="477" 
d="M311 543l-54 29l66 111l54 -30zM179 547l-53 29l66 110l54 -29zM224 515v-77q-49 -1 -74 -31t-25 -74v-159q0 -43 25 -73.5t74 -31.5v-76h-19q-70 0 -118.5 50t-48.5 121v180q0 71 48.5 121t118.5 50h19zM254 438v77h18q70 0 118.5 -50t48.5 -121v-180q0 -71 -48.5 -121
t-118.5 -50h-18v76q49 1 73.5 31.5t24.5 73.5v159q0 44 -24.5 74t-73.5 31z" />
    <glyph glyph-name="OE" unicode="&#x152;" horiz-adv-x="717" 
d="M284 624v79h147v-312h243v-79h-243v-312h-147v79h63v545h-63zM254 79v-79h-18q-81 0 -138.5 57.5t-57.5 138.5v310q0 82 58 139.5t139 57.5h17v-79h-8q-49 0 -83.5 -35t-34.5 -84v-306q0 -50 34.5 -85t83.5 -35h8zM461 0v79h225v-79h-225zM461 624v79h225v-79h-225z" />
    <glyph glyph-name="oe" unicode="&#x153;" horiz-adv-x="777" 
d="M567 443v72h12q70 0 118 -49t48 -120v-78h-306v-99q0 -44 24 -74t73 -31v-71h-16q-83 0 -124 71q-41 -71 -124 -71h-18v75q49 1 73.5 31.5t24.5 74.5v159q0 44 -24.5 74.5t-73.5 31.5v76h18q39 0 71.5 -19t51.5 -52q42 71 125 71h17v-72q-50 -1 -74 -29t-24 -72v-8h223v8
q0 44 -23 72t-72 29zM224 515v-76q-49 -1 -74 -31.5t-25 -74.5v-159q0 -44 25 -74.5t74 -31.5v-75h-19q-70 0 -118.5 50t-48.5 121v180q0 71 48.5 121t118.5 50h19zM566 -7v71q47 1 71.5 31.5t24.5 75.5v24h83v-29q0 -74 -47 -123.5t-117 -49.5h-15z" />
    <glyph glyph-name="Racute" unicode="&#x154;" horiz-adv-x="510" 
d="M262 295l-30 63h37q46 0 78 32.5t32 78.5v44q0 46 -32 78.5t-78 32.5h-97v79h103q79 0 136 -56.5t57 -136.5v-37q0 -55 -30 -102.5t-79 -71.5l146 -299h-99zM142 703v-345h60l37 -78h-97v-280h-88v703h88zM207 734l-32 56l158 95l34 -58z" />
    <glyph glyph-name="racute" unicode="&#x155;" horiz-adv-x="312" 
d="M143 541l-33 55l158 95l35 -57zM172 388v91q36 29 90 29h41v-79h-34q-59 0 -97 -41zM54 0v508h88v-508h-88z" />
    <glyph glyph-name="Rcommaaccent" unicode="&#x156;" horiz-adv-x="510" 
d="M262 295l-30 63h37q46 0 78 32.5t32 78.5v44q0 46 -32 78.5t-78 32.5h-97v79h103q79 0 136 -56.5t57 -136.5v-37q0 -55 -30 -102.5t-79 -71.5l146 -299h-99zM142 703v-345h60l37 -78h-97v-280h-88v703h88zM237 -28l70 -17l-41 -150l-69 17z" />
    <glyph glyph-name="rcommaaccent" unicode="&#x157;" horiz-adv-x="312" 
d="M75 -28l70 -17l-41 -150l-69 17zM172 388v91q36 29 90 29h41v-79h-34q-59 0 -97 -41zM54 0v508h88v-508h-88z" />
    <glyph glyph-name="Rcaron" unicode="&#x158;" horiz-adv-x="510" 
d="M262 295l-30 63h37q46 0 78 32.5t32 78.5v44q0 46 -32 78.5t-78 32.5h-97v79h103q79 0 136 -56.5t57 -136.5v-37q0 -55 -30 -102.5t-79 -71.5l146 -299h-99zM142 703v-345h60l37 -78h-97v-280h-88v703h88zM235 737l-143 87l30 52l113 -69l112 69l31 -52z" />
    <glyph glyph-name="rcaron" unicode="&#x159;" horiz-adv-x="312" 
d="M171 544l-143 87l30 52l113 -68l112 68l31 -52zM172 388v91q36 29 90 29h41v-79h-34q-59 0 -97 -41zM54 0v508h88v-508h-88z" />
    <glyph glyph-name="Sacute" unicode="&#x15a;" horiz-adv-x="502" 
d="M268 634v79h10q78 0 129.5 -55t51.5 -135v-47h-85v46q0 46 -29 78.5t-77 33.5zM236 69v-79h-16q-79 0 -133 55t-54 134v46h86v-45q0 -44 32 -77t85 -34zM266 -10v79q55 1 85 33t30 82v19q0 50 -29.5 80.5t-93.5 30.5h-19q-91 0 -145 55t-54 131v33q0 76 54.5 128
t132.5 52h11v-79q-49 -1 -79.5 -30.5t-30.5 -73.5v-21q0 -50 31 -83t92 -33h21q97 0 147 -51t50 -134v-28q0 -80 -52.5 -135t-133.5 -55h-17zM221 734l-32 56l158 95l34 -58z" />
    <glyph glyph-name="sacute" unicode="&#x15b;" horiz-adv-x="452" 
d="M199 541l-33 55l158 95l35 -57zM242 442v73h13q70 0 114 -40.5t44 -97.5v-35h-86v26q0 32 -21.5 52.5t-63.5 21.5zM212 515v-73q-42 -1 -62.5 -19t-20.5 -48v-6q0 -74 99 -74h19q81 0 128.5 -38.5t47.5 -99.5v-25q0 -59 -44.5 -99t-111.5 -40h-25v73q92 3 92 68v7
q0 34 -24 54.5t-75 20.5h-18q-82 0 -129 37.5t-47 101.5v18q0 60 43.5 101t115.5 41h12zM212 66v-73h-23q-70 0 -114 39.5t-44 95.5v42h86v-28q0 -33 23 -54t72 -22z" />
    <glyph glyph-name="Scircumflex" unicode="&#x15c;" horiz-adv-x="502" 
d="M268 634v79h10q78 0 129.5 -55t51.5 -135v-47h-85v46q0 46 -29 78.5t-77 33.5zM236 69v-79h-16q-79 0 -133 55t-54 134v46h86v-45q0 -44 32 -77t85 -34zM266 -10v79q55 1 85 33t30 82v19q0 50 -29.5 80.5t-93.5 30.5h-19q-91 0 -145 55t-54 131v33q0 76 54.5 128
t132.5 52h11v-79q-49 -1 -79.5 -30.5t-30.5 -73.5v-21q0 -50 31 -83t92 -33h21q97 0 147 -51t50 -134v-28q0 -80 -52.5 -135t-133.5 -55h-17zM137 746l-31 52l143 87l143 -87l-31 -52l-112 68z" />
    <glyph glyph-name="scircumflex" unicode="&#x15d;" horiz-adv-x="452" 
d="M115 553l-31 52l143 87l143 -87l-31 -52l-112 69zM242 442v73h13q70 0 114 -40.5t44 -97.5v-35h-86v26q0 32 -21.5 52.5t-63.5 21.5zM212 515v-73q-42 -1 -62.5 -19t-20.5 -48v-6q0 -74 99 -74h19q81 0 128.5 -38.5t47.5 -99.5v-25q0 -59 -44.5 -99t-111.5 -40h-25v73
q92 3 92 68v7q0 34 -24 54.5t-75 20.5h-18q-82 0 -129 37.5t-47 101.5v18q0 60 43.5 101t115.5 41h12zM212 66v-73h-23q-70 0 -114 39.5t-44 95.5v42h86v-28q0 -33 23 -54t72 -22z" />
    <glyph glyph-name="Scedilla" unicode="&#x15e;" horiz-adv-x="502" 
d="M236 69v-69h30v69q55 1 85 33t30 82v19q0 50 -29.5 80.5t-93.5 30.5h-19q-91 0 -145 55t-54 131v33q0 76 54.5 128t132.5 52h11v-79q-49 -1 -79.5 -30.5t-30.5 -73.5v-21q0 -50 31 -83t92 -33h21q97 0 147 -51t50 -134v-28q0 -80 -52.5 -135t-133.5 -55h-2v-25
q25 -4 42.5 -24t17.5 -47v-16q0 -34 -23 -56.5t-56 -22.5h-17q-33 0 -55.5 22.5t-22.5 56.5v17l55 -1v-14q0 -10 8 -18t19 -8h9q10 0 18 8t8 18v10q0 10 -7 17.5t-17 8.5h-38v74h-2q-79 0 -133 55t-54 134v46h86v-45q0 -44 32 -77t85 -34zM268 634v79h10q78 0 129.5 -55
t51.5 -135v-47h-85v46q0 46 -29 78.5t-77 33.5z" />
    <glyph glyph-name="scedilla" unicode="&#x15f;" horiz-adv-x="452" 
d="M212 66v-66h30v66q92 3 92 68v7q0 34 -24 54.5t-75 20.5h-18q-82 0 -129 37.5t-47 101.5v18q0 60 43.5 101t115.5 41h12v-73q-42 -1 -62.5 -19t-20.5 -48v-6q0 -74 99 -74h19q81 0 128.5 -38.5t47.5 -99.5v-25q0 -59 -44.5 -99t-111.5 -40h-8v-28q25 -4 42.5 -24
t17.5 -47v-16q0 -34 -23 -56.5t-56 -22.5h-17q-33 0 -55.5 22.5t-22.5 56.5v17l55 -1v-14q0 -10 8 -18t19 -8h9q10 0 18 8t8 18v10q0 10 -7 17.5t-17 8.5h-38v77h-11q-70 0 -114 39.5t-44 95.5v42h86v-28q0 -33 23 -54t72 -22zM242 442v73h13q70 0 114 -40.5t44 -97.5v-35
h-86v26q0 32 -21.5 52.5t-63.5 21.5z" />
    <glyph glyph-name="Scaron" unicode="&#x160;" horiz-adv-x="502" 
d="M268 634v79h10q78 0 129.5 -55t51.5 -135v-47h-85v46q0 46 -29 78.5t-77 33.5zM236 69v-79h-16q-79 0 -133 55t-54 134v46h86v-45q0 -44 32 -77t85 -34zM266 -10v79q55 1 85 33t30 82v19q0 50 -29.5 80.5t-93.5 30.5h-19q-91 0 -145 55t-54 131v33q0 76 54.5 128
t132.5 52h11v-79q-49 -1 -79.5 -30.5t-30.5 -73.5v-21q0 -50 31 -83t92 -33h21q97 0 147 -51t50 -134v-28q0 -80 -52.5 -135t-133.5 -55h-17zM249 737l-143 87l30 52l113 -69l112 69l31 -52z" />
    <glyph glyph-name="scaron" unicode="&#x161;" horiz-adv-x="452" 
d="M227 544l-143 87l30 52l113 -68l112 68l31 -52zM242 442v73h13q70 0 114 -40.5t44 -97.5v-35h-86v26q0 32 -21.5 52.5t-63.5 21.5zM212 515v-73q-42 -1 -62.5 -19t-20.5 -48v-6q0 -74 99 -74h19q81 0 128.5 -38.5t47.5 -99.5v-25q0 -59 -44.5 -99t-111.5 -40h-25v73
q92 3 92 68v7q0 34 -24 54.5t-75 20.5h-18q-82 0 -129 37.5t-47 101.5v18q0 60 43.5 101t115.5 41h12zM212 66v-73h-23q-70 0 -114 39.5t-44 95.5v42h86v-28q0 -33 23 -54t72 -22z" />
    <glyph glyph-name="Tcommaaccent" unicode="&#x162;" horiz-adv-x="417" 
d="M184 -28l70 -17l-41 -150l-69 17zM282 624v79h145v-79h-145zM252 703v-703h-87v624h-175v79h262z" />
    <glyph glyph-name="tcommaaccent" unicode="&#x163;" horiz-adv-x="404" 
d="M217 68v-75h-14q-55 0 -93 38.5t-38 88.5v312h-63v76h63v87h86v-451q0 -30 15.5 -53t43.5 -23zM247 -7v75q64 4 64 78v31h81v-50q0 -55 -38.5 -94.5t-94.5 -39.5h-12zM188 432v76h199v-76h-199zM204 -28l70 -17l-41 -150l-69 17z" />
    <glyph glyph-name="Tcaron" unicode="&#x164;" horiz-adv-x="417" 
d="M282 624v79h145v-79h-145zM252 703v-703h-87v624h-175v79h262zM208 737l-143 87l30 52l113 -69l112 69l31 -52z" />
    <glyph glyph-name="tcaron" unicode="&#x165;" horiz-adv-x="404" 
d="M217 68v-75h-14q-55 0 -93 38.5t-38 88.5v312h-63v76h63v87h86v-451q0 -30 15.5 -53t43.5 -23zM247 -7v75q64 4 64 78v31h81v-50q0 -55 -38.5 -94.5t-94.5 -39.5h-12zM188 432v76h199v-76h-199zM289 699l-27 -171l-70 8l25 172z" />
    <glyph glyph-name="Tbar" unicode="&#x166;" horiz-adv-x="417" 
d="M252 320v-320h-87v320h-104v64h104v240h-175v79h262v-319h104v-64h-104zM282 624v79h145v-79h-145z" />
    <glyph glyph-name="tbar" unicode="&#x167;" horiz-adv-x="404" 
d="M10 432v76h63v87h86v-292h114v-58h-114v-101q0 -30 14.5 -50.5t43.5 -20.5v-80h-15q-56 0 -92.5 37t-36.5 90v125h-46v58h46v129h-63zM247 -7v80q34 2 50.5 22.5t16.5 50.5v18h79v-37q0 -55 -39.5 -94.5t-96.5 -39.5h-10zM189 432v76h199v-76h-199z" />
    <glyph glyph-name="Utilde" unicode="&#x168;" horiz-adv-x="534" 
d="M252 72v-82h-7q-81 0 -138.5 57t-57.5 138v518h88v-515q0 -48 32.5 -81.5t82.5 -34.5zM282 -10v82q50 1 82.5 34.5t32.5 81.5v515h88v-518q0 -81 -57.5 -138t-137.5 -57h-8zM117 801l24 30q27 37 68 37q31 0 56 -17l29 -20q15 -11 27 -11q16 0 26 14l20 26l49 -39
l-25 -33q-25 -35 -65 -35q-34 0 -55 15l-30 20q-18 12 -28 12q-16 0 -24 -10l-22 -29z" />
    <glyph glyph-name="utilde" unicode="&#x169;" horiz-adv-x="489" 
d="M434 508v-508h-87v508h87zM317 108v-87q-37 -28 -93 -28h-40q-56 0 -95 41t-39 95v379h89v-349q0 -37 18 -62t52 -25h36q38 0 72 36zM93 608l24 30q27 37 68 37q31 0 56 -17l29 -20q15 -11 27 -11q16 0 26 14l20 26l49 -39l-25 -33q-25 -35 -65 -35q-34 0 -55 15l-30 20
q-18 12 -28 12q-16 0 -24 -10l-22 -29z" />
    <glyph glyph-name="Umacron" unicode="&#x16a;" horiz-adv-x="534" 
d="M252 72v-82h-7q-81 0 -138.5 57t-57.5 138v518h88v-515q0 -48 32.5 -81.5t82.5 -34.5zM282 -10v82q50 1 82.5 34.5t32.5 81.5v515h88v-518q0 -81 -57.5 -138t-137.5 -57h-8zM139 771v68h255v-68h-255z" />
    <glyph glyph-name="umacron" unicode="&#x16b;" horiz-adv-x="489" 
d="M434 508v-508h-87v508h87zM317 108v-87q-37 -28 -93 -28h-40q-56 0 -95 41t-39 95v379h89v-349q0 -37 18 -62t52 -25h36q38 0 72 36zM115 578v68h255v-68h-255z" />
    <glyph glyph-name="Ubreve" unicode="&#x16c;" horiz-adv-x="534" 
d="M282 -10v82q50 1 82.5 34.5t32.5 81.5v515h88v-518q0 -81 -57.5 -138t-137.5 -57h-8zM252 72v-82h-7q-81 0 -138.5 57t-57.5 138v518h88v-515q0 -48 32.5 -81.5t82.5 -34.5zM150 843v24h60v-24q0 -19 13.5 -32.5t32.5 -13.5h21q19 0 32.5 13.5t13.5 32.5v24h61v-24
q0 -43 -30 -72.5t-72 -29.5h-30q-43 0 -72.5 29.5t-29.5 72.5z" />
    <glyph glyph-name="ubreve" unicode="&#x16d;" horiz-adv-x="489" 
d="M317 108v-87q-37 -28 -93 -28h-40q-56 0 -95 41t-39 95v379h89v-349q0 -37 18 -62t52 -25h36q38 0 72 36zM434 508v-508h-87v508h87zM228 548q-43 0 -72.5 29.5t-29.5 72.5v24h60v-24q0 -18 13.5 -32t32.5 -14h21q19 0 32.5 14t13.5 32v24h61v-24q0 -43 -30 -72.5
t-72 -29.5h-30z" />
    <glyph glyph-name="Uring" unicode="&#x16e;" horiz-adv-x="534" 
d="M259 731q-31 0 -53.5 22t-22.5 53v15q0 31 22.5 52.5t53.5 21.5h16q31 0 53 -21.5t22 -52.5v-15q0 -31 -22 -53t-53 -22h-16zM262 782h10q10 0 18 8t8 18v10q0 10 -8 18t-18 8h-10q-10 0 -18 -8t-8 -18v-10q0 -10 8 -18t18 -8zM252 72v-82h-7q-81 0 -138.5 57t-57.5 138
v518h88v-515q0 -48 32.5 -81.5t82.5 -34.5zM282 -10v82q50 1 82.5 34.5t32.5 81.5v515h88v-518q0 -81 -57.5 -138t-137.5 -57h-8z" />
    <glyph glyph-name="uring" unicode="&#x16f;" horiz-adv-x="489" 
d="M235 538q-31 0 -53.5 22t-22.5 53v15q0 31 22.5 52.5t53.5 21.5h16q31 0 53 -21.5t22 -52.5v-15q0 -31 -22 -53t-53 -22h-16zM238 589h10q10 0 18 8t8 18v10q0 10 -8 18t-18 8h-10q-10 0 -18 -7.5t-8 -18.5v-10q0 -10 8 -18t18 -8zM434 508v-508h-87v508h87zM317 108v-87
q-37 -28 -93 -28h-40q-56 0 -95 41t-39 95v379h89v-349q0 -37 18 -62t52 -25h36q38 0 72 36z" />
    <glyph glyph-name="Uhungarumlaut" unicode="&#x170;" horiz-adv-x="534" 
d="M328 737l-54 29l66 111l54 -30zM196 741l-53 29l66 110l54 -29zM252 72v-82h-7q-81 0 -138.5 57t-57.5 138v518h88v-515q0 -48 32.5 -81.5t82.5 -34.5zM282 -10v82q50 1 82.5 34.5t32.5 81.5v515h88v-518q0 -81 -57.5 -138t-137.5 -57h-8z" />
    <glyph glyph-name="uhungarumlaut" unicode="&#x171;" horiz-adv-x="489" 
d="M434 508v-508h-87v508h87zM317 108v-87q-37 -28 -93 -28h-40q-56 0 -95 41t-39 95v379h89v-349q0 -37 18 -62t52 -25h36q38 0 72 36zM317 543l-54 29l66 111l54 -30zM185 547l-53 29l66 110l54 -29z" />
    <glyph glyph-name="Uogonek" unicode="&#x172;" horiz-adv-x="534" 
d="M222 -111q0 29 16.5 49.5t43.5 25.5v108q50 1 82.5 34.5t32.5 81.5v515h88v-518q0 -68 -41.5 -120.5t-105.5 -68.5v-83h-30q-10 -1 -16.5 -8.5t-6.5 -17.5v-7q0 -10 7.5 -18t18.5 -8h27v-55h-40q-31 0 -53.5 23t-22.5 55v12zM252 72v-82h-7q-81 0 -138.5 57t-57.5 138
v518h88v-515q0 -48 32.5 -81.5t82.5 -34.5z" />
    <glyph glyph-name="uogonek" unicode="&#x173;" horiz-adv-x="489" 
d="M434 508v-595h-30q-10 -1 -16.5 -8.5t-6.5 -17.5v-7q0 -10 7.5 -18t18.5 -8h27v-55h-40q-31 0 -53.5 23t-22.5 55v12q0 29 16.5 49.5t43.5 25.5v36h-31v508h87zM317 108v-87q-37 -28 -93 -28h-40q-56 0 -95 41t-39 95v379h89v-349q0 -37 18 -62t52 -25h36q38 0 72 36z
" />
    <glyph glyph-name="Wcircumflex" unicode="&#x174;" horiz-adv-x="745" 
d="M421 703l134 -703h-78l-105 532l-108 -519l-34 187l100 503h91zM112 703l126 -703h-82l-130 703h86zM587 3l-40 206l91 494h84zM262 759l-31 52l143 87l143 -87l-31 -52l-112 68z" />
    <glyph glyph-name="wcircumflex" unicode="&#x175;" horiz-adv-x="654" 
d="M371 508l129 -508h-79l-94 360l-86 -351l-36 163l79 336h87zM104 508l113 -508h-84l-113 508h84zM527 1l-44 169l74 338h84zM215 553l-31 52l143 87l143 -87l-31 -52l-112 69z" />
    <glyph glyph-name="Ycircumflex" unicode="&#x176;" horiz-adv-x="450" 
d="M283 315l-44 95l130 293h86zM82 703l187 -427v-276h-88v283l-186 420h87zM112 746l-31 52l143 87l143 -87l-31 -52l-112 68z" />
    <glyph glyph-name="ycircumflex" unicode="&#x177;" horiz-adv-x="418" 
d="M17 -196v75h69q36 0 54 18.5t31 57.5l159 553h88l-161 -556q-26 -89 -65.5 -118.5t-103.5 -29.5h-71zM195 136l-39 -136h-9l-147 508h88zM97 553l-31 52l143 87l143 -87l-31 -52l-112 69z" />
    <glyph glyph-name="Ydieresis" unicode="&#x178;" horiz-adv-x="450" 
d="M283 315l-44 95l130 293h86zM82 703l187 -427v-276h-88v283l-186 420h87zM264 763v82h70v-82h-70zM116 763v82h71v-82h-71z" />
    <glyph glyph-name="Zacute" unicode="&#x179;" horiz-adv-x="419" 
d="M101 0l41 79h265v-79h-306zM313 703l-41 -79h-247v79h288zM11 68l331 635h65v-56l-338 -647h-58v68zM187 734l-32 56l158 95l34 -58z" />
    <glyph glyph-name="zacute" unicode="&#x17a;" horiz-adv-x="401" 
d="M173 541l-33 55l158 95l35 -57zM113 0l54 79h215v-79h-269zM290 508l-53 -79h-212v79h265zM21 62l300 446h59v-56l-301 -452h-58v62z" />
    <glyph glyph-name="Zdotaccent" unicode="&#x17b;" horiz-adv-x="419" 
d="M173 764v82h84v-82h-84zM101 0l41 79h265v-79h-306zM313 703l-41 -79h-247v79h288zM11 68l331 635h65v-56l-338 -647h-58v68z" />
    <glyph glyph-name="zdotaccent" unicode="&#x17c;" horiz-adv-x="401" 
d="M113 0l54 79h215v-79h-269zM290 508l-53 -79h-212v79h265zM21 62l300 446h59v-56l-301 -452h-58v62zM159 571v82h84v-82h-84z" />
    <glyph glyph-name="Zcaron" unicode="&#x17d;" horiz-adv-x="419" 
d="M101 0l41 79h265v-79h-306zM313 703l-41 -79h-247v79h288zM11 68l331 635h65v-56l-338 -647h-58v68zM215 737l-143 87l30 52l113 -69l112 69l31 -52z" />
    <glyph glyph-name="zcaron" unicode="&#x17e;" horiz-adv-x="401" 
d="M201 544l-143 87l30 52l113 -68l112 68l31 -52zM113 0l54 79h215v-79h-269zM290 508l-53 -79h-212v79h265zM21 62l300 446h59v-56l-301 -452h-58v62z" />
    <glyph glyph-name="uni018F" unicode="&#x18f;" horiz-adv-x="531" 
d="M281 632v81h9q82 0 140.5 -58.5t58.5 -140.5v-325q0 -82 -58.5 -140.5t-140.5 -58.5h-9v80q51 1 85.5 36t34.5 84v87h-274v-87q0 -50 34.5 -85t89.5 -35v-80h-11q-82 0 -140.5 58t-58.5 141v166h360v157q0 49 -34 84t-86 36zM130 463h-88v51q0 82 58.5 140.5t141.5 58.5
h9v-81q-52 -1 -86.5 -35.5t-34.5 -84.5v-49z" />
    <glyph glyph-name="florin" unicode="&#x192;" horiz-adv-x="327" 
d="M19 320v64h99v191q0 54 38 91t92 37h68v-84h-45q-27 0 -46 -19.5t-19 -46.5v-169h110v-64h-297zM118 290h88v-162q0 -54 -38 -91t-92 -37h-67v85h44q27 0 46 19.5t19 45.5v140z" />
    <glyph glyph-name="uni01D3" unicode="&#x1d3;" horiz-adv-x="534" 
d="M252 72v-82h-7q-81 0 -138.5 57t-57.5 138v518h88v-515q0 -48 32.5 -81.5t82.5 -34.5zM282 -10v82q50 1 82.5 34.5t32.5 81.5v515h88v-518q0 -81 -57.5 -138t-137.5 -57h-8zM267 737l-143 87l30 52l113 -69l112 69l31 -52z" />
    <glyph glyph-name="uni01D4" unicode="&#x1d4;" horiz-adv-x="489" 
d="M243 544l-143 87l30 52l113 -68l112 68l31 -52zM434 508v-508h-87v508h87zM317 108v-87q-37 -28 -93 -28h-40q-56 0 -95 41t-39 95v379h89v-349q0 -37 18 -62t52 -25h36q38 0 72 36z" />
    <glyph glyph-name="AEmacron" unicode="&#x1e2;" horiz-adv-x="671" 
d="M324 703l-155 -433h99v-76h-123l-72 -194h-85l256 703h80zM412 0v79h225v-79h-225zM412 624v79h225v-79h-225zM382 703v-312h243v-79h-243v-312h-84v553l55 150h29zM273 771v68h255v-68h-255z" />
    <glyph glyph-name="aemacron" unicode="&#x1e3;" horiz-adv-x="748" 
d="M245 438v77h9q36 0 66 -16.5t48 -43.5q53 60 123 60h17v-72q-47 1 -72.5 -29t-25.5 -72v-8h223v8q0 43 -24.5 71.5t-70.5 29.5v72h12q70 0 118 -49t48 -120v-78h-306v-99q0 -44 24 -74t73 -31v-71h-12q-69 0 -119.5 46.5t-50.5 115.5v32h-140q-31 0 -51.5 -15t-20.5 -44
q0 -66 70 -66h40q52 0 81 37q5 -38 36 -63q-45 -42 -117 -42h-69q-52 0 -91 34t-39 95q0 59 35.5 96t98.5 37h167v91q0 36 -22.5 63t-57.5 28zM537 -7v71q47 1 71 31.5t24 75.5v24h84v-29q0 -74 -47 -123.5t-118 -49.5h-14zM215 515v-78q-40 -1 -63 -28t-23 -63v-23h-83v37
q0 64 44 109.5t112 45.5h13zM240 578v68h255v-68h-255z" />
    <glyph glyph-name="AEacute" unicode="&#x1fc;" horiz-adv-x="671" 
d="M324 703l-155 -433h99v-76h-123l-72 -194h-85l256 703h80zM412 0v79h225v-79h-225zM412 624v79h225v-79h-225zM382 703v-312h243v-79h-243v-312h-84v553l55 150h29zM373 734l-32 56l158 95l34 -58z" />
    <glyph glyph-name="aeacute" unicode="&#x1fd;" horiz-adv-x="748" 
d="M339 541l-33 55l158 95l35 -57zM245 438v77h9q36 0 66 -16.5t48 -43.5q53 60 123 60h17v-72q-47 1 -72.5 -29t-25.5 -72v-8h223v8q0 43 -24.5 71.5t-70.5 29.5v72h12q70 0 118 -49t48 -120v-78h-306v-99q0 -44 24 -74t73 -31v-71h-12q-69 0 -119.5 46.5t-50.5 115.5v32
h-140q-31 0 -51.5 -15t-20.5 -44q0 -66 70 -66h40q52 0 81 37q5 -38 36 -63q-45 -42 -117 -42h-69q-52 0 -91 34t-39 95q0 59 35.5 96t98.5 37h167v91q0 36 -22.5 63t-57.5 28zM537 -7v71q47 1 71 31.5t24 75.5v24h84v-29q0 -74 -47 -123.5t-118 -49.5h-14zM215 515v-78
q-40 -1 -63 -28t-23 -63v-23h-83v37q0 64 44 109.5t112 45.5h13z" />
    <glyph glyph-name="Oslashacute" unicode="&#x1fe;" horiz-adv-x="526" 
d="M248 713v-81q-50 -1 -84 -36t-34 -84v-321q0 -49 34 -84t84 -36v-81h-6q-60 0 -112 34l-43 -80l-66 35l53 102q-32 47 -32 108v325q0 82 58.5 140.5t141.5 58.5h6zM278 632v81h6q61 0 112 -35l42 81l68 -36l-55 -102q32 -50 32 -107v-325q0 -83 -58.5 -141t-140.5 -58h-6
v81q50 1 83.5 36t33.5 84v321q0 49 -33.5 84t-83.5 36zM235 734l-32 56l158 95l34 -58z" />
    <glyph glyph-name="oslashacute" unicode="&#x1ff;" horiz-adv-x="477" 
d="M224 515v-77q-49 -1 -74 -31t-25 -74v-159q0 -43 25 -73.5t74 -31.5v-76h-19q-30 0 -60 11l-45 -85l-57 31l46 90q-51 49 -51 124v180q0 71 48.5 121t118.5 50h19zM254 438v77h18q32 0 64 -13l41 80l60 -31l-46 -87q48 -50 48 -120v-180q0 -71 -48.5 -121t-118.5 -50h-18
v76q49 1 73.5 31.5t24.5 73.5v159q0 44 -24.5 74t-73.5 31zM209 541l-33 55l158 95l35 -57z" />
    <glyph glyph-name="Scommaaccent" unicode="&#x218;" horiz-adv-x="502" 
d="M225 -28l70 -17l-41 -150l-69 17zM268 634v79h10q78 0 129.5 -55t51.5 -135v-47h-85v46q0 46 -29 78.5t-77 33.5zM236 69v-79h-16q-79 0 -133 55t-54 134v46h86v-45q0 -44 32 -77t85 -34zM266 -10v79q55 1 85 33t30 82v19q0 50 -29.5 80.5t-93.5 30.5h-19q-91 0 -145 55
t-54 131v33q0 76 54.5 128t132.5 52h11v-79q-49 -1 -79.5 -30.5t-30.5 -73.5v-21q0 -50 31 -83t92 -33h21q97 0 147 -51t50 -134v-28q0 -80 -52.5 -135t-133.5 -55h-17z" />
    <glyph glyph-name="scommaaccent" unicode="&#x219;" horiz-adv-x="452" 
d="M203 -28l70 -17l-41 -150l-69 17zM242 442v73h13q70 0 114 -40.5t44 -97.5v-35h-86v26q0 32 -21.5 52.5t-63.5 21.5zM212 515v-73q-42 -1 -62.5 -19t-20.5 -48v-6q0 -74 99 -74h19q81 0 128.5 -38.5t47.5 -99.5v-25q0 -59 -44.5 -99t-111.5 -40h-25v73q92 3 92 68v7
q0 34 -24 54.5t-75 20.5h-18q-82 0 -129 37.5t-47 101.5v18q0 60 43.5 101t115.5 41h12zM212 66v-73h-23q-70 0 -114 39.5t-44 95.5v42h86v-28q0 -33 23 -54t72 -22z" />
    <glyph glyph-name="uni021A" unicode="&#x21a;" horiz-adv-x="417" 
d="M184 -28l70 -17l-41 -150l-69 17zM282 624v79h145v-79h-145zM252 703v-703h-87v624h-175v79h262z" />
    <glyph glyph-name="uni021B" unicode="&#x21b;" horiz-adv-x="404" 
d="M217 68v-75h-14q-55 0 -93 38.5t-38 88.5v312h-63v76h63v87h86v-451q0 -30 15.5 -53t43.5 -23zM247 -7v75q64 4 64 78v31h81v-50q0 -55 -38.5 -94.5t-94.5 -39.5h-12zM188 432v76h199v-76h-199zM204 -28l70 -17l-41 -150l-69 17z" />
    <glyph glyph-name="dotlessj" unicode="&#x237;" horiz-adv-x="200" 
d="M145 -17h-88v525h88v-525zM57 -42h88q2 -68 -35.5 -111t-98.5 -43h-72v75h49q65 0 69 79z" />
    <glyph glyph-name="schwa" unicode="&#x259;" horiz-adv-x="460" 
d="M246 444v71h14q71 0 119 -49t48 -122v-182q0 -70 -49.5 -119.5t-120.5 -49.5h-12v71q51 1 75 29.5t24 72.5v8h-225v-8q0 -44 23.5 -72.5t72.5 -29.5v-71h-11q-70 0 -119 49t-49 120v78h308v99q0 44 -24.5 74t-73.5 31zM216 515v-71q-47 -1 -71.5 -31.5t-24.5 -75.5v-24
h-84v29q0 74 47 123.5t118 49.5h15z" />
    <glyph glyph-name="circumflex" unicode="&#x2c6;" horiz-adv-x="302" 
d="M39 553l-31 52l143 87l143 -87l-31 -52l-112 69z" />
    <glyph glyph-name="caron" unicode="&#x2c7;" horiz-adv-x="302" 
d="M151 544l-143 87l30 52l113 -68l112 68l31 -52z" />
    <glyph glyph-name="breve" unicode="&#x2d8;" horiz-adv-x="302" 
d="M34 650v24h60v-24q0 -18 13.5 -32t32.5 -14h21q19 0 32.5 14t13.5 32v24h61v-24q0 -43 -30 -72.5t-72 -29.5h-30q-43 0 -72.5 29.5t-29.5 72.5z" />
    <glyph glyph-name="dotaccent" unicode="&#x2d9;" horiz-adv-x="302" 
d="M109 571v82h84v-82h-84z" />
    <glyph glyph-name="ring" unicode="&#x2da;" horiz-adv-x="302" 
d="M143 538q-31 0 -53.5 22t-22.5 53v15q0 31 22.5 52.5t53.5 21.5h16q31 0 53 -21.5t22 -52.5v-15q0 -31 -22 -53t-53 -22h-16zM146 589h10q10 0 18 8t8 18v10q0 10 -8 18t-18 8h-10q-10 0 -18 -7.5t-8 -18.5v-10q0 -10 8 -18t18 -8z" />
    <glyph glyph-name="ogonek" unicode="&#x2db;" horiz-adv-x="302" 
d="M70 -111q0 29 16.5 49.5t43.5 25.5v42h56v-93h-30q-10 -1 -16.5 -8.5t-6.5 -17.5v-7q0 -10 7.5 -18t18.5 -8h27v-55h-40q-31 0 -53.5 23t-22.5 55v12z" />
    <glyph glyph-name="tilde" unicode="&#x2dc;" horiz-adv-x="302" 
d="M1 608l24 30q27 37 68 37q31 0 56 -17l29 -20q15 -11 27 -11q16 0 26 14l20 26l49 -39l-25 -33q-25 -35 -65 -35q-34 0 -55 15l-30 20q-18 12 -28 12q-16 0 -24 -10l-22 -29z" />
    <glyph glyph-name="hungarumlaut" unicode="&#x2dd;" horiz-adv-x="302" 
d="M225 543l-54 29l66 111l54 -30zM93 547l-53 29l66 110l54 -29z" />
    <glyph glyph-name="Delta" unicode="&#x394;" horiz-adv-x="488" 
d="M361 78l22 -78h-377v64l185 633l38 -140l-138 -479h270zM413 0l-196 703h80l185 -639v-64h-69z" />
    <glyph glyph-name="Delta" unicode="&#x2206;" horiz-adv-x="488" 
d="M361 78l22 -78h-377v64l185 633l38 -140l-138 -479h270zM413 0l-196 703h80l185 -639v-64h-69z" />
    <glyph glyph-name="Sigma" unicode="&#x3a3;" horiz-adv-x="399" 
d="M96 0l48 79h243v-79h-291zM144 624l-48 79h291v-79h-243zM68 703l213 -351l-213 -352h-54v64l170 288l-170 288v63h54z" />
    <glyph glyph-name="Omega" unicode="&#x3a9;" horiz-adv-x="545" 
d="M50 514q0 82 58.5 140.5t141.5 58.5h6v-81q-50 -1 -84 -36t-34 -84v-315q0 -44 23 -77.5t58 -45.5v-74h-172v74h50q-29 27 -38 62.5t-9 91.5v286zM492 228q0 -99 -47 -154h49v-74h-171v74q35 12 58 46t23 78v314q0 49 -34 84t-84 36v81h6q83 0 141.5 -58.5t58.5 -140.5
v-286z" />
    <glyph glyph-name="Omega" unicode="&#x2126;" horiz-adv-x="545" 
d="M50 514q0 82 58.5 140.5t141.5 58.5h6v-81q-50 -1 -84 -36t-34 -84v-315q0 -44 23 -77.5t58 -45.5v-74h-172v74h50q-29 27 -38 62.5t-9 91.5v286zM492 228q0 -99 -47 -154h49v-74h-171v74q35 12 58 46t23 78v314q0 49 -34 84t-84 36v81h6q83 0 141.5 -58.5t58.5 -140.5
v-286z" />
    <glyph glyph-name="pi" unicode="&#x3c0;" horiz-adv-x="546" 
d="M359 703v-79h-202v-624h-88v624h-51v79h341zM389 0v703h139v-79h-51v-624h-88z" />
    <glyph glyph-name="uni1E46" unicode="&#x1e46;" horiz-adv-x="549" 
d="M234 -118v82h84v-82h-84zM494 97l-84 155v451h84v-606zM136 703l358 -660v-43h-67l-289 528v-528h-84v703h82z" />
    <glyph glyph-name="uni1E47" unicode="&#x1e47;" horiz-adv-x="490" 
d="M205 -118v82h84v-82h-84zM54 0v508h88v-508h-88zM172 400v86q35 29 92 29h40q55 0 95.5 -39t40.5 -101v-375h-89v349q0 36 -18.5 61.5t-52.5 25.5h-36q-42 0 -72 -36z" />
    <glyph glyph-name="uni1E62" unicode="&#x1e62;" horiz-adv-x="502" 
d="M268 634v79h10q78 0 129.5 -55t51.5 -135v-47h-85v46q0 46 -29 78.5t-77 33.5zM236 69v-79h-16q-79 0 -133 55t-54 134v46h86v-45q0 -44 32 -77t85 -34zM266 -10v79q55 1 85 33t30 82v19q0 50 -29.5 80.5t-93.5 30.5h-19q-91 0 -145 55t-54 131v33q0 76 54.5 128
t132.5 52h11v-79q-49 -1 -79.5 -30.5t-30.5 -73.5v-21q0 -50 31 -83t92 -33h21q97 0 147 -51t50 -134v-28q0 -80 -52.5 -135t-133.5 -55h-17zM207 -118v82h84v-82h-84z" />
    <glyph glyph-name="uni1E63" unicode="&#x1e63;" horiz-adv-x="452" 
d="M242 442v73h13q70 0 114 -40.5t44 -97.5v-35h-86v26q0 32 -21.5 52.5t-63.5 21.5zM212 515v-73q-42 -1 -62.5 -19t-20.5 -48v-6q0 -74 99 -74h19q81 0 128.5 -38.5t47.5 -99.5v-25q0 -59 -44.5 -99t-111.5 -40h-25v73q92 3 92 68v7q0 34 -24 54.5t-75 20.5h-18
q-82 0 -129 37.5t-47 101.5v18q0 60 43.5 101t115.5 41h12zM212 66v-73h-23q-70 0 -114 39.5t-44 95.5v42h86v-28q0 -33 23 -54t72 -22zM185 -118v82h84v-82h-84z" />
    <glyph glyph-name="Wgrave" unicode="&#x1e80;" horiz-adv-x="745" 
d="M421 703l134 -703h-78l-105 532l-108 -519l-34 187l100 503h91zM112 703l126 -703h-82l-130 703h86zM587 3l-40 206l91 494h84zM429 748l-160 93l33 58l159 -95z" />
    <glyph glyph-name="wgrave" unicode="&#x1e81;" horiz-adv-x="654" 
d="M371 508l129 -508h-79l-94 360l-86 -351l-36 163l79 336h87zM104 508l113 -508h-84l-113 508h84zM527 1l-44 169l74 338h84zM382 542l-160 93l34 57l159 -95z" />
    <glyph glyph-name="Wacute" unicode="&#x1e82;" horiz-adv-x="745" 
d="M421 703l134 -703h-78l-105 532l-108 -519l-34 187l100 503h91zM112 703l126 -703h-82l-130 703h86zM587 3l-40 206l91 494h84zM346 747l-32 56l158 95l34 -58z" />
    <glyph glyph-name="wacute" unicode="&#x1e83;" horiz-adv-x="654" 
d="M371 508l129 -508h-79l-94 360l-86 -351l-36 163l79 336h87zM104 508l113 -508h-84l-113 508h84zM527 1l-44 169l74 338h84zM298 541l-33 55l158 95l35 -57z" />
    <glyph glyph-name="Wdieresis" unicode="&#x1e84;" horiz-adv-x="745" 
d="M421 703l134 -703h-78l-105 532l-108 -519l-34 187l100 503h91zM112 703l126 -703h-82l-130 703h86zM587 3l-40 206l91 494h84zM266 776v82h71v-82h-71zM414 776v82h70v-82h-70z" />
    <glyph glyph-name="wdieresis" unicode="&#x1e85;" horiz-adv-x="654" 
d="M371 508l129 -508h-79l-94 360l-86 -351l-36 163l79 336h87zM104 508l113 -508h-84l-113 508h84zM527 1l-44 169l74 338h84zM219 571v82h71v-82h-71zM367 571v82h70v-82h-70z" />
    <glyph glyph-name="uni1EBC" unicode="&#x1ebc;" horiz-adv-x="435" 
d="M172 0v79h231v-79h-231zM172 624v79h231v-79h-231zM142 703v-312h249v-79h-249v-312h-88v703h88zM76 801l24 30q27 37 68 37q30 0 56 -17l29 -20q15 -11 27 -11q16 0 26 14l20 26l49 -39l-25 -33q-25 -35 -65 -35q-34 0 -55 15l-30 20q-18 12 -28 12q-16 0 -24 -10
l-22 -29z" />
    <glyph glyph-name="uni1EBD" unicode="&#x1ebd;" horiz-adv-x="460" 
d="M219 64v-71h-14q-71 0 -119 49t-48 122v182q0 70 49.5 119.5t120.5 49.5h12v-71q-51 -1 -75 -29.5t-24 -72.5v-8h223v8q0 44 -22.5 72.5t-71.5 29.5v71h11q70 0 118 -49t48 -120v-78h-306v-99q0 -44 24.5 -74t73.5 -31zM83 608l24 30q27 37 68 37q31 0 56 -17l29 -20
q15 -11 27 -11q16 0 26 14l20 26l49 -39l-25 -33q-25 -35 -65 -35q-34 0 -55 15l-30 20q-18 12 -28 12q-16 0 -24 -10l-22 -29zM249 -7v71q47 1 70.5 31.5t23.5 75.5v24h84v-29q0 -74 -46.5 -123.5t-116.5 -49.5h-15z" />
    <glyph glyph-name="Ygrave" unicode="&#x1ef2;" horiz-adv-x="450" 
d="M283 315l-44 95l130 293h86zM82 703l187 -427v-276h-88v283l-186 420h87zM279 735l-160 93l33 58l159 -95z" />
    <glyph glyph-name="ygrave" unicode="&#x1ef3;" horiz-adv-x="418" 
d="M17 -196v75h69q36 0 54 18.5t31 57.5l159 553h88l-161 -556q-26 -89 -65.5 -118.5t-103.5 -29.5h-71zM195 136l-39 -136h-9l-147 508h88zM264 542l-160 93l34 57l159 -95z" />
    <glyph glyph-name="thinspace" unicode="&#x2009;" horiz-adv-x="0" 
 />
    <glyph glyph-name="endash" unicode="&#x2013;" horiz-adv-x="340" 
d="M16 217v76h307v-76h-307z" />
    <glyph glyph-name="emdash" unicode="&#x2014;" horiz-adv-x="466" 
d="M16 217v76h434v-76h-434z" />
    <glyph glyph-name="quoteleft" unicode="&#x2018;" horiz-adv-x="146" 
d="M110 538h-74v232h74v-232z" />
    <glyph glyph-name="quoteright" unicode="&#x2019;" horiz-adv-x="146" 
d="M110 538h-74v232h74v-232z" />
    <glyph glyph-name="quotesinglbase" unicode="&#x201a;" horiz-adv-x="146" 
d="M110 -104h-74v232h74v-232z" />
    <glyph glyph-name="quotedblleft" unicode="&#x201c;" horiz-adv-x="267" 
d="M110 538h-74v232h74v-232zM231 538h-74v232h74v-232z" />
    <glyph glyph-name="quotedblright" unicode="&#x201d;" horiz-adv-x="267" 
d="M110 538h-74v232h74v-232zM231 538h-74v232h74v-232z" />
    <glyph glyph-name="quotedblbase" unicode="&#x201e;" horiz-adv-x="267" 
d="M110 -104h-74v232h74v-232zM231 -104h-74v232h74v-232z" />
    <glyph glyph-name="dagger" unicode="&#x2020;" horiz-adv-x="392" 
d="M270 445v82h122v-82h-122zM240 703v-703h-88v445h-152v82h152v176h88z" />
    <glyph glyph-name="daggerdbl" unicode="&#x2021;" horiz-adv-x="438" 
d="M263 703v-445h152v-81h-152v-177h-88v445h-152v82h152v176h88zM293 445v82h122v-82h-122zM145 258v-81h-122v81h122z" />
    <glyph glyph-name="bullet" unicode="&#x2022;" horiz-adv-x="242" 
d="M105 150q-37 0 -63.5 26t-26.5 64v31q0 37 26.5 63t63.5 26h32q37 0 63 -26t26 -63v-31q0 -37 -26 -63.5t-63 -26.5h-32z" />
    <glyph glyph-name="ellipsis" unicode="&#x2026;" horiz-adv-x="447" 
d="M331 0v87h81v-87h-81zM183 0v87h81v-87h-81zM36 0v87h80v-87h-80z" />
    <glyph glyph-name="perthousand" unicode="&#x2030;" horiz-adv-x="882" 
d="M70 0l385 703h83l-385 -703h-83zM135 374q-47 0 -80 33t-33 80v109q0 47 33 80t80 33v-65q-20 -1 -33.5 -16.5t-13.5 -36.5v-100q0 -20 13.5 -35.5t33.5 -16.5v-65zM165 374v65q20 1 33.5 16t13.5 36v100q0 21 -13.5 36t-33.5 17v65q47 0 80 -33t33 -80v-109
q0 -47 -33 -80t-80 -33zM444 -6q-47 0 -80.5 33t-33.5 80v109q0 47 33.5 80t80.5 33v-65q-20 -2 -34 -17t-14 -36v-100q0 -20 14 -35.5t34 -16.5v-65zM474 -6v65q19 1 33 16t14 36v100q0 21 -14 36t-33 17v65q47 0 80 -33t33 -80v-109q0 -47 -33 -80t-80 -33zM734 -6
q-47 0 -80.5 33t-33.5 80v109q0 47 33.5 80t80.5 33v-65q-20 -2 -34 -17t-14 -36v-100q0 -20 14 -35.5t34 -16.5v-65zM764 -6v65q19 1 33 16t14 36v100q0 21 -14 36t-33 17v65q47 0 80 -33t33 -80v-109q0 -47 -33 -80t-80 -33z" />
    <glyph glyph-name="guilsinglleft" unicode="&#x2039;" horiz-adv-x="198" 
d="M93 122l-80 129v8l80 129h89l-83 -133l83 -133h-89z" />
    <glyph glyph-name="guilsinglright" unicode="&#x203a;" horiz-adv-x="198" 
d="M16 122l83 133l-83 133h89l80 -129v-8l-80 -129h-89z" />
    <glyph glyph-name="fraction" unicode="&#x2044;" horiz-adv-x="14" 
d="M-226 0l385 703h83l-385 -703h-83z" />
    <glyph glyph-name="zerosuperior" unicode="&#x2070;" horiz-adv-x="301" 
d="M279 493q0 -47 -33 -80t-79 -33h-32q-47 0 -80 33t-33 80v104q0 46 33 79t80 33h32q46 0 79 -33t33 -79v-104zM89 592v-95q0 -22 15.5 -38.5t36.5 -16.5h19q22 0 37.5 16.5t15.5 38.5v95q0 22 -15.5 38.5t-37.5 16.5h-19q-21 0 -36.5 -16.5t-15.5 -38.5z" />
    <glyph glyph-name="foursuperior" unicode="&#x2074;" horiz-adv-x="301" 
d="M288 453h-49v-67h-66v67h-158v48l137 202h87v-193h49v-57zM174 639l-87 -129h87v129z" />
    <glyph glyph-name="fivesuperior" unicode="&#x2075;" horiz-adv-x="301" 
d="M28 470v20h65v-16q0 -18 13 -29.5t34 -11.5h21q21 0 34 12.5t13 30.5v14q0 41 -51 41h-125v172h239v-57h-176v-61h80q46 0 73.5 -27t27.5 -66v-19q0 -39 -27.5 -66t-71.5 -27h-49q-45 0 -72.5 26t-27.5 64z" />
    <glyph glyph-name="sixsuperior" unicode="&#x2076;" horiz-adv-x="301" 
d="M92 607v-39q26 10 57 10h33q41 0 67.5 -26t26.5 -63v-13q0 -41 -29 -68.5t-72 -27.5h-47q-44 0 -73 29.5t-29 71.5v122q0 44 29.5 75t73.5 31h44q43 0 71 -28.5t28 -68.5v-13h-63v11q0 22 -13.5 34.5t-35.5 12.5h-18q-21 0 -35.5 -14t-14.5 -36zM133 525q-18 0 -41 -7
v-39q0 -21 14 -34.5t35 -13.5h22q21 0 34 11t13 31v11q0 18 -12.5 29.5t-32.5 11.5h-32z" />
    <glyph glyph-name="sevensuperior" unicode="&#x2077;" horiz-adv-x="301" 
d="M61 386l133 260h-165v57h243v-52l-136 -265h-75z" />
    <glyph glyph-name="eightsuperior" unicode="&#x2078;" horiz-adv-x="301" 
d="M25 613v11q0 35 27 60t70 25h51q44 0 70.5 -24t26.5 -60v-14q0 -46 -42 -65q21 -7 33.5 -26.5t12.5 -41.5v-13q0 -35 -26 -60t-71 -25h-56q-45 0 -72 25.5t-27 59.5v13q0 47 44 68q-19 7 -30 26t-11 41zM158 520h-21q-23 0 -35 -11.5t-12 -26.5v-12q0 -16 11.5 -27.5
t31.5 -11.5h29q21 0 32.5 11.5t11.5 27.5v12q0 16 -12.5 27t-35.5 11zM204 609v12q0 16 -12 27t-32 11h-26q-19 0 -30.5 -11t-11.5 -27v-12q0 -15 11.5 -26.5t34.5 -11.5h19q21 0 34 12t13 26z" />
    <glyph glyph-name="ninesuperior" unicode="&#x2079;" horiz-adv-x="301" 
d="M209 483v41q-25 -10 -57 -10h-35q-40 0 -66 25t-26 62v13q0 42 28.5 68.5t72.5 26.5h48q44 0 73 -29t29 -71v-123q0 -44 -30 -75t-73 -31h-44q-43 0 -71.5 28.5t-28.5 68.5v14h63v-11q0 -22 14 -34.5t35 -12.5h19q21 0 35 14t14 36zM169 568q23 0 40 6v37q0 21 -13.5 34
t-34.5 13h-23q-21 0 -34 -10.5t-13 -30.5v-11q0 -18 13 -28t34 -10h31z" />
    <glyph glyph-name="n.superior" unicode="&#x207f;" horiz-adv-x="332" 
d="M185 646h-21q-23 0 -39 -17.5t-17 -39.5v-203h-68v317h67v-39q20 44 76 44h28q36 0 59 -26t23 -63v-233h-68v212q0 20 -10.5 34t-29.5 14z" />
    <glyph glyph-name="zeroinferior" unicode="&#x2080;" horiz-adv-x="301" 
d="M279 107q0 -47 -33 -80t-79 -33h-32q-47 0 -80 33t-33 80v104q0 46 33 79t80 33h32q46 0 79 -33t33 -79v-104zM89 206v-95q0 -22 15.5 -38.5t36.5 -16.5h19q22 0 37.5 16.5t15.5 38.5v95q0 22 -15.5 38.5t-37.5 16.5h-19q-21 0 -36.5 -16.5t-15.5 -38.5z" />
    <glyph glyph-name="oneinferior" unicode="&#x2081;" horiz-adv-x="301" 
d="M36 56h98v194l-105 -23v58l126 32h47v-261h80v-56h-246v56z" />
    <glyph glyph-name="twoinferior" unicode="&#x2082;" horiz-adv-x="301" 
d="M30 0v52l124 99q49 40 49 67v10q0 39 -42 39h-22q-20 0 -33.5 -12t-13.5 -31v-36h-61v37q0 41 29 69.5t72 28.5h44q41 0 69 -27t28 -65v-11q0 -48 -64 -99l-78 -64h149v-57h-250z" />
    <glyph glyph-name="threeinferior" unicode="&#x2083;" horiz-adv-x="301" 
d="M30 209v23q0 39 27 65t71 26h44q43 0 70.5 -25t27.5 -61v-15q0 -46 -44 -62q49 -18 49 -65v-13q0 -37 -27.5 -62.5t-72.5 -25.5h-48q-46 0 -73 25.5t-27 62.5v26h64v-22q0 -17 13 -27.5t36 -10.5h21q20 0 32.5 10.5t12.5 27.5v10q0 17 -14.5 27.5t-37.5 10.5h-52v50h50
q22 0 36.5 10.5t14.5 29.5v10q0 16 -12.5 26t-30.5 10h-20q-21 0 -33.5 -12t-12.5 -32v-17h-64z" />
    <glyph glyph-name="fourinferior" unicode="&#x2084;" horiz-adv-x="301" 
d="M288 67h-49v-67h-66v67h-158v48l137 202h87v-193h49v-57zM174 253l-87 -129h87v129z" />
    <glyph glyph-name="fiveinferior" unicode="&#x2085;" horiz-adv-x="301" 
d="M28 84v20h65v-16q0 -18 13 -29.5t34 -11.5h21q21 0 34 12.5t13 30.5v14q0 41 -51 41h-125v172h239v-57h-176v-61h80q46 0 73.5 -27t27.5 -66v-19q0 -39 -27.5 -66t-71.5 -27h-49q-45 0 -72.5 26t-27.5 64z" />
    <glyph glyph-name="sixinferior" unicode="&#x2086;" horiz-adv-x="301" 
d="M92 221v-39q26 10 57 10h33q41 0 67.5 -26t26.5 -63v-13q0 -41 -29 -68.5t-72 -27.5h-47q-44 0 -73 29.5t-29 71.5v122q0 44 29.5 75t73.5 31h44q43 0 71 -28.5t28 -68.5v-13h-63v11q0 22 -13.5 34.5t-35.5 12.5h-18q-21 0 -35.5 -14t-14.5 -36zM133 139q-18 0 -41 -7
v-39q0 -21 14 -34.5t35 -13.5h22q21 0 34 11t13 31v11q0 18 -12.5 29.5t-32.5 11.5h-32z" />
    <glyph glyph-name="seveninferior" unicode="&#x2087;" horiz-adv-x="301" 
d="M61 0l133 260h-165v57h243v-52l-136 -265h-75z" />
    <glyph glyph-name="eightinferior" unicode="&#x2088;" horiz-adv-x="301" 
d="M25 227v11q0 35 27 60t70 25h51q44 0 70.5 -24t26.5 -60v-14q0 -46 -42 -65q21 -7 33.5 -26.5t12.5 -41.5v-13q0 -35 -26 -60t-71 -25h-56q-45 0 -72 25.5t-27 59.5v13q0 47 44 68q-19 7 -30 26t-11 41zM158 134h-21q-23 0 -35 -11.5t-12 -26.5v-12q0 -16 11.5 -27.5
t31.5 -11.5h29q21 0 32.5 11.5t11.5 27.5v12q0 16 -12.5 27t-35.5 11zM204 223v12q0 16 -12 27t-32 11h-26q-19 0 -30.5 -11t-11.5 -27v-12q0 -15 11.5 -26.5t34.5 -11.5h19q21 0 34 12t13 26z" />
    <glyph glyph-name="nineinferior" unicode="&#x2089;" horiz-adv-x="301" 
d="M209 97v41q-25 -10 -57 -10h-35q-40 0 -66 25t-26 62v13q0 42 28.5 68.5t72.5 26.5h48q44 0 73 -29t29 -71v-123q0 -44 -30 -75t-73 -31h-44q-43 0 -71.5 28.5t-28.5 68.5v14h63v-11q0 -22 14 -34.5t35 -12.5h19q21 0 35 14t14 36zM169 182q23 0 40 6v37q0 21 -13.5 34
t-34.5 13h-23q-21 0 -34 -10.5t-13 -30.5v-11q0 -18 13 -28t34 -10h31z" />
    <glyph glyph-name="Euro" unicode="&#x20ac;" horiz-adv-x="560" 
d="M287 713v-81q-49 -1 -83 -36t-34 -84v-55h210v-64h-210v-82h210v-64h-210v-56q0 -49 34 -84t83 -36v-81h-6q-82 0 -140.5 58.5t-58.5 140.5v58h-63v64h63v82h-63v64h63v57q0 82 58.5 140.5t140.5 58.5h6zM523 449h-88v63q0 49 -34 84t-84 36v81h7q82 0 140.5 -58.5
t58.5 -140.5v-65zM435 254h88v-65q0 -83 -58.5 -141t-140.5 -58h-7v81q50 1 84 36t34 84v63z" />
    <glyph glyph-name="afii61289" unicode="&#x2113;" horiz-adv-x="341" 
d="M171 714v-70q-22 -3 -37 -20t-15 -39v-434q0 -32 22.5 -55t53.5 -23h94v-73h-106q-58 0 -98 40t-40 98v454q0 50 34.5 85.5t83.5 36.5h8zM201 644v70h8q50 -2 84.5 -37t34.5 -85v-60q0 -52 -14 -88.5t-51 -73.5l-114 -118v99l64 68q24 26 32 50t8 64v52q0 22 -15 39
t-37 20z" />
    <glyph glyph-name="afii61352" unicode="&#x2116;" horiz-adv-x="859" 
d="M688 709v-65q-23 -1 -37 -17t-14 -38v-138q0 -22 14.5 -38t36.5 -18v-65h-7q-47 0 -81 34t-34 82v148q0 48 34 81.5t81 33.5h7zM718 644v65h7q47 0 81 -33.5t34 -81.5v-148q0 -48 -34 -82t-81 -34h-7v65q21 1 35.5 17t14.5 39v138q0 22 -14.5 38t-35.5 17zM561 213v68
h284v-68h-284zM494 97l-84 155v451h84v-606zM136 703l358 -660v-43h-67l-289 528v-528h-84v703h82z" />
    <glyph glyph-name="uni2117" unicode="&#x2117;" horiz-adv-x="690" 
d="M361 -10v61h23q85 0 146 64.5t61 150.5v177q0 86 -61 148t-146 62h-23v61h26q112 0 191.5 -79.5t79.5 -190.5v-179q0 -112 -80 -193.5t-191 -81.5h-26zM331 51v-61h-28q-112 0 -191.5 79.5t-79.5 190.5v184q0 111 79.5 190.5t191.5 79.5h28v-61h-24q-86 0 -147 -62
t-61 -148v-182q0 -86 61 -148t147 -62h24zM298 557v-410h-68v410h68zM328 290v63h51q23 0 38.5 15.5t15.5 38.5v32q0 23 -15.5 39t-38.5 16h-51v63h56q49 0 84 -35t35 -85v-28q0 -49 -34.5 -84t-84.5 -35h-56z" />
    <glyph glyph-name="servicemark" unicode="&#x2120;" horiz-adv-x="686" 
d="M159 653v56h6q43 0 71.5 -29.5t28.5 -72.5v-25h-61v21q0 19 -12.5 34t-32.5 16zM128 385v-55h-10q-43 0 -72 29t-29 72v26h61v-22q0 -20 14 -34.5t36 -15.5zM158 330v55q21 0 35 14t14 35v9q0 47 -58 47h-14q-54 0 -85 30t-31 76v15q0 42 31 70t73 28h6v-56
q-20 -1 -33.5 -13.5t-13.5 -29.5v-9q0 -20 14 -35.5t41 -15.5h18q57 0 87 -28.5t30 -76.5v-10q0 -45 -30 -75t-75 -30h-9zM590 539l65 123v-327h-65v204zM649 703l-146 -283h-22l-145 283h66l92 -178l91 178h64zM329 664l65 -124v-205h-65v329z" />
    <glyph glyph-name="trademark" unicode="&#x2122;" horiz-adv-x="668" 
d="M572 539l65 123v-327h-65v204zM631 703l-146 -283h-22l-145 283h66l92 -178l91 178h64zM311 664l65 -124v-205h-65v329zM270 640h-270v63h270v-63zM100 610h70v-275h-70v275z" />
    <glyph glyph-name="estimated" unicode="&#x212e;" horiz-adv-x="514" 
d="M235 58q-87 0 -148.5 61.5t-61.5 148.5v168q0 87 61.5 148.5t148.5 61.5h44q87 0 149 -61.5t62 -148.5v-66h-374v-204q46 -57 120 -57h43q64 0 109.5 46t45.5 110v31h56v-28q0 -87 -62 -148.5t-149 -61.5h-44zM279 595h-43q-74 0 -120 -58v-115h283v115q-48 58 -120 58z
" />
    <glyph glyph-name="onethird" unicode="&#x2153;" horiz-adv-x="619" 
d="M75 0l385 703h83l-385 -703h-83zM347 209v23q0 39 27 65t71 26h44q43 0 70.5 -25t27.5 -61v-15q0 -46 -44 -62q49 -18 49 -65v-13q0 -37 -27.5 -62.5t-72.5 -25.5h-48q-46 0 -73 25.5t-27 62.5v26h64v-22q0 -17 13 -27.5t36 -10.5h21q20 0 32.5 10.5t12.5 27.5v10
q0 17 -14.5 27.5t-37.5 10.5h-52v50h50q22 0 36.5 10.5t14.5 29.5v10q0 16 -12.5 26t-30.5 10h-20q-21 0 -33.5 -12t-12.5 -32v-17h-64zM36 442h98v194l-105 -23v58l126 32h47v-261h80v-56h-246v56z" />
    <glyph glyph-name="twothirds" unicode="&#x2154;" horiz-adv-x="619" 
d="M347 209v23q0 39 27 65t71 26h44q43 0 70.5 -25t27.5 -61v-15q0 -46 -44 -62q49 -18 49 -65v-13q0 -37 -27.5 -62.5t-72.5 -25.5h-48q-46 0 -73 25.5t-27 62.5v26h64v-22q0 -17 13 -27.5t36 -10.5h21q20 0 32.5 10.5t12.5 27.5v10q0 17 -14.5 27.5t-37.5 10.5h-52v50h50
q22 0 36.5 10.5t14.5 29.5v10q0 16 -12.5 26t-30.5 10h-20q-21 0 -33.5 -12t-12.5 -32v-17h-64zM30 386v52l124 99q49 40 49 67v10q0 39 -42 39h-22q-20 0 -33.5 -12t-13.5 -31v-36h-61v37q0 41 29 69.5t72 28.5h44q41 0 69 -27t28 -65v-11q0 -48 -64 -99l-78 -64h149v-57
h-250zM75 0l385 703h83l-385 -703h-83z" />
    <glyph glyph-name="uni215B" unicode="&#x215b;" horiz-adv-x="619" 
d="M342 227v11q0 35 27 60t70 25h51q44 0 70.5 -24t26.5 -60v-14q0 -46 -42 -65q21 -7 33.5 -26.5t12.5 -41.5v-13q0 -35 -26 -60t-71 -25h-56q-45 0 -72 25.5t-27 59.5v13q0 47 44 68q-19 7 -30 26t-11 41zM75 0l385 703h83l-385 -703h-83zM36 442h98v194l-105 -23v58
l126 32h47v-261h80v-56h-246v56zM475 134h-21q-23 0 -35 -11.5t-12 -26.5v-12q0 -16 11.5 -27.5t31.5 -11.5h29q21 0 32.5 11.5t11.5 27.5v12q0 16 -12.5 27t-35.5 11zM521 223v12q0 16 -12 27t-32 11h-26q-19 0 -30.5 -11t-11.5 -27v-12q0 -15 11.5 -26.5t34.5 -11.5h19
q21 0 34 12t13 26z" />
    <glyph glyph-name="arrowleft" unicode="&#x2190;" horiz-adv-x="391" 
d="M193 136l-195 188l195 188l47 -47l-144 -141l144 -141zM163 286l-35 38l35 38h212v-76h-212z" />
    <glyph glyph-name="arrowup" unicode="&#x2191;" horiz-adv-x="404" 
d="M208 515l188 -195l-47 -47l-141 144l-141 -144l-47 47zM169 350l39 35l39 -35v-215h-78v215z" />
    <glyph glyph-name="arrowright" unicode="&#x2192;" horiz-adv-x="391" 
d="M393 324l-195 -188l-47 47l144 141l-144 141l47 47zM228 362l35 -38l-35 -38h-212v76h212z" />
    <glyph glyph-name="arrowdown" unicode="&#x2193;" horiz-adv-x="404" 
d="M396 322l-188 -195l-188 195l47 47l141 -144l141 144zM247 292l-39 -35l-39 35v215h78v-215z" />
    <glyph glyph-name="arrowupleft" unicode="&#x2196;" horiz-adv-x="376" 
d="M54 193v271h272v-68h-204v-203h-68zM149 315v53h56l147 -148l-54 -54z" />
    <glyph glyph-name="arrowupright" unicode="&#x2197;" horiz-adv-x="376" 
d="M50 464h271v-271h-67v203h-204v68zM226 368v-54l-148 -148l-54 54l147 148h55z" />
    <glyph glyph-name="arrowdownright" unicode="&#x2198;" horiz-adv-x="376" 
d="M254 246v204h67v-271h-271v67h204zM226 329v-55h-54l-148 149l54 54z" />
    <glyph glyph-name="arrowdownleft" unicode="&#x2199;" horiz-adv-x="376" 
d="M326 179h-272v271h68v-204h204v-67zM149 274v54l149 149l54 -54l-149 -149h-54z" />
    <glyph glyph-name="partialdiff" unicode="&#x2202;" horiz-adv-x="497" 
d="M224 68v-78h-12q-80 0 -135 56.5t-55 137.5v42q0 79 53.5 133t132.5 54h41q43 0 91 -17v-78q-44 16 -84 16h-35q-48 0 -80 -34t-32 -82v-32q0 -49 32 -83t83 -35zM254 -10v78q52 1 84 35t32 83v292q0 60 -38.5 102t-96.5 42h-114v81h130q88 0 147 -62t59 -151v-306
q0 -81 -55 -137.5t-135 -56.5h-13z" />
    <glyph glyph-name="product" unicode="&#x220f;" horiz-adv-x="539" 
d="M368 703v-79h-226v-624h-88v703h314zM398 0v703h86v-703h-86z" />
    <glyph glyph-name="summation" unicode="&#x2211;" horiz-adv-x="399" 
d="M96 0l48 79h243v-79h-291zM144 624l-48 79h291v-79h-243zM68 703l213 -351l-213 -352h-54v64l170 288l-170 288v63h54z" />
    <glyph glyph-name="minus" unicode="&#x2212;" horiz-adv-x="350" 
d="M15 315v75h320v-75h-320z" />
    <glyph glyph-name="radical" unicode="&#x221a;" horiz-adv-x="425" 
d="M256 0l-40 167l124 536h81l-163 -703h-2zM134 390l94 -390h-79l-78 312h-60v78h123z" />
    <glyph glyph-name="infinity" unicode="&#x221e;" horiz-adv-x="500" 
d="M305 378q-29 47 -38 54q43 39 83 39h24q43 0 74 -30t31 -74v-29q0 -44 -31 -74.5t-74 -30.5h-21q-59 0 -99 54l-2 2q-56 -56 -102 -56h-24q-43 0 -73.5 30.5t-30.5 73.5v32q0 43 30.5 72.5t73.5 29.5h27q51 0 87 -51l62 -80q11 -15 27 -26t28 -11h14q16 0 27.5 12
t11.5 28v18q0 16 -11.5 28.5t-27.5 12.5h-20q-19 0 -46 -24zM148 303q25 0 63 38l-15 20q-30 41 -51 41h-15q-17 0 -28.5 -12t-11.5 -29v-18q0 -16 11.5 -28t27.5 -12h19z" />
    <glyph glyph-name="integral" unicode="&#x222b;" horiz-adv-x="256" 
d="M88 592q0 47 33 79.5t80 32.5h57v-77h-35q-22 0 -37.5 -16t-15.5 -37v-463q0 -46 -33 -78.5t-80 -32.5h-57v76h35q22 0 37.5 16t15.5 38v462z" />
    <glyph glyph-name="approxequal" unicode="&#x2248;" horiz-adv-x="350" 
d="M335 470v-68q-45 -22 -85 -22q-28 0 -75 15t-77 15q-39 0 -83 -19v69q45 23 87 23q27 0 71.5 -15t75.5 -15q43 0 86 17zM335 312v-70q-45 -22 -85 -22q-28 0 -75 15t-77 15q-41 0 -83 -18v68q43 22 87 22q27 0 71.5 -15t75.5 -15q43 0 86 20z" />
    <glyph glyph-name="notequal" unicode="&#x2260;" horiz-adv-x="350" 
d="M15 396v65h166l27 60h80l-27 -60h74v-65h-102l-38 -87h140v-65h-169l-26 -60h-81l26 60h-70v65h99l38 87h-137z" />
    <glyph glyph-name="lessequal" unicode="&#x2264;" horiz-adv-x="350" 
d="M25 367v67l300 134v-79l-210 -89l210 -89v-78zM15 148v69h320v-69h-320z" />
    <glyph glyph-name="greaterequal" unicode="&#x2265;" horiz-adv-x="350" 
d="M325 367l-300 -134v78l209 89l-209 89v79l300 -134v-67zM15 148v69h320v-69h-320z" />
    <glyph glyph-name="uni2460" unicode="&#x2460;" horiz-adv-x="690" 
d="M331 51v-61h-28q-112 0 -191.5 79.5t-79.5 190.5v184q0 111 79.5 190.5t191.5 79.5h28v-61h-24q-86 0 -147 -62t-61 -148v-182q0 -86 61 -148t147 -62h24zM361 -10v61h23q85 0 146 64.5t61 150.5v177q0 86 -61 148t-146 62h-23v61h26q112 0 191.5 -79.5t79.5 -190.5v-179
q0 -112 -80 -193.5t-191 -81.5h-26zM335 147v344l-121 -23v55l148 35h43v-411h-70z" />
    <glyph glyph-name="uni2461" unicode="&#x2461;" horiz-adv-x="690" 
d="M210 147v48l148 163q2 2 7.5 8.5t8 9t7 8l7 8.5t6 8t5.5 8.5l4.5 8t3.5 8.5t2 8.5t1 8.5v10q0 23 -17 38.5t-42 15.5h-13q-25 0 -42.5 -16.5t-17.5 -40.5v-39h-66v41q0 47 34.5 79.5t85.5 32.5h30q50 0 85 -31.5t35 -77.5v-13q0 -11 -1.5 -21t-7 -20.5l-9 -17t-13.5 -18
l-13 -15t-17 -17t-16 -16.5l-99 -108h180v-61h-276zM331 51v-61h-28q-112 0 -191.5 79.5t-79.5 190.5v184q0 111 79.5 190.5t191.5 79.5h28v-61h-24q-86 0 -147 -62t-61 -148v-182q0 -86 61 -148t147 -62h24zM361 -10v61h23q85 0 146 64.5t61 150.5v177q0 86 -61 148
t-146 62h-23v61h26q112 0 191.5 -79.5t79.5 -190.5v-179q0 -112 -80 -193.5t-191 -81.5h-26z" />
    <glyph glyph-name="uni2462" unicode="&#x2462;" horiz-adv-x="690" 
d="M206 435v20q0 45 34 76.5t84 31.5h37q50 0 85.5 -31.5t35.5 -76.5v-15q0 -26 -18 -52t-48 -34q36 -9 54.5 -34.5t18.5 -53.5v-16q0 -45 -35 -77t-85 -32h-48q-50 0 -84.5 31.5t-34.5 77.5v19h70v-18q0 -23 17.5 -39.5t42.5 -16.5h22q25 0 42.5 16.5t17.5 39.5v16
q0 26 -22 42.5t-56 16.5h-58v52h55q31 0 54 18.5t23 44.5v13q0 23 -17.5 39t-42.5 16h-16q-25 0 -41.5 -16t-16.5 -39v-19h-70zM331 51v-61h-28q-112 0 -191.5 79.5t-79.5 190.5v184q0 111 79.5 190.5t191.5 79.5h28v-61h-24q-86 0 -147 -62t-61 -148v-182q0 -86 61 -148
t147 -62h24zM361 -10v61h23q85 0 146 64.5t61 150.5v177q0 86 -61 148t-146 62h-23v61h26q112 0 191.5 -79.5t79.5 -190.5v-179q0 -112 -80 -193.5t-191 -81.5h-26z" />
    <glyph glyph-name="uni2463" unicode="&#x2463;" horiz-adv-x="690" 
d="M359 558h78v-272h48v-56h-48v-83h-68v83h-187v49zM257 285h115v182zM331 51v-61h-28q-112 0 -191.5 79.5t-79.5 190.5v184q0 111 79.5 190.5t191.5 79.5h28v-61h-24q-86 0 -147 -62t-61 -148v-182q0 -86 61 -148t147 -62h24zM361 -10v61h23q85 0 146 64.5t61 150.5v177
q0 86 -61 148t-146 62h-23v61h26q112 0 191.5 -79.5t79.5 -190.5v-179q0 -112 -80 -193.5t-191 -81.5h-26z" />
    <glyph glyph-name="uni2464" unicode="&#x2464;" horiz-adv-x="690" 
d="M208 254v22h68v-21q0 -24 17.5 -41t43.5 -17h20q26 0 43.5 17.5t17.5 41.5v22q0 26 -19 44t-49 18h-135v218h266v-59h-199v-103h83q53 0 88.5 -33t35.5 -81v-28q0 -47 -35.5 -80t-86.5 -33h-38q-51 0 -86 32.5t-35 80.5zM331 51v-61h-28q-112 0 -191.5 79.5t-79.5 190.5
v184q0 111 79.5 190.5t191.5 79.5h28v-61h-24q-86 0 -147 -62t-61 -148v-182q0 -86 61 -148t147 -62h24zM361 -10v61h23q85 0 146 64.5t61 150.5v177q0 86 -61 148t-146 62h-23v61h26q112 0 191.5 -79.5t79.5 -190.5v-179q0 -112 -80 -193.5t-191 -81.5h-26z" />
    <glyph glyph-name="uni2465" unicode="&#x2465;" horiz-adv-x="690" 
d="M273 441v-65q32 15 71 15h26q50 0 85.5 -31t35.5 -77v-27q0 -47 -36.5 -81t-88.5 -34h-38q-52 0 -88 33.5t-36 80.5v190q0 49 36.5 83.5t90.5 34.5h31q52 0 88 -33.5t36 -81.5v-21h-69v18q0 24 -18 42t-45 18h-14q-29 0 -48 -18.5t-19 -45.5zM338 336q-21 0 -65 -11v-68
q0 -25 18.5 -42.5t44.5 -17.5h21q27 0 45 17.5t18 42.5v19q0 24 -18 42t-45 18h-19zM331 51v-61h-28q-112 0 -191.5 79.5t-79.5 190.5v184q0 111 79.5 190.5t191.5 79.5h28v-61h-24q-86 0 -147 -62t-61 -148v-182q0 -86 61 -148t147 -62h24zM361 -10v61h23q85 0 146 64.5
t61 150.5v177q0 86 -61 148t-146 62h-23v61h26q112 0 191.5 -79.5t79.5 -190.5v-179q0 -112 -80 -193.5t-191 -81.5h-26z" />
    <glyph glyph-name="uni2466" unicode="&#x2466;" horiz-adv-x="690" 
d="M251 147l153 349h-192v62h274v-46l-160 -365h-75zM331 51v-61h-28q-112 0 -191.5 79.5t-79.5 190.5v184q0 111 79.5 190.5t191.5 79.5h28v-61h-24q-86 0 -147 -62t-61 -148v-182q0 -86 61 -148t147 -62h24zM361 -10v61h23q85 0 146 64.5t61 150.5v177q0 86 -61 148
t-146 62h-23v61h26q112 0 191.5 -79.5t79.5 -190.5v-179q0 -112 -80 -193.5t-191 -81.5h-26z" />
    <glyph glyph-name="uni2467" unicode="&#x2467;" horiz-adv-x="690" 
d="M202 442v14q0 46 35.5 76.5t86.5 30.5h41q52 0 86.5 -30.5t34.5 -75.5v-16q0 -28 -16.5 -52.5t-45.5 -34.5q31 -9 49.5 -35.5t18.5 -55.5v-15q0 -45 -33.5 -76t-85.5 -31h-53q-52 0 -87 30.5t-35 76.5v15q0 30 18.5 57t49.5 33q-31 10 -47.5 35.5t-16.5 53.5zM352 325
h-17q-33 0 -50 -17.5t-17 -39.5v-14q0 -24 18.5 -40.5t44.5 -16.5h30q26 0 42.5 16.5t16.5 40.5v14q0 24 -17 40.5t-51 16.5zM417 439v12q0 23 -17.5 39t-44.5 16h-23q-25 0 -42.5 -15.5t-17.5 -39.5v-12q0 -24 16 -41t49 -17h13q33 0 50 18t17 40zM331 51v-61h-28
q-112 0 -191.5 79.5t-79.5 190.5v184q0 111 79.5 190.5t191.5 79.5h28v-61h-24q-86 0 -147 -62t-61 -148v-182q0 -86 61 -148t147 -62h24zM361 -10v61h23q85 0 146 64.5t61 150.5v177q0 86 -61 148t-146 62h-23v61h26q112 0 191.5 -79.5t79.5 -190.5v-179q0 -112 -80 -193.5
t-191 -81.5h-26z" />
    <glyph glyph-name="uni2468" unicode="&#x2468;" horiz-adv-x="690" 
d="M417 263v66q-34 -14 -71 -14h-25q-51 0 -86 31.5t-35 77.5v24q0 48 36.5 81.5t88.5 33.5h37q53 0 89 -33t36 -81v-189q0 -50 -36.5 -84.5t-90.5 -34.5h-31q-53 0 -88.5 33.5t-35.5 81.5v21h68v-18q0 -24 18.5 -41.5t45.5 -17.5h14q29 0 47.5 18t18.5 45zM353 371
q32 0 64 10v66q0 25 -18 42.5t-45 17.5h-21q-27 0 -45 -17.5t-18 -42.5v-17q0 -24 18 -41.5t45 -17.5h20zM331 51v-61h-28q-112 0 -191.5 79.5t-79.5 190.5v184q0 111 79.5 190.5t191.5 79.5h28v-61h-24q-86 0 -147 -62t-61 -148v-182q0 -86 61 -148t147 -62h24zM361 -10v61
h23q85 0 146 64.5t61 150.5v177q0 86 -61 148t-146 62h-23v61h26q112 0 191.5 -79.5t79.5 -190.5v-179q0 -112 -80 -193.5t-191 -81.5h-26z" />
    <glyph glyph-name="uni2469" unicode="&#x2469;" horiz-adv-x="690" 
d="M544 436v-172q0 -42 -31 -71t-76 -29h-22q-44 0 -75.5 29t-31.5 71v172q0 41 31.5 70t75.5 29h22q45 0 76 -29t31 -70zM420 215h12q22 0 37.5 15t15.5 37v165q0 22 -15.5 37t-37.5 15h-12q-22 0 -37.5 -15t-15.5 -37v-165q0 -22 15.5 -37t37.5 -15zM206 170v302l-79 -15
v48l105 25h34v-360h-60zM331 51v-61h-28q-112 0 -191.5 79.5t-79.5 190.5v184q0 111 79.5 190.5t191.5 79.5h28v-61h-24q-86 0 -147 -62t-61 -148v-182q0 -86 61 -148t147 -62h24zM361 -10v61h23q85 0 146 64.5t61 150.5v177q0 86 -61 148t-146 62h-23v61h26
q112 0 191.5 -79.5t79.5 -190.5v-179q0 -112 -80 -193.5t-191 -81.5h-26z" />
    <glyph glyph-name="lozenge" unicode="&#x25ca;" horiz-adv-x="448" 
d="M285 17l-47 91l121 244l-175 351h93l174 -351zM162 685l47 -91l-119 -242l174 -352h-93l-173 352z" />
    <glyph glyph-name="uni2776" unicode="&#x2776;" horiz-adv-x="690" 
d="M331 147v-157h-28q-112 0 -191.5 79.5t-79.5 190.5v184q0 111 79.5 190.5t191.5 79.5h28v-163l-117 -28v-55l121 23v-344h-4zM361 -10v157h44v411h-44v156h26q112 0 191.5 -79.5t79.5 -190.5v-179q0 -112 -80 -193.5t-191 -81.5h-26z" />
    <glyph glyph-name="uni2777" unicode="&#x2777;" horiz-adv-x="690" 
d="M331 714v-151q-52 -1 -85.5 -33t-33.5 -79v-41h66v39q0 24 17.5 40.5t42.5 16.5h13q25 0 42 -15.5t17 -38.5v-10q0 -5 -1 -9.5t-3 -9.5l-3.5 -9t-5.5 -9.5t-6 -8.5t-8 -10t-8 -9t-8.5 -9.5t-8.5 -9.5l-148 -163v-48h121v-157h-28q-112 0 -191.5 79.5t-79.5 190.5v184
q0 111 79.5 190.5t191.5 79.5h28zM361 563v151h26q112 0 191.5 -79.5t79.5 -190.5v-179q0 -112 -80 -193.5t-191 -81.5h-26v157h125v61h-180l99 108q2 3 16 16.5t17 17l13 15t13.5 18l9 17t7 20.5t1.5 21v13q0 45 -34.5 76.5t-86.5 32.5z" />
    <glyph glyph-name="uni2778" unicode="&#x2778;" horiz-adv-x="690" 
d="M331 141v-151h-28q-112 0 -191.5 79.5t-79.5 190.5v184q0 111 79.5 190.5t191.5 79.5h28v-151h-7q-50 -1 -84 -32t-34 -76v-20h70v19q0 23 16.5 39t41.5 16h16q25 0 42.5 -16t17.5 -39v-13q0 -26 -23 -44.5t-54 -18.5h-55v-52h58q34 0 56 -16.5t22 -42.5v-16
q0 -23 -17.5 -39.5t-42.5 -16.5h-22q-25 0 -42.5 16.5t-17.5 39.5v18h-70v-19q0 -46 34.5 -77.5t84.5 -31.5h10zM361 -10v151h8q50 0 85 32t35 77v16q0 28 -18.5 53.5t-54.5 34.5q30 8 48 34t18 52v15q0 44 -34.5 75.5t-82.5 32.5h-4v151h26q112 0 191.5 -79.5t79.5 -190.5
v-179q0 -112 -80 -193.5t-191 -81.5h-26z" />
    <glyph glyph-name="uni2779" unicode="&#x2779;" horiz-adv-x="690" 
d="M331 230v-240h-28q-112 0 -191.5 79.5t-79.5 190.5v184q0 111 79.5 190.5t191.5 79.5h28v-206l-145 -229v-49h145zM361 -10v157h81v83h47v56h-47v272h-81v156h26q112 0 191.5 -79.5t79.5 -190.5v-179q0 -112 -80 -193.5t-191 -81.5h-26zM376 285h-115l115 182v-182z" />
    <glyph glyph-name="uni277A" unicode="&#x277a;" horiz-adv-x="690" 
d="M331 141v-151h-28q-112 0 -191.5 79.5t-79.5 190.5v184q0 111 79.5 190.5t191.5 79.5h28v-156h-116v-218h135q30 0 49 -18t19 -44v-22q0 -24 -17.5 -41.5t-43.5 -17.5h-20q-26 0 -43.5 17t-17.5 41v21h-68v-22q0 -47 34 -79.5t85 -33.5h4zM361 -10v151h6q51 0 86.5 33
t35.5 80v28q0 48 -35.5 81t-88.5 33h-83v103h199v59h-120v156h26q112 0 191.5 -79.5t79.5 -190.5v-179q0 -112 -80 -193.5t-191 -81.5h-26z" />
    <glyph glyph-name="uni277B" unicode="&#x277b;" horiz-adv-x="690" 
d="M331 714v-151h-3q-53 -1 -88.5 -35t-35.5 -83v-190q0 -47 35.5 -80.5t87.5 -33.5h4v-151h-28q-112 0 -191.5 79.5t-79.5 190.5v184q0 111 79.5 190.5t191.5 79.5h28zM361 563v151h26q112 0 191.5 -79.5t79.5 -190.5v-179q0 -112 -80 -193.5t-191 -81.5h-26v151h5
q52 0 88.5 34t36.5 81v27q0 46 -35.5 77t-85.5 31h-26q-37 0 -71 -14v64q0 27 19 45.5t48 18.5h14q27 0 45 -18t18 -42v-18h69v21q0 48 -35 81t-87 34h-3zM338 336h19q27 0 45 -18t18 -42v-19q0 -25 -18 -42.5t-45 -17.5h-21q-26 0 -44.5 17.5t-18.5 42.5v68q44 11 65 11z
" />
    <glyph glyph-name="uni277C" unicode="&#x277c;" horiz-adv-x="690" 
d="M331 158v-168h-28q-112 0 -191.5 79.5t-79.5 190.5v184q0 111 79.5 190.5t191.5 79.5h28v-156h-119v-62h192l-153 -349h75zM361 -10v237l125 285v46h-125v156h26q112 0 191.5 -79.5t79.5 -190.5v-179q0 -112 -80 -193.5t-191 -81.5h-26z" />
    <glyph glyph-name="uni277D" unicode="&#x277d;" horiz-adv-x="690" 
d="M331 714v-151h-7q-51 0 -86.5 -30.5t-35.5 -76.5v-14q0 -28 16.5 -53.5t47.5 -35.5q-31 -6 -49.5 -33t-18.5 -57v-15q0 -46 35 -76.5t87 -30.5h11v-151h-28q-112 0 -191.5 79.5t-79.5 190.5v184q0 111 79.5 190.5t191.5 79.5h28zM361 563v151h26q112 0 191.5 -79.5
t79.5 -190.5v-179q0 -112 -80 -193.5t-191 -81.5h-26v151h12q52 0 85.5 31t33.5 76v15q0 29 -18.5 55.5t-49.5 35.5q29 10 45.5 34.5t16.5 52.5v16q0 45 -34.5 75.5t-86.5 30.5h-4zM335 325h17q34 0 51 -16.5t17 -40.5v-14q0 -24 -16.5 -40.5t-42.5 -16.5h-30
q-26 0 -44.5 16.5t-18.5 40.5v14q0 22 17 39.5t50 17.5zM417 439q0 -22 -17 -40t-50 -18h-13q-33 0 -49 17t-16 41v12q0 24 17.5 39.5t42.5 15.5h23q27 0 44.5 -16t17.5 -39v-12z" />
    <glyph glyph-name="uni277E" unicode="&#x277e;" horiz-adv-x="690" 
d="M330 141v-151h-27q-112 0 -191.5 79.5t-79.5 190.5v184q0 111 79.5 190.5t191.5 79.5h27v-151h-5q-52 0 -88.5 -34t-36.5 -81v-25q0 -46 35 -77t86 -31h26q36 0 70 14v-66q0 -27 -18.5 -45t-47.5 -18h-14q-27 0 -45.5 17t-18.5 42v18h-68v-21q0 -48 35 -81t87 -34h3z
M360 -10v151h3q53 1 88.5 35t35.5 83v190q0 47 -35.5 80.5t-87.5 33.5h-4v151h27q112 0 191.5 -79.5t79.5 -190.5v-179q0 -112 -80 -193.5t-191 -81.5h-27zM353 371h-19q-27 0 -45.5 17t-18.5 42v17q0 25 18.5 42.5t45.5 17.5h21q26 0 44 -17.5t18 -42.5v-66
q-32 -10 -64 -10z" />
    <glyph glyph-name="uni277F" unicode="&#x277f;" horiz-adv-x="690" 
d="M196 476v-316h66v380h-38l-111 -27v-53zM331 714v-213q-21 -29 -21 -61v-181q0 -33 21 -60v-209h-28q-112 0 -191.5 79.5t-79.5 190.5v184q0 111 79.5 190.5t191.5 79.5h28zM361 528v186h26q112 0 191.5 -79.5t79.5 -190.5v-179q0 -112 -80 -193.5t-191 -81.5h-26v181
q28 -17 64 -17h23q48 0 81 30.5t33 74.5v181q0 44 -33 75t-81 31h-23q-35 0 -64 -18zM376 436q0 22 16 37.5t38 15.5h12q23 0 38.5 -15.5t15.5 -37.5v-173q0 -22 -15.5 -37.5t-38.5 -15.5h-12q-22 0 -38 15.5t-16 37.5v173z" />
    <glyph glyph-name="fi" unicode="&#xfb01;" horiz-adv-x="445" 
d="M9 432v76h67v55q0 45 23.5 81.5t62.5 53.5v-190h94v-76h-94v-432h-86v432h-67zM303 0v508h87v-508h-87zM192 628v75h198v-75h-198z" />
    <glyph glyph-name="fl" unicode="&#xfb02;" horiz-adv-x="445" 
d="M9 432v76h67v55q0 45 23.5 81.5t62.5 53.5v-190h94v-76h-94v-432h-86v432h-67zM192 632v71h198v-703h-87v632h-111z" />
    <glyph glyph-name="nonmarkingreturn" horiz-adv-x="194" 
 />
    <glyph glyph-name="Ymacron" horiz-adv-x="450" 
d="M283 315l-44 95l130 293h86zM82 703l187 -427v-276h-88v283l-186 420h87zM96 771v68h255v-68h-255z" />
    <glyph glyph-name="Iacute_Jacute" horiz-adv-x="473" 
d="M54 0v703h88v-703h-88zM189 0v79h35q50 0 80.5 34t30.5 83v507h88v-520q0 -78 -50.5 -130.5t-130.5 -52.5h-53zM71 734l-32 56l158 95l34 -58zM351 734l-32 56l158 95l34 -58z" />
    <glyph glyph-name="ymacron" horiz-adv-x="418" 
d="M17 -196v75h69q36 0 54 18.5t31 57.5l159 553h88l-161 -556q-26 -89 -65.5 -118.5t-103.5 -29.5h-71zM195 136l-39 -136h-9l-147 508h88zM81 578v68h255v-68h-255z" />
    <glyph glyph-name="iacute_jacute" horiz-adv-x="396" 
d="M341 -17h-88v525h88v-525zM54 0v508h88v-508h-88zM253 -42h88q2 -68 -35.5 -111t-98.5 -43h-72v75h49q65 0 69 79zM71 541l-33 55l158 95l35 -57zM269 541l-33 55l158 95l35 -57z" />
    <glyph glyph-name="a.superior" horiz-adv-x="317" 
d="M310 442v-56h-33q-47 0 -62 31q-27 -34 -76 -34h-35q-33 0 -57.5 21t-24.5 61t23.5 62.5t59.5 22.5h104v48q0 20 -12.5 35.5t-32.5 15.5h-15q-23 0 -36 -15.5t-13 -36.5v-14h-63v25q0 41 28.5 70.5t72.5 29.5h39q43 0 70.5 -28t27.5 -69v-138q0 -31 27 -31h8zM131 432h21
q20 0 38 12.5t19 40.5v18h-77q-41 0 -41 -35q0 -36 40 -36z" />
    <glyph glyph-name="b.superior" horiz-adv-x="329" 
d="M40 386v439h66v-154q28 37 68 37h32q39 0 65 -27t26 -66v-126q0 -45 -29.5 -76.5t-74.5 -31.5h-29q-39 0 -60 24v-19h-64zM164 649q-22 0 -38 -17t-18 -40v-112q0 -18 14 -29t34 -11h24q24 0 37 17.5t13 42.5v97q0 21 -12 36.5t-32 15.5h-22z" />
    <glyph glyph-name="c.superior" horiz-adv-x="316" 
d="M221 519h65v-28q0 -46 -30 -78t-75 -32h-42q-45 0 -76.5 32t-31.5 78v106q0 46 31.5 78.5t76.5 32.5h42q45 0 75 -32t30 -79v-28h-65v22q0 24 -13 41t-36 17h-24q-23 0 -36.5 -17t-13.5 -41v-93q0 -24 14 -41t37 -17h23q23 0 36 17t13 41v21z" />
    <glyph glyph-name="d.superior" horiz-adv-x="328" 
d="M287 825v-439h-65v32q-29 -37 -69 -37h-31q-39 0 -65 27t-26 66v123q0 47 30.5 79t75.5 32h29q36 0 55 -21v138h66zM141 440h22q22 0 38.5 17t18.5 40v115q-1 17 -15 27t-33 10h-24q-24 0 -37 -17.5t-13 -42.5v-97q0 -22 11 -37t32 -15z" />
    <glyph glyph-name="e.superior" horiz-adv-x="313" 
d="M221 509h63v-16q0 -48 -30 -80t-74 -32h-41q-45 0 -76.5 31.5t-31.5 78.5v108q0 45 31 77t77 32h38q46 0 76.5 -31.5t30.5 -77.5v-54h-188v-51q0 -24 14 -41t38 -17h21q23 0 37.5 17.5t14.5 42.5v13zM96 598v-7h126v7q0 24 -14 41t-37 17h-24q-23 0 -37 -17t-14 -41z" />
    <glyph glyph-name="egrave.superior" horiz-adv-x="313" 
d="M221 509h63v-16q0 -48 -30 -80t-74 -32h-41q-45 0 -76.5 31.5t-31.5 78.5v108q0 45 31 77t77 32h38q46 0 76.5 -31.5t30.5 -77.5v-54h-188v-51q0 -24 14 -41t38 -17h21q23 0 37.5 17.5t14.5 42.5v13zM96 598v-7h126v7q0 24 -14 41t-37 17h-24q-23 0 -37 -17t-14 -41z
M192 730l-102 57l26 44l100 -60z" />
    <glyph glyph-name="f.superior" horiz-adv-x="177" 
d="M12 645v58h40v27q0 40 26 67.5t67 27.5h56v-55h-40q-43 0 -43 -47v-20h62v-58h-62v-259h-66v259h-40z" />
    <glyph glyph-name="g.superior" horiz-adv-x="316" 
d="M270 647h-1q6 -17 6 -33v-27q0 -40 -26.5 -66.5t-69.5 -26.5h-52q-13 0 -25 3v-19v-4q0 -28 32 -28h82q36 0 61.5 -24t25.5 -57v-16q0 -42 -27.5 -67t-82.5 -25h-79q-46 0 -70 24.5t-24 53.5v21q0 49 42 62q-16 16 -16 41v13q0 32 9 51q-24 26 -24 63v28q0 40 27.5 67
t70.5 27h53q27 0 50 -15q16 9 36 9h40v-55h-38zM119 390q-37 -3 -37 -37v-6q0 -15 10.5 -26t31.5 -11h63q52 0 52 40v5q0 14 -11.5 24.5t-27.5 10.5h-81zM142 657q-22 0 -34 -13.5t-12 -35.5v-15q0 -22 12.5 -35.5t33.5 -13.5h23q21 0 33 14t12 35v15q0 22 -12 35.5
t-33 13.5h-23z" />
    <glyph glyph-name="h.superior" horiz-adv-x="332" 
d="M185 646h-21q-22 0 -38 -16.5t-18 -38.5v-205h-68v439h68v-158q21 41 75 41h29q35 0 58 -26t23 -63v-233h-68v212q0 20 -10.5 34t-29.5 14z" />
    <glyph glyph-name="i.superior" horiz-adv-x="149" 
d="M40 385v318h68v-318h-68zM40 749v61h68v-61h-68z" />
    <glyph glyph-name="j.superior" horiz-adv-x="151" 
d="M-28 271v55h29q20 0 30.5 13t10.5 34v330h68v-342q0 -38 -25 -64t-64 -26h-49zM42 749v61h68v-61h-68z" />
    <glyph glyph-name="k.superior" horiz-adv-x="299" 
d="M40 385v440h68v-252h43l61 130h73l-74 -158l84 -160h-74l-69 130h-44v-130h-68z" />
    <glyph glyph-name="l.superior" horiz-adv-x="149" 
d="M40 386v439h68v-439h-68z" />
    <glyph glyph-name="m.superior" horiz-adv-x="496" 
d="M350 646h-13q-23 0 -39.5 -18.5t-16.5 -41.5v-200h-65v212q0 20 -10.5 34t-29.5 14h-14q-22 0 -38 -17.5t-17 -39.5v-203h-67v317h66v-36q25 41 73 41h25q48 0 68 -45q28 45 80 45h21q38 0 61 -26t23 -65v-231h-67v212q0 20 -10.5 34t-29.5 14z" />
    <glyph glyph-name="o.superior" horiz-adv-x="323" 
d="M139 708h44q46 0 77 -32t31 -79v-106q0 -46 -31 -78t-77 -32h-44q-45 0 -76.5 32t-31.5 78v106q0 46 31.5 78.5t76.5 32.5zM149 440h24q23 0 37.5 17t14.5 41v93q0 24 -14.5 41t-37.5 17h-24q-23 0 -37 -17t-14 -41v-93q0 -24 14 -41t37 -17z" />
    <glyph glyph-name="p.superior" horiz-adv-x="329" 
d="M40 272v431h65v-34q27 39 69 39h32q39 0 65 -27t26 -66v-124q0 -46 -30.5 -78t-75.5 -32h-29q-39 0 -56 20v-129h-66zM164 649q-22 0 -38 -17t-18 -40v-112q0 -18 14 -29t34 -11h24q24 0 37 17.5t13 42.5v97q0 21 -12 36.5t-32 15.5h-22z" />
    <glyph glyph-name="q.superior" horiz-adv-x="329" 
d="M287 703v-431h-66v145q-29 -36 -67 -36h-32q-39 0 -65 27t-26 66v127q0 45 29.5 76t73.5 31h31q38 0 58 -25v20h64zM142 440h21q23 0 39 17t18 40v115q-1 17 -15 27t-33 10h-23q-24 0 -37.5 -17.5t-13.5 -42.5v-97q0 -22 11.5 -37t32.5 -15z" />
    <glyph glyph-name="r.superior" horiz-adv-x="217" 
d="M40 385v318h65v-40q23 40 77 40h24v-63h-25q-34 0 -53.5 -22t-19.5 -54v-179h-68z" />
    <glyph glyph-name="s.superior" horiz-adv-x="307" 
d="M26 468v27h67v-17q0 -44 49 -44h23q48 0 48 39v4q0 40 -56 40h-11q-114 0 -114 86v12q0 40 28.5 66.5t75.5 26.5h38q45 0 73 -26t28 -63v-21h-66v15q0 19 -12 31t-35 12h-17q-23 0 -35 -11t-12 -28v-3q0 -42 57 -42h12q54 0 84 -21t30 -62v-17q0 -39 -29 -65t-72 -26h-52
q-45 0 -73.5 25.5t-28.5 61.5z" />
    <glyph glyph-name="t.superior" horiz-adv-x="278" 
d="M12 645v58h36v64h65v-64h145v-58h-145v-163q0 -42 38 -42h11q43 0 43 43v21h59v-33q0 -39 -25.5 -65t-66.5 -26h-35q-42 0 -65.5 26t-23.5 62v177h-36z" />
    <glyph glyph-name="u.superior" horiz-adv-x="331" 
d="M145 443h22q22 0 38.5 18.5t16.5 40.5v201h68v-317h-65v40q-11 -22 -34 -33.5t-43 -11.5h-25q-36 0 -60.5 26t-24.5 63v233h68v-212q0 -20 10 -34t29 -14z" />
    <glyph glyph-name="v.superior" horiz-adv-x="288" 
d="M193 386h-98l-87 317h67l69 -248l68 248h67z" />
    <glyph glyph-name="w.superior" horiz-adv-x="436" 
d="M167 386h-80l-67 317h62l50 -239l56 239h60l59 -239l50 239h62l-68 -317h-79l-54 211z" />
    <glyph glyph-name="x.superior" horiz-adv-x="279" 
d="M77 703l63 -103l61 103h71l-94 -157l94 -160h-71l-61 105l-63 -105h-71l94 160l-94 157h71z" />
    <glyph glyph-name="y.superior" horiz-adv-x="288" 
d="M26 271v55h46q21 0 31 9t18 31l5 20h-30l-88 317h67l69 -250l68 250h67l-87 -317h-1l-12 -40q-23 -75 -104 -75h-49z" />
    <glyph glyph-name="z.superior" horiz-adv-x="276" 
d="M24 643v60h229v-43l-147 -213h148v-61h-232v47l146 210h-144z" />
    <glyph glyph-name="a.inferior" horiz-adv-x="317" 
d="M310 56v-56h-33q-47 0 -62 31q-27 -34 -76 -34h-35q-33 0 -57.5 21t-24.5 61t23.5 62.5t59.5 22.5h104v48q0 20 -12.5 35.5t-32.5 15.5h-15q-23 0 -36 -15.5t-13 -36.5v-14h-63v25q0 41 28.5 70.5t72.5 29.5h39q43 0 70.5 -28t27.5 -69v-138q0 -31 27 -31h8zM131 46h21
q20 0 38 12.5t19 40.5v18h-77q-41 0 -41 -35q0 -36 40 -36z" />
    <glyph glyph-name="b.inferior" horiz-adv-x="329" 
d="M40 0v439h66v-154q28 37 68 37h32q39 0 65 -27t26 -66v-126q0 -45 -29.5 -76.5t-74.5 -31.5h-29q-39 0 -60 24v-19h-64zM164 263q-22 0 -38 -17t-18 -40v-112q0 -18 14 -29t34 -11h24q24 0 37 17.5t13 42.5v97q0 21 -12 36.5t-32 15.5h-22z" />
    <glyph glyph-name="c.inferior" horiz-adv-x="316" 
d="M221 133h65v-28q0 -46 -30 -78t-75 -32h-42q-45 0 -76.5 32t-31.5 78v106q0 46 31.5 78.5t76.5 32.5h42q45 0 75 -32t30 -79v-28h-65v22q0 24 -13 41t-36 17h-24q-23 0 -36.5 -17t-13.5 -41v-93q0 -24 14 -41t37 -17h23q23 0 36 17t13 41v21z" />
    <glyph glyph-name="d.inferior" horiz-adv-x="328" 
d="M287 439v-439h-65v32q-29 -37 -69 -37h-31q-39 0 -65 27t-26 66v123q0 47 30.5 79t75.5 32h29q36 0 55 -21v138h66zM141 54h22q22 0 38.5 17t18.5 40v115q-1 17 -15 27t-33 10h-24q-24 0 -37 -17.5t-13 -42.5v-97q0 -22 11 -37t32 -15z" />
    <glyph glyph-name="e.inferior" horiz-adv-x="313" 
d="M221 123h63v-16q0 -48 -30 -80t-74 -32h-41q-45 0 -76.5 31.5t-31.5 78.5v108q0 45 31 77t77 32h38q46 0 76.5 -31.5t30.5 -77.5v-54h-188v-51q0 -24 14 -41t38 -17h21q23 0 37.5 17.5t14.5 42.5v13zM96 212v-7h126v7q0 24 -14 41t-37 17h-24q-23 0 -37 -17t-14 -41z" />
    <glyph glyph-name="f.inferior" horiz-adv-x="177" 
d="M12 259v58h40v27q0 40 26 67.5t67 27.5h56v-55h-40q-43 0 -43 -47v-20h62v-58h-62v-259h-66v259h-40z" />
    <glyph glyph-name="g.inferior" horiz-adv-x="316" 
d="M270 261h-1q6 -17 6 -33v-27q0 -40 -26.5 -66.5t-69.5 -26.5h-52q-13 0 -25 3v-19v-4q0 -28 32 -28h82q36 0 61.5 -24t25.5 -57v-16q0 -42 -27.5 -67t-82.5 -25h-79q-46 0 -70 24.5t-24 53.5v21q0 49 42 62q-16 16 -16 41v13q0 32 9 51q-24 26 -24 63v28q0 40 27.5 67
t70.5 27h53q27 0 50 -15q16 9 36 9h40v-55h-38zM119 4q-37 -3 -37 -37v-6q0 -15 10.5 -26t31.5 -11h63q52 0 52 40v5q0 14 -11.5 24.5t-27.5 10.5h-81zM142 271q-22 0 -34 -13.5t-12 -35.5v-15q0 -22 12.5 -35.5t33.5 -13.5h23q21 0 33 14t12 35v15q0 22 -12 35.5t-33 13.5
h-23z" />
    <glyph glyph-name="h.inferior" horiz-adv-x="332" 
d="M185 260h-21q-22 0 -38 -16.5t-18 -38.5v-205h-68v439h68v-158q21 41 75 41h29q35 0 58 -26t23 -63v-233h-68v212q0 20 -10.5 34t-29.5 14z" />
    <glyph glyph-name="i.inferior" horiz-adv-x="149" 
d="M40 -1v318h68v-318h-68zM40 363v61h68v-61h-68z" />
    <glyph glyph-name="j.inferior" horiz-adv-x="151" 
d="M-28 -115v55h29q20 0 30.5 13t10.5 34v330h68v-342q0 -38 -25 -64t-64 -26h-49zM42 363v61h68v-61h-68z" />
    <glyph glyph-name="k.inferior" horiz-adv-x="299" 
d="M40 -1v440h68v-252h43l61 130h73l-74 -158l84 -160h-74l-69 130h-44v-130h-68z" />
    <glyph glyph-name="l.inferior" horiz-adv-x="149" 
d="M40 0v439h68v-439h-68z" />
    <glyph glyph-name="m.inferior" horiz-adv-x="496" 
d="M350 260h-13q-23 0 -39.5 -18.5t-16.5 -41.5v-200h-65v212q0 20 -10.5 34t-29.5 14h-14q-22 0 -38 -17.5t-17 -39.5v-203h-67v317h66v-36q25 41 73 41h25q48 0 68 -45q28 45 80 45h21q38 0 61 -26t23 -65v-231h-67v212q0 20 -10.5 34t-29.5 14z" />
    <glyph glyph-name="n.inferior" horiz-adv-x="332" 
d="M185 260h-21q-23 0 -39 -17.5t-17 -39.5v-203h-68v317h67v-39q20 44 76 44h28q36 0 59 -26t23 -63v-233h-68v212q0 20 -10.5 34t-29.5 14z" />
    <glyph glyph-name="o.inferior" horiz-adv-x="323" 
d="M139 322h44q46 0 77 -32t31 -79v-106q0 -46 -31 -78t-77 -32h-44q-45 0 -76.5 32t-31.5 78v106q0 46 31.5 78.5t76.5 32.5zM149 54h24q23 0 37.5 17t14.5 41v93q0 24 -14.5 41t-37.5 17h-24q-23 0 -37 -17t-14 -41v-93q0 -24 14 -41t37 -17z" />
    <glyph glyph-name="p.inferior" horiz-adv-x="329" 
d="M40 -114v431h65v-34q27 39 69 39h32q39 0 65 -27t26 -66v-124q0 -46 -30.5 -78t-75.5 -32h-29q-39 0 -56 20v-129h-66zM164 263q-22 0 -38 -17t-18 -40v-112q0 -18 14 -29t34 -11h24q24 0 37 17.5t13 42.5v97q0 21 -12 36.5t-32 15.5h-22z" />
    <glyph glyph-name="q.inferior" horiz-adv-x="329" 
d="M287 317v-431h-66v145q-29 -36 -67 -36h-32q-39 0 -65 27t-26 66v127q0 45 29.5 76t73.5 31h31q37 0 58 -24v19h64zM142 54h21q23 0 39 17t18 40v115q-1 17 -15 27t-33 10h-23q-24 0 -37.5 -17.5t-13.5 -42.5v-97q0 -22 11.5 -37t32.5 -15z" />
    <glyph glyph-name="r.inferior" horiz-adv-x="217" 
d="M40 -1v318h65v-40q23 40 77 40h24v-63h-25q-34 0 -53.5 -22t-19.5 -54v-179h-68z" />
    <glyph glyph-name="s.inferior" horiz-adv-x="307" 
d="M26 82v27h67v-17q0 -44 49 -44h23q48 0 48 39v4q0 40 -56 40h-11q-114 0 -114 86v12q0 40 28.5 66.5t75.5 26.5h38q45 0 73 -26t28 -63v-21h-66v15q0 19 -12 31t-35 12h-17q-23 0 -35 -11t-12 -28v-3q0 -42 57 -42h12q54 0 84 -21t30 -62v-17q0 -39 -29 -65t-72 -26h-52
q-45 0 -73.5 25.5t-28.5 61.5z" />
    <glyph glyph-name="t.inferior" horiz-adv-x="278" 
d="M12 259v58h36v64h65v-64h145v-58h-145v-163q0 -42 38 -42h11q43 0 43 43v21h59v-33q0 -39 -25.5 -65t-66.5 -26h-35q-42 0 -65.5 26t-23.5 62v177h-36z" />
    <glyph glyph-name="u.inferior" horiz-adv-x="331" 
d="M145 57h22q22 0 38.5 18.5t16.5 40.5v201h68v-317h-65v40q-11 -22 -34 -33.5t-43 -11.5h-25q-36 0 -60.5 26t-24.5 63v233h68v-212q0 -20 10 -34t29 -14z" />
    <glyph glyph-name="v.inferior" horiz-adv-x="288" 
d="M193 0h-98l-87 317h67l69 -248l68 248h67z" />
    <glyph glyph-name="w.inferior" horiz-adv-x="436" 
d="M167 0h-80l-67 317h62l50 -239l56 239h60l59 -239l50 239h62l-68 -317h-79l-54 211z" />
    <glyph glyph-name="x.inferior" horiz-adv-x="279" 
d="M77 317l63 -103l61 103h71l-94 -157l94 -160h-71l-61 105l-63 -105h-71l94 160l-94 157h71z" />
    <glyph glyph-name="y.inferior" horiz-adv-x="288" 
d="M26 -115v55h46q21 0 31 9t18 31l5 20h-30l-88 317h67l69 -250l68 250h67l-87 -317h-1l-12 -40q-23 -75 -104 -75h-49z" />
    <glyph glyph-name="z.inferior" horiz-adv-x="276" 
d="M24 257v60h229v-43l-147 -213h148v-61h-232v47l146 210h-144z" />
    <glyph glyph-name="f.alt1" horiz-adv-x="248" 
d="M9 432v76h67v55q0 45 23.5 81.5t62.5 53.5v-190h99v-76h-99v-432h-86v432h-67zM192 628v75h150v-75h-150z" />
    <glyph glyph-name="f.alt2" horiz-adv-x="240" 
d="M9 432v76h67v55q0 45 23.5 81.5t62.5 53.5v-190h158v-76h-158v-432h-86v432h-67zM192 628v75h94v-75h-94z" />
    <glyph glyph-name="f.alt3" horiz-adv-x="247" 
d="M9 432v76h67v55q0 45 23.5 81.5t62.5 53.5v-190h94v-76h-94v-432h-86v432h-67zM192 632v71h157v-71h-157z" />
    <glyph glyph-name="i.alt1" 
d="M54 0v508h88v-508h-88zM54 634v69h88v-69h-88z" />
    <glyph glyph-name="j.alt1" horiz-adv-x="200" 
d="M57 -196v704h88v-636q0 -35 -19 -51.5t-49 -16.5h-20zM57 569v84h88v-84h-88z" />
    <glyph glyph-name="j.alt2" horiz-adv-x="200" 
d="M145 -17h-88v525h88v-525zM57 -42h88q2 -68 -35.5 -111t-98.5 -43h-72v75h49q65 0 69 79zM57 634v69h88v-69h-88z" />
    <glyph glyph-name="L.alt1" horiz-adv-x="365" 
d="M172 0v79h203v-79h-203zM142 703v-703h-88v703h88z" />
    <glyph glyph-name="T.alt1" horiz-adv-x="377" 
d="M262 624v79h125v-79h-125zM232 703v-703h-87v624h-155v79h242z" />
    <glyph glyph-name="zeroslash" horiz-adv-x="528" 
d="M279 632v81h10q83 0 141 -58.5t58 -140.5v-325q0 -83 -58 -141t-141 -58h-10v81q52 0 87 35t35 84v322q0 28 -13 54l-195 -482q26 -13 56 -13v-81h-10q-82 0 -140.5 58.5t-58.5 140.5v325q0 82 58.5 140.5t140.5 58.5h10v-81q-52 0 -86.5 -35t-34.5 -85v-322
q0 -32 13 -55l196 483q-26 14 -58 14z" />
    <glyph glyph-name="zeroslash.po" horiz-adv-x="488" 
d="M124 182q0 -28 9 -52l177 297q-19 9 -51 11v77h19q73 0 123 -52t50 -125v-168q0 -74 -50 -125.5t-123 -51.5h-19v76q54 1 79.5 33.5t25.5 79.5v143q0 26 -8 50l-178 -295q22 -11 51 -11v-76h-19q-73 0 -123 51.5t-50 125.5v168q0 73 50 125t123 52h19v-77
q-54 -1 -79.5 -33t-25.5 -80v-143z" />
    <glyph glyph-name="zero.po" horiz-adv-x="488" 
d="M364 325q0 48 -25.5 80t-79.5 33v77h19q73 0 123 -52t50 -125v-168q0 -74 -50 -125.5t-123 -51.5h-19v76q54 1 79.5 33.5t25.5 79.5v143zM124 182q0 -47 25.5 -79.5t79.5 -33.5v-76h-19q-73 0 -123 51.5t-50 125.5v168q0 73 50 125t123 52h19v-77q-54 -1 -79.5 -33
t-25.5 -80v-143z" />
    <glyph glyph-name="one.po" horiz-adv-x="300" 
d="M128 492v-79l-126 -27v74zM158 0v499l33 9h55v-508h-88z" />
    <glyph glyph-name="two.po" horiz-adv-x="457" 
d="M194 0v76h244v-76h-244zM208 515v-71q-45 -1 -68 -31.5t-23 -74.5v-48h-81v57q0 71 46.5 119.5t117.5 48.5h8zM238 444v71h14q75 0 119 -43t44 -109v-14q0 -85 -93 -155l-158 -118v-76h-138v68l224 167q39 30 59 55t20 54v12q0 36 -22 61.5t-69 26.5z" />
    <glyph glyph-name="three.po" horiz-adv-x="494" 
d="M221 -132v-76h-11q-77 0 -130 53.5t-53 130.5v31h86v-30q0 -44 31.5 -76t76.5 -33zM251 -208v76q52 -1 84 31.5t32 77.5v28q0 49 -38.5 80.5t-98.5 31.5h-92v74h88q53 0 93 34.5t40 85.5v20q0 43 -30.5 75t-74.5 33v76h11q76 0 129.5 -53.5t53.5 -129.5v-23
q0 -46 -27 -90t-72 -62q53 -20 82 -62.5t29 -91.5v-27q0 -76 -53.5 -130t-129.5 -54h-26zM224 515v-76q-44 -1 -73.5 -32.5t-29.5 -75.5v-32h-86v33q0 77 51.5 130t127.5 53h10z" />
    <glyph glyph-name="four.po" horiz-adv-x="473" 
d="M272 49v-76h-270v66l289 469h97l-291 -459h175zM302 -196v519l85 137v-410h84v-77h-84v-169h-85z" />
    <glyph glyph-name="five.po" horiz-adv-x="502" 
d="M173 427v81h287v-81h-287zM243 -126v-79h-12q-78 0 -131 55.5t-53 134.5v39h85v-37q0 -47 30.5 -79.5t80.5 -33.5zM273 -205v80q50 1 80.5 33.5t30.5 80.5v35q0 51 -32.5 86t-85.5 35h-207v363h84v-284h139q82 0 136 -56.5t54 -137.5v-44q0 -80 -53.5 -135.5
t-132.5 -55.5h-13z" />
    <glyph glyph-name="six.po" horiz-adv-x="508" 
d="M242 713v-82q-51 -1 -83 -37t-32 -87v-119q20 10 58 18t63 8h41q79 0 132.5 -53.5t53.5 -132.5v-44q0 -81 -55 -137.5t-136 -56.5h-10v78q50 1 82 35t32 83v34q0 48 -32.5 82.5t-80.5 34.5h-34q-57 0 -114 -22v-129q0 -49 32 -83t85 -35v-78h-14q-80 0 -135 56.5
t-55 137.5v327q0 85 55.5 143.5t138.5 58.5h8zM272 631v82h7q80 0 134 -56.5t54 -137.5v-35h-85v30q0 48 -31.5 82t-78.5 35z" />
    <glyph glyph-name="seven.po" horiz-adv-x="414" 
d="M314 508l-28 -83h-278v83h306zM74 -195l271 703h68v-62l-246 -641h-93z" />
    <glyph glyph-name="eight.po" horiz-adv-x="513" 
d="M270 635v78h16q79 0 131.5 -51.5t52.5 -128.5v-24q0 -48 -25 -92t-65 -62q47 -17 73 -62t26 -97v-25q0 -76 -50.5 -128.5t-129.5 -52.5h-27v77q58 1 88.5 32t30.5 79v24q0 48 -31 81t-91 33h-28q-60 0 -90.5 -35.5t-30.5 -77.5v-23q0 -48 33.5 -80t88.5 -33v-77h-23
q-79 0 -132 52.5t-53 129.5v25q0 51 26 96.5t72 61.5q-44 18 -68 62t-24 93v22q0 78 54 129.5t132 51.5h14v-78q-52 -1 -82.5 -31.5t-30.5 -77.5v-20q0 -46 29 -79.5t88 -33.5h21q59 0 89 34.5t30 78.5v20q0 46 -31 77t-83 32z" />
    <glyph glyph-name="nine.po" horiz-adv-x="509" 
d="M266 -208v82q51 1 83 37t32 87v124q-21 -10 -58.5 -18t-62.5 -8h-41q-78 0 -131.5 53.5t-53.5 132.5v39q0 81 55 137.5t135 56.5h10v-77q-49 -1 -81 -35.5t-32 -82.5v-30q0 -48 32 -82.5t80 -34.5h34q53 0 114 21v126q0 49 -32 83t-85 35v77h14q81 0 135.5 -56.5
t54.5 -137.5v-327q0 -85 -55.5 -143.5t-138.5 -58.5h-8zM236 -126v-82h-7q-80 0 -134 56.5t-54 137.5v36h85v-31q0 -48 31.5 -82t78.5 -35z" />
    <glyph glyph-name="zeroslash.tl" horiz-adv-x="507" 
d="M268 632v81h10q82 0 140.5 -58.5t58.5 -140.5v-325q0 -83 -58.5 -141t-140.5 -58h-10v81q52 0 87 35t35 84v322q0 28 -13 54l-195 -482q26 -13 56 -13v-81h-10q-82 0 -140.5 58.5t-58.5 140.5v325q0 82 58.5 140.5t140.5 58.5h10v-81q-52 0 -86.5 -35t-34.5 -85v-322
q0 -32 13 -55l196 483q-26 14 -58 14z" />
    <glyph glyph-name="zero.tl" horiz-adv-x="507" 
d="M238 713v-81q-53 -1 -87 -35.5t-34 -84.5v-321q0 -50 34 -84.5t87 -35.5v-81h-10q-82 0 -140.5 58.5t-58.5 140.5v325q0 82 58.5 140.5t140.5 58.5h10zM268 632v81h10q82 0 140.5 -58.5t58.5 -140.5v-325q0 -83 -58.5 -141t-140.5 -58h-10v81q53 1 87.5 35.5t34.5 84.5
v321q0 50 -34.5 84.5t-87.5 35.5z" />
    <glyph glyph-name="one.tl" horiz-adv-x="507" 
d="M229 0v695l33 8h55v-623h172v-80h-260zM199 80v-80h-146v80h146zM199 687v-81l-133 -30v77z" />
    <glyph glyph-name="two.tl" horiz-adv-x="507" 
d="M196 0v85h269v-85h-269zM238 713v-79q-44 -1 -74 -34t-30 -78v-69h-82v70q0 80 52 134.5t130 55.5h4zM268 634v79h8q76 0 129.5 -53t53.5 -129v-21q0 -19 -2.5 -35.5t-11 -34.5t-12.5 -28t-20 -30.5t-20 -26t-25.5 -30t-24.5 -28.5l-177 -212v-85h-119v68l236 288
q58 70 72 98q14 29 14 56v18q0 43 -29.5 73.5t-71.5 32.5z" />
    <glyph glyph-name="three.tl" horiz-adv-x="507" 
d="M231 66v-76h-11q-77 0 -130 53.5t-53 130.5v31h86v-30q0 -44 31.5 -76t76.5 -33zM261 -10v76q52 -1 84 31.5t32 77.5v28q0 49 -38.5 80.5t-98.5 31.5h-92v74h88q53 0 93 34.5t40 85.5v20q0 43 -30.5 75t-74.5 33v76h11q76 0 129.5 -53.5t53.5 -129.5v-23q0 -46 -27 -90
t-72 -62q53 -20 82 -62.5t29 -91.5v-27q0 -76 -53.5 -130t-129.5 -54h-26zM234 713v-76q-44 -1 -73.5 -32.5t-29.5 -75.5v-32h-86v33q0 77 51.5 130t127.5 53h10z" />
    <glyph glyph-name="four.tl" horiz-adv-x="507" 
d="M287 227v-76h-268v67l287 485h92l-284 -476h173zM317 0v518l85 141v-431h80v-77h-80v-151h-85z" />
    <glyph glyph-name="five.tl" horiz-adv-x="507" 
d="M173 622v81h287v-81h-287zM243 69v-79h-12q-78 0 -131 55.5t-53 134.5v39h85v-37q0 -47 30.5 -79.5t80.5 -33.5zM273 -10v80q50 1 80.5 33.5t30.5 80.5v35q0 51 -32.5 86t-85.5 35h-207v363h84v-284h139q82 0 136 -56.5t54 -137.5v-44q0 -80 -53.5 -135.5t-132.5 -55.5
h-13z" />
    <glyph glyph-name="six.tl" horiz-adv-x="507" 
d="M242 713v-82q-51 -1 -83 -37t-32 -87v-119q20 10 58 18t63 8h41q79 0 132.5 -53.5t53.5 -132.5v-44q0 -81 -55 -137.5t-136 -56.5h-10v78q50 1 82 35t32 83v34q0 48 -32.5 82.5t-80.5 34.5h-34q-57 0 -114 -22v-129q0 -49 32 -83t85 -35v-78h-14q-80 0 -135 56.5
t-55 137.5v327q0 85 55.5 143.5t138.5 58.5h8zM272 631v82h7q80 0 134 -56.5t54 -137.5v-35h-85v30q0 48 -31.5 82t-78.5 35z" />
    <glyph glyph-name="seven.tl" horiz-adv-x="507" 
d="M374 703l-32 -83h-298v83h330zM112 0l292 703h68v-62l-266 -641h-94z" />
    <glyph glyph-name="eight.tl" horiz-adv-x="507" 
d="M267 635v78h16q79 0 131.5 -51.5t52.5 -128.5v-24q0 -48 -25 -92t-65 -62q47 -17 73 -62t26 -97v-25q0 -76 -50.5 -128.5t-129.5 -52.5h-27v77q58 1 88.5 32t30.5 79v24q0 48 -31 81t-91 33h-28q-60 0 -90.5 -35.5t-30.5 -77.5v-23q0 -48 33.5 -80t88.5 -33v-77h-23
q-79 0 -132 52.5t-53 129.5v25q0 51 26 96.5t72 61.5q-44 18 -68 62t-24 93v22q0 78 54 129.5t132 51.5h14v-78q-52 -1 -82.5 -31.5t-30.5 -77.5v-20q0 -46 29 -79.5t88 -33.5h21q59 0 89 34.5t30 78.5v20q0 46 -31 77t-83 32z" />
    <glyph glyph-name="nine.tl" horiz-adv-x="507" 
d="M266 -10v82q51 1 83 37t32 87v124q-21 -10 -58.5 -18t-62.5 -8h-41q-78 0 -131.5 53.5t-53.5 132.5v39q0 81 55 137.5t135 56.5h10v-77q-49 -1 -81 -35.5t-32 -82.5v-30q0 -48 32 -82.5t80 -34.5h34q53 0 114 21v126q0 49 -32 83t-85 35v77h14q81 0 135.5 -56.5
t54.5 -137.5v-327q0 -85 -55.5 -143.5t-138.5 -58.5h-8zM236 72v-82h-7q-80 0 -134 56.5t-54 137.5v36h85v-31q0 -48 31.5 -82t78.5 -35z" />
    <glyph glyph-name="zeroslash.to" horiz-adv-x="507" 
d="M134 182q0 -28 9 -52l177 297q-19 9 -51 11v77h19q73 0 123 -52t50 -125v-168q0 -74 -50 -125.5t-123 -51.5h-19v76q54 1 79.5 33.5t25.5 79.5v143q0 26 -8 50l-178 -295q22 -11 51 -11v-76h-19q-73 0 -123 51.5t-50 125.5v168q0 73 50 125t123 52h19v-77
q-54 -1 -79.5 -33t-25.5 -80v-143z" />
    <glyph glyph-name="zero.to" horiz-adv-x="507" 
d="M374 325q0 48 -25.5 80t-79.5 33v77h19q73 0 123 -52t50 -125v-168q0 -74 -50 -125.5t-123 -51.5h-19v76q54 1 79.5 33.5t25.5 79.5v143zM134 182q0 -47 25.5 -79.5t79.5 -33.5v-76h-19q-73 0 -123 51.5t-50 125.5v168q0 73 50 125t123 52h19v-77q-54 -1 -79.5 -33
t-25.5 -80v-143z" />
    <glyph glyph-name="one.to" horiz-adv-x="507" 
d="M229 0v499l33 9h55v-431h172v-77h-260zM200 77v-77h-147v77h147zM199 492v-79l-126 -27v74z" />
    <glyph glyph-name="two.to" horiz-adv-x="507" 
d="M216 0v76h251v-76h-251zM230 515v-71q-45 -1 -68 -31.5t-23 -74.5v-48h-81v57q0 71 46.5 119.5t117.5 48.5h8zM260 444v71h17q76 0 121.5 -42.5t45.5 -107.5v-14q0 -89 -95 -157l-163 -118v-76h-138v68l229 167q81 60 81 111v12q0 36 -23.5 61t-74.5 25z" />
    <glyph glyph-name="three.to" horiz-adv-x="507" 
d="M231 -132v-76h-11q-77 0 -130 53.5t-53 130.5v31h86v-30q0 -44 31.5 -76t76.5 -33zM261 -208v76q52 -1 84 31.5t32 77.5v28q0 49 -38.5 80.5t-98.5 31.5h-92v74h88q53 0 93 34.5t40 85.5v20q0 43 -30.5 75t-74.5 33v76h11q76 0 129.5 -53.5t53.5 -129.5v-23
q0 -46 -27 -90t-72 -62q53 -20 82 -62.5t29 -91.5v-27q0 -76 -53.5 -130t-129.5 -54h-26zM234 515v-76q-44 -1 -73.5 -32.5t-29.5 -75.5v-32h-86v33q0 77 51.5 130t127.5 53h10z" />
    <glyph glyph-name="four.to" horiz-adv-x="507" 
d="M287 49v-76h-268v66l287 469h97l-289 -459h173zM317 -196v519l85 137v-410h80v-77h-80v-169h-85z" />
    <glyph glyph-name="five.to" horiz-adv-x="507" 
d="M176 427v81h287v-81h-287zM246 -126v-79h-12q-78 0 -131 55.5t-53 134.5v39h85v-37q0 -47 30.5 -79.5t80.5 -33.5zM276 -205v80q50 1 80.5 33.5t30.5 80.5v35q0 51 -32.5 86t-85.5 35h-207v363h84v-284h139q82 0 136 -56.5t54 -137.5v-44q0 -80 -53.5 -135.5
t-132.5 -55.5h-13z" />
    <glyph glyph-name="six.to" horiz-adv-x="507" 
d="M240 713v-82q-51 -1 -83 -37t-32 -87v-119q20 10 58 18t63 8h41q79 0 132.5 -53.5t53.5 -132.5v-44q0 -81 -55 -137.5t-136 -56.5h-10v78q50 1 82 35t32 83v34q0 48 -32.5 82.5t-80.5 34.5h-34q-57 0 -114 -22v-129q0 -49 32 -83t85 -35v-78h-14q-80 0 -135 56.5
t-55 137.5v327q0 85 55.5 143.5t138.5 58.5h8zM270 631v82h7q80 0 134 -56.5t54 -137.5v-35h-85v30q0 48 -31.5 82t-78.5 35z" />
    <glyph glyph-name="seven.to" horiz-adv-x="507" 
d="M374 508l-32 -83h-298v83h330zM112 -195l292 703h68v-62l-266 -641h-94z" />
    <glyph glyph-name="eight.to" horiz-adv-x="507" 
d="M267 635v78h16q79 0 131.5 -51.5t52.5 -128.5v-24q0 -48 -25 -92t-65 -62q47 -17 73 -62t26 -97v-25q0 -76 -50.5 -128.5t-129.5 -52.5h-27v77q58 1 88.5 32t30.5 79v24q0 48 -31 81t-91 33h-28q-60 0 -90.5 -35.5t-30.5 -77.5v-23q0 -48 33.5 -80t88.5 -33v-77h-23
q-79 0 -132 52.5t-53 129.5v25q0 51 26 96.5t72 61.5q-44 18 -68 62t-24 93v22q0 78 54 129.5t132 51.5h14v-78q-52 -1 -82.5 -31.5t-30.5 -77.5v-20q0 -46 29 -79.5t88 -33.5h21q59 0 89 34.5t30 78.5v20q0 46 -31 77t-83 32z" />
    <glyph glyph-name="nine.to" horiz-adv-x="507" 
d="M266 -208v82q51 1 83 37t32 87v124q-21 -10 -58.5 -18t-62.5 -8h-41q-78 0 -131.5 53.5t-53.5 132.5v39q0 81 55 137.5t135 56.5h10v-77q-49 -1 -81 -35.5t-32 -82.5v-30q0 -48 32 -82.5t80 -34.5h34q53 0 114 21v126q0 49 -32 83t-85 35v77h14q81 0 135.5 -56.5
t54.5 -137.5v-327q0 -85 -55.5 -143.5t-138.5 -58.5h-8zM236 -126v-82h-7q-80 0 -134 56.5t-54 137.5v36h85v-31q0 -48 31.5 -82t78.5 -35z" />
    <glyph glyph-name="ampersand.alt1" horiz-adv-x="581" 
d="M244 713v-78q-39 -1 -66 -29t-27 -67v-23q0 -33 16.5 -63t59.5 -73l56 29q35 18 59.5 46.5t24.5 61.5v28q0 37 -27 62.5t-66 27.5v78h6q70 0 120 -48t50 -119v-29q0 -45 -33 -89t-84 -72l-52 -28l137 -127l11 12l104 115l58 -53l-107 -116l-10 -11l114 -106l-52 -61
l-117 110q-49 -50 -92.5 -75t-98.5 -26v78q61 0 136 75l-146 139l-16 14l-33 -16q-77 -37 -77 -101v-13q0 -41 31 -68.5t75 -28.5v-79q-82 0 -135.5 49t-53.5 123v21q0 101 113 158l24 11q-77 83 -77 163v25q0 71 50 122t121 51h4z" />
    <glyph glyph-name="plus.po" horiz-adv-x="350" 
d="M15 219v74h121v122h76v-122h123v-74h-123v-123h-76v123h-121z" />
    <glyph glyph-name="minus.po" horiz-adv-x="350" 
d="M15 219v74h320v-74h-320z" />
    <glyph glyph-name="multiply.po" horiz-adv-x="358" 
d="M75 101l-52 52l103 103l-102 102l52 53l102 -103l104 103l52 -52l-103 -103l103 -103l-52 -53l-104 103z" />
    <glyph glyph-name="plusminus.po" horiz-adv-x="350" 
d="M15 274v74h121v122h76v-122h123v-74h-123v-123h-76v123h-121zM15 48v72h320v-72h-320z" />
    <glyph glyph-name="less.po" horiz-adv-x="350" 
d="M25 221v67l300 134v-79l-209 -89l209 -89v-78z" />
    <glyph glyph-name="equal.po" horiz-adv-x="350" 
d="M15 302v72h320v-72h-320zM15 137v72h320v-72h-320z" />
    <glyph glyph-name="greater.po" horiz-adv-x="350" 
d="M325 221l-300 -134v78l208 89l-208 89v79l300 -134v-67z" />
    <glyph glyph-name="approxequal.po" horiz-adv-x="350" 
d="M335 374v-69q-45 -22 -85 -22q-28 0 -75 15.5t-77 15.5q-36 0 -83 -20v70q45 22 87 22q27 0 71.5 -15t75.5 -15q44 0 86 18zM335 215v-70q-45 -22 -85 -22q-28 0 -75 15t-77 15q-41 0 -83 -18v68q45 23 87 23q27 0 71.5 -15.5t75.5 -15.5q43 0 86 20z" />
    <glyph glyph-name="notequal.po" horiz-adv-x="350" 
d="M15 299v65h166l27 60h80l-27 -60h74v-65h-102l-38 -87h140v-65h-169l-26 -60h-81l26 60h-70v65h99l38 87h-137z" />
    <glyph glyph-name="lessequal.po" horiz-adv-x="350" 
d="M25 270v67l300 134v-79l-209 -89l209 -88v-79zM15 51v69h320v-69h-320z" />
    <glyph glyph-name="greaterequal.po" horiz-adv-x="350" 
d="M325 270l-300 -134v79l209 88l-209 89v79l300 -134v-67zM15 51v69h320v-69h-320z" />
    <glyph glyph-name="divide.po" horiz-adv-x="350" 
d="M133 353v74h82v-74h-82zM15 219v74h320v-74h-320zM133 85v74h82v-74h-82z" />
    <glyph glyph-name="infinity.po" horiz-adv-x="500" 
d="M305 281q-29 47 -38 54q43 39 83 39h24q43 0 74 -30t31 -74v-29q0 -44 -31 -74.5t-74 -30.5h-21q-59 0 -99 54l-2 2q-56 -56 -102 -56h-24q-43 0 -73.5 30.5t-30.5 73.5v32q0 43 30.5 72.5t73.5 29.5h27q51 0 87 -51l62 -80q11 -15 27 -26t28 -11h14q16 0 27.5 12
t11.5 28v18q0 16 -11.5 28.5t-27.5 12.5h-20q-19 0 -46 -24zM148 206q25 0 63 38l-15 20q-30 41 -51 41h-15q-17 0 -28.5 -12t-11.5 -29v-18q0 -16 11.5 -28t27.5 -12h19z" />
    <glyph glyph-name="logicalnot.po" horiz-adv-x="350" 
d="M15 219v74h320v-197h-77v123h-243z" />
    <glyph glyph-name="at.cap" horiz-adv-x="683" 
d="M441 147l-116 410h65l108 -346q35 3 59.5 32.5t24.5 77.5v123q0 85 -60.5 147t-145.5 62h-16v62h19q111 0 190 -78.5t79 -189.5v-135q0 -60 -44.5 -112.5t-119.5 -52.5h-43zM330 715v-62h-23q-86 0 -147 -62t-61 -148v-181q0 -86 61 -148t147 -62h23v-62h-27
q-112 0 -191.5 79.5t-79.5 191.5v183q0 112 79.5 191.5t191.5 79.5h27zM366 312l17 -60h-106l-31 -105h-72l126 405l32 -104l-44 -136h78zM360 -10v62h36q104 0 165 74l44 56l51 -41l-43 -56q-85 -95 -214 -95h-39z" />
    <glyph glyph-name="emdash.cap" horiz-adv-x="466" 
d="M16 314v76h434v-76h-434z" />
    <glyph glyph-name="endash.cap" horiz-adv-x="340" 
d="M16 314v76h307v-76h-307z" />
    <glyph glyph-name="hyphen.cap" horiz-adv-x="225" 
d="M16 314v76h193v-76h-193z" />
    <glyph glyph-name="guillemotleft.cap" horiz-adv-x="335" 
d="M229 219l-80 129v8l80 129h89l-83 -133l83 -133h-89zM93 219l-80 129v8l80 129h89l-83 -133l83 -133h-89z" />
    <glyph glyph-name="guilsinglleft.cap" horiz-adv-x="198" 
d="M93 219l-80 129v8l80 129h89l-83 -133l83 -133h-89z" />
    <glyph glyph-name="guilsinglright.cap" horiz-adv-x="198" 
d="M16 219l83 133l-83 133h89l80 -129v-8l-80 -129h-89z" />
    <glyph glyph-name="guillemotright.cap" horiz-adv-x="335" 
d="M106 485l80 -129v-8l-80 -129h-89l83 133l-83 133h89zM242 485l80 -129v-8l-80 -129h-89l83 133l-83 133h89z" />
    <glyph glyph-name="periodcentered.cap" horiz-adv-x="159" 
d="M36 302v100h87v-100h-87z" />
    <glyph glyph-name="questiondown.cap" horiz-adv-x="301" 
d="M199 0v79h79v-79h-79zM169 85v-85q-68 7 -111.5 54.5t-43.5 112.5v22q0 77 58 144l52 58q38 43 38 84v36h87v-44q0 -56 -52 -113l-47 -52q-48 -51 -48 -105v-17q0 -32 18.5 -58t48.5 -37zM249 703v-101h-87v101h87z" />
    <glyph glyph-name="exclamdown.cap" 
d="M142 511v-511h-88v511h88zM142 703v-101h-88v101h88z" />
    <glyph glyph-name="altcaron" horiz-adv-x="370" 
d="M236 699l-27 -171l-70 8l25 172z" />
    <glyph glyph-name="commaaccent" horiz-adv-x="302" 
d="M127 -28l70 -17l-41 -150l-69 17z" />
    <glyph glyph-name="acute.case" horiz-adv-x="302" 
d="M101 734l-32 56l158 95l34 -58z" />
    <glyph glyph-name="grave.case" horiz-adv-x="302" 
d="M206 735l-160 93l33 58l159 -95z" />
    <glyph glyph-name="caron.case" horiz-adv-x="302" 
d="M151 737l-143 87l30 52l113 -69l112 69l31 -52z" />
    <glyph glyph-name="circumflex.case" horiz-adv-x="302" 
d="M39 746l-31 52l143 87l143 -87l-31 -52l-112 68z" />
    <glyph glyph-name="dieresis.case" horiz-adv-x="302" 
d="M191 763v82h70v-82h-70zM43 763v82h71v-82h-71z" />
    <glyph glyph-name="hungarumlaut.case" horiz-adv-x="302" 
d="M212 737l-54 29l66 111l54 -30zM80 741l-53 29l66 110l54 -29z" />
    <glyph glyph-name="breve.case" horiz-adv-x="302" 
d="M34 843v24h60v-24q0 -19 13.5 -32.5t32.5 -13.5h21q19 0 32.5 13.5t13.5 32.5v24h61v-24q0 -43 -30 -72.5t-72 -29.5h-30q-43 0 -72.5 29.5t-29.5 72.5z" />
    <glyph glyph-name="macron.case" horiz-adv-x="302" 
d="M23 771v68h255v-68h-255z" />
    <glyph glyph-name="tilde.case" horiz-adv-x="302" 
d="M1 801l24 30q27 37 68 37q31 0 56 -17l29 -20q15 -11 27 -11q16 0 26 14l20 26l49 -39l-25 -33q-25 -35 -65 -35q-34 0 -55 15l-30 20q-18 12 -28 12q-16 0 -24 -10l-22 -29z" />
    <glyph glyph-name="ring.case" horiz-adv-x="302" 
d="M143 731q-31 0 -53.5 22t-22.5 53v15q0 31 22.5 52.5t53.5 21.5h16q31 0 53 -21.5t22 -52.5v-15q0 -31 -22 -53t-53 -22h-16zM146 782h10q10 0 18 8t8 18v10q0 10 -8 18t-18 8h-10q-10 0 -18 -8t-8 -18v-10q0 -10 8 -18t18 -8z" />
    <glyph glyph-name="dotaccent.case" horiz-adv-x="302" 
d="M109 764v82h84v-82h-84z" />
    </font>
</defs>
</svg>
