<svg xmlns="http://www.w3.org/2000/svg" width="29.939" height="29.939" viewBox="0 0 29.939 29.939"><defs><style>.a{fill:#fff;}.b{fill:#070707;}</style></defs><g transform="translate(0)"><g transform="translate(0 0)"><rect width="29.939" height="29.939" rx="6"/></g><g transform="translate(5 4.939)"><rect class="a" width="20" height="20" rx="4"/><rect width="4" height="4" transform="translate(14 2)"/><path class="b" d="M0,0H16a0,0,0,0,1,0,0V8a2,2,0,0,1-2,2H2A2,2,0,0,1,0,8V0A0,0,0,0,1,0,0Z" transform="translate(2 8)"/><circle class="a" cx="5" cy="5" r="5" transform="translate(5 5)"/><circle cx="3" cy="3" r="3" transform="translate(7 7)"/></g></g></svg>