<svg xmlns="http://www.w3.org/2000/svg" width="30" height="30" viewBox="0 0 29.939 29.939"><rect width="29.939" height="29.939" rx="6"/><path d="M24.423 8.517c.406-.112.804-.253 1.2-.423.094-.053.212-.035.286.044s.084.198.024.29a9.14 9.14 0 0 1-2.166 2.273l.01.43c.001.01.001.017 0 .026a13.26 13.26 0 0 1-3.835 9.195 12.36 12.36 0 0 1-8.955 3.593c-2.44.002-4.828-.696-6.882-2.01-.098-.054-.145-.17-.11-.276s.138-.175.25-.162q.257.03.5.043l.515.014a8.64 8.64 0 0 0 4.844-1.474c-1.727-.274-3.155-1.49-3.7-3.153-.033-.08-.02-.17.034-.237s.14-.1.225-.083q.2.037.392.055c.126.012.258.017.4.017h.138a4.66 4.66 0 0 1-2.749-4.247v-.053c0-.083.043-.16.115-.202s.16-.044.232-.004c.292.162.602.29.924.38q.087.024.176.044c-1.214-1.177-1.695-2.92-1.255-4.552.104-.387.26-.758.46-1.105a.23.23 0 0 1 .064-.082c.1-.082.247-.067.33.033l-.18.148.18-.147a12.3 12.3 0 0 0 8.634 4.507l-.03-.215a4.73 4.73 0 0 1-.031-.538c0-1.882 1.136-3.578 2.876-4.295s3.74-.315 5.067 1.02a8.57 8.57 0 0 0 2.6-1.01c.083-.056.192-.054.272.006s.113.164.082.26a4.68 4.68 0 0 1-1.253 1.975q.162-.04.32-.082z" fill="#fffffe"/></svg>